{"glyphs":{"0":{"ha":733,"x_min":35,"x_max":698,"o":"m 368 814 q 616 699 535 814 q 698 401 698 583 q 615 103 698 220 q 368 -14 531 -14 q 118 103 201 -14 q 35 401 35 220 q 118 698 35 582 q 368 814 201 814 m 366 118 q 500 196 458 118 q 542 401 542 274 q 500 602 542 526 q 366 679 458 679 q 232 603 273 679 q 191 401 191 528 q 233 196 191 274 q 366 118 274 118 z "},"1":{"ha":514,"x_min":17,"x_max":497,"o":"m 497 122 l 497 0 l 50 0 l 50 122 l 200 122 l 200 677 l 68 623 l 17 738 l 186 809 l 354 809 l 354 122 l 497 122 z "},"2":{"ha":637,"x_min":35,"x_max":592,"o":"m 35 738 q 169 801 108 778 q 314 825 231 825 q 506 759 429 825 q 583 576 583 693 q 541 416 583 484 q 401 248 498 347 l 278 134 l 592 134 l 592 0 l 54 0 l 54 123 l 116 181 q 323 375 266 311 q 412 493 392 455 q 432 576 432 531 q 399 650 432 623 q 299 677 366 677 q 204 661 247 677 q 132 627 161 644 q 90 604 102 609 l 35 738 z "},"3":{"ha":672,"x_min":49,"x_max":611,"o":"m 314 826 q 506 766 436 826 q 576 602 576 707 q 543 488 576 538 q 458 410 510 438 q 570 341 530 387 q 611 215 611 295 q 533 43 611 102 q 326 -17 455 -17 q 185 0 250 -17 q 49 50 120 17 l 97 184 q 219 136 174 151 q 314 122 264 122 q 464 220 464 122 q 411 312 464 285 q 241 339 359 339 l 227 339 l 227 470 q 385 503 342 470 q 427 594 427 536 q 393 663 427 642 q 314 684 359 684 q 111 627 240 684 l 57 760 q 314 826 198 826 z "},"4":{"ha":696,"x_min":26,"x_max":679,"o":"m 679 304 l 679 175 l 550 175 l 550 -2 l 401 -2 l 401 175 l 26 175 l 26 276 l 378 809 l 550 809 l 550 304 l 679 304 m 210 304 l 401 304 l 401 604 l 210 304 z "},"5":{"ha":620,"x_min":35,"x_max":585,"o":"m 252 396 q 160 388 212 396 q 95 378 108 380 l 69 396 l 69 809 l 556 809 l 556 684 l 208 684 l 208 526 q 293 530 245 530 q 510 455 436 530 q 585 255 585 380 q 498 49 585 113 q 278 -16 411 -16 q 155 -3 220 -16 q 35 28 89 9 l 73 160 q 174 131 134 141 q 260 122 215 122 q 398 155 356 122 q 441 260 441 188 q 252 396 441 396 z "},"6":{"ha":668,"x_min":38,"x_max":625,"o":"m 356 498 q 548 432 470 498 q 625 247 625 366 q 553 55 625 127 q 347 -17 481 -17 q 115 85 191 -17 q 38 366 38 188 q 163 707 38 590 q 536 826 288 825 l 550 688 q 288 632 372 693 q 189 460 205 571 q 356 498 260 498 m 345 116 q 446 149 410 116 q 483 245 483 182 q 450 333 483 302 q 349 365 417 365 q 179 307 259 365 q 232 164 186 212 q 345 116 278 116 z "},"7":{"ha":592,"x_min":35,"x_max":557,"o":"m 271 0 l 123 0 l 396 679 l 35 679 l 35 809 l 557 809 l 557 707 l 271 0 z "},"8":{"ha":660,"x_min":56,"x_max":615,"o":"m 330 825 q 507 768 441 825 q 573 625 573 712 q 545 517 573 557 q 470 438 517 477 q 579 345 543 396 q 615 226 615 295 q 541 50 615 118 q 333 -17 467 -17 q 128 49 201 -17 q 56 215 56 115 q 89 340 56 290 q 191 436 123 391 q 115 516 144 474 q 85 625 85 557 q 152 766 85 708 q 330 825 219 825 m 330 698 q 253 674 285 698 q 220 615 220 651 q 249 541 220 573 q 330 479 278 509 q 409 536 380 507 q 438 613 438 566 q 406 675 438 653 q 330 698 375 698 m 333 108 q 444 142 405 108 q 483 231 483 177 q 440 322 483 290 q 330 378 398 354 q 225 320 266 361 q 184 226 184 280 q 221 142 184 177 q 333 108 259 108 z "},"9":{"ha":674,"x_min":38,"x_max":625,"o":"m 316 826 q 549 724 474 826 q 625 443 625 622 q 576 181 625 283 q 413 29 528 78 q 104 -17 299 -21 l 95 115 q 149 113 115 113 q 391 168 318 113 q 481 328 465 222 q 307 293 406 293 q 173 326 234 293 q 75 420 111 359 q 38 563 38 481 q 110 754 38 682 q 316 826 182 826 m 182 564 q 215 465 182 503 q 314 427 248 427 q 484 470 411 427 q 437 637 483 583 q 318 691 391 691 q 218 659 253 691 q 182 564 182 627 z "}," ":{"ha":382,"x_min":0,"x_max":0,"o":""},"A":{"ha":929,"x_min":23,"x_max":906,"o":"m 23 0 l 189 0 l 285 252 l 637 252 l 734 0 l 906 0 l 547 955 l 382 955 l 23 0 m 339 405 l 460 762 l 582 405 l 339 405 z "},"Á":{"ha":929,"x_min":23,"x_max":906,"o":"m 23 0 m 23 0 l 189 0 l 285 252 l 637 252 l 734 0 l 906 0 l 547 955 l 382 955 l 23 0 m 339 405 l 460 762 l 582 405 l 339 405 m 651 1151 l 278 1007 l 215 1127 l 582 1304 l 651 1151 z "},"Ă":{"ha":929,"x_min":23,"x_max":906,"o":"m 23 0 m 23 0 l 189 0 l 285 252 l 637 252 l 734 0 l 906 0 l 547 955 l 382 955 l 23 0 m 339 405 l 460 762 l 582 405 l 339 405 m 465 1045 q 607 1090 549 1045 q 696 1200 665 1135 l 602 1267 q 542 1193 573 1220 q 465 1165 510 1165 q 390 1191 418 1165 q 328 1267 361 1217 l 234 1200 q 324 1090 266 1135 q 465 1045 382 1045 z "},"Â":{"ha":929,"x_min":23,"x_max":906,"o":"m 23 0 m 23 0 l 189 0 l 285 252 l 637 252 l 734 0 l 906 0 l 547 955 l 382 955 l 23 0 m 339 405 l 460 762 l 582 405 l 339 405 m 205 1132 l 293 1033 l 465 1165 l 637 1033 l 726 1132 l 465 1330 l 205 1132 z "},"Ä":{"ha":929,"x_min":23,"x_max":906,"o":"m 23 0 m 23 0 l 189 0 l 285 252 l 637 252 l 734 0 l 906 0 l 547 955 l 382 955 l 23 0 m 339 405 l 460 762 l 582 405 l 339 405 m 330 1064 q 268 1089 293 1064 q 243 1151 243 1115 q 268 1211 243 1186 q 330 1236 293 1236 q 390 1211 365 1236 q 415 1151 415 1186 q 390 1089 415 1115 q 330 1064 365 1064 m 602 1064 q 541 1089 566 1064 q 516 1151 516 1115 q 541 1211 516 1186 q 602 1236 566 1236 q 662 1211 637 1236 q 688 1151 688 1186 q 662 1089 688 1115 q 602 1064 637 1064 z "},"À":{"ha":929,"x_min":23,"x_max":906,"o":"m 23 0 m 23 0 l 189 0 l 285 252 l 637 252 l 734 0 l 906 0 l 547 955 l 382 955 l 23 0 m 339 405 l 460 762 l 582 405 l 339 405 m 280 1151 l 349 1304 l 715 1127 l 653 1007 l 280 1151 z "},"Ā":{"ha":929,"x_min":23,"x_max":906,"o":"m 23 0 m 23 0 l 189 0 l 285 252 l 637 252 l 734 0 l 906 0 l 547 955 l 382 955 l 23 0 m 339 405 l 460 762 l 582 405 l 339 405 m 240 1085 l 691 1085 l 691 1220 l 240 1220 l 240 1085 z "},"Ą":{"ha":929,"x_min":23,"x_max":906,"o":"m 714 43 q 528 -56 583 -10 q 472 -172 472 -101 q 523 -298 472 -248 q 665 -347 575 -347 q 780 -330 729 -347 q 882 -281 830 -312 l 842 -205 q 793 -223 832 -208 q 719 -238 753 -238 q 655 -214 675 -238 q 634 -151 634 -191 q 656 -102 634 -123 q 736 -58 679 -82 q 906 0 793 -35 l 547 955 l 382 955 l 23 0 l 189 0 l 285 252 l 637 252 l 714 43 m 339 405 l 460 762 l 582 405 l 339 405 z "},"Å":{"ha":929,"x_min":23,"x_max":906,"o":"m 637 1047 q 586 1172 637 1120 q 462 1224 535 1224 q 338 1172 389 1224 q 286 1047 286 1120 q 306 964 286 1003 q 359 899 326 925 l 23 0 l 189 0 l 285 252 l 637 252 l 734 0 l 906 0 l 569 905 q 619 965 601 927 q 637 1047 637 1003 m 462 1115 q 508 1094 488 1115 q 528 1047 528 1073 q 508 997 528 1017 q 462 976 488 976 q 412 996 431 976 q 394 1047 394 1016 q 413 1095 394 1075 q 462 1115 432 1115 m 339 405 l 460 762 l 582 405 l 339 405 z "},"Ã":{"ha":929,"x_min":23,"x_max":906,"o":"m 23 0 m 23 0 l 189 0 l 285 252 l 637 252 l 734 0 l 906 0 l 547 955 l 382 955 l 23 0 m 339 405 l 460 762 l 582 405 l 339 405 m 365 1253 q 251 1210 295 1253 q 193 1101 207 1167 l 311 1063 q 339 1115 326 1099 q 378 1130 351 1130 q 438 1106 398 1130 q 502 1076 472 1087 q 563 1064 531 1064 q 681 1108 639 1064 q 740 1220 724 1151 l 620 1255 q 609 1230 618 1250 q 587 1199 601 1210 q 554 1188 573 1188 q 481 1215 530 1188 q 415 1244 441 1234 q 365 1253 389 1253 z "},"Æ":{"ha":1314,"x_min":23,"x_max":1236,"o":"m 1236 0 l 1236 155 l 790 155 l 790 408 l 1188 408 l 1188 563 l 790 563 l 790 802 l 1236 802 l 1236 955 l 434 955 l 23 0 l 193 0 l 307 252 l 627 252 l 627 0 l 1236 0 m 627 802 l 627 405 l 373 405 l 547 802 l 627 802 z "},"B":{"ha":894,"x_min":109,"x_max":840,"o":"m 109 0 l 411 0 q 746 77 651 0 q 840 260 840 155 q 787 408 840 340 q 639 495 734 476 q 764 707 764 571 q 692 878 764 800 q 434 955 620 955 l 109 955 l 109 0 m 403 807 q 556 776 512 807 q 599 684 599 745 q 553 592 599 622 q 403 563 507 563 l 280 563 l 280 807 l 403 807 m 391 420 q 605 385 538 420 q 672 280 672 349 q 603 177 672 205 q 391 149 535 149 l 280 149 l 280 418 l 391 420 z "},"C":{"ha":941,"x_min":69,"x_max":885,"o":"m 578 964 q 310 900 425 964 q 132 727 194 837 q 69 477 69 616 q 129 229 69 342 q 303 50 189 116 q 569 -16 417 -16 q 710 0 642 -16 q 861 49 778 16 l 885 59 l 830 196 l 806 186 q 599 141 684 141 q 338 234 432 141 q 243 479 243 326 q 283 648 243 571 q 398 768 323 724 q 575 813 474 813 q 674 806 627 813 q 790 774 720 800 l 816 766 l 873 899 l 845 910 q 578 964 717 964 z "},"Ć":{"ha":941,"x_min":69,"x_max":885,"o":"m 69 0 m 578 964 q 310 900 425 964 q 132 727 194 837 q 69 477 69 616 q 129 229 69 342 q 303 50 189 116 q 569 -16 417 -16 q 710 0 642 -16 q 861 49 778 16 l 885 59 l 830 196 l 806 186 q 599 141 684 141 q 338 234 432 141 q 243 479 243 326 q 283 648 243 571 q 398 768 323 724 q 575 813 474 813 q 674 806 627 813 q 790 774 720 800 l 816 766 l 873 899 l 845 910 q 578 964 717 964 m 764 1151 l 391 1007 l 328 1127 l 694 1304 l 764 1151 z "},"Č":{"ha":941,"x_min":69,"x_max":885,"o":"m 69 0 m 578 964 q 310 900 425 964 q 132 727 194 837 q 69 477 69 616 q 129 229 69 342 q 303 50 189 116 q 569 -16 417 -16 q 710 0 642 -16 q 861 49 778 16 l 885 59 l 830 196 l 806 186 q 599 141 684 141 q 338 234 432 141 q 243 479 243 326 q 283 648 243 571 q 398 768 323 724 q 575 813 474 813 q 674 806 627 813 q 790 774 720 800 l 816 766 l 873 899 l 845 910 q 578 964 717 964 m 318 1231 l 406 1330 l 578 1198 l 750 1330 l 839 1231 l 578 1033 l 318 1231 z "},"Ç":{"ha":941,"x_min":69,"x_max":885,"o":"m 531 -247 q 464 -236 505 -247 l 368 -210 l 333 -325 l 361 -332 q 521 -361 443 -361 q 649 -319 608 -361 q 691 -215 691 -278 q 554 -73 691 -109 l 569 -16 q 861 49 710 -16 l 885 57 l 830 196 l 806 186 q 599 141 684 141 q 338 234 432 141 q 243 479 243 326 q 283 648 243 571 q 398 768 323 724 q 575 813 474 813 q 674 806 627 813 q 790 774 720 800 l 816 766 l 873 899 l 845 910 q 578 964 717 964 q 310 900 425 964 q 132 727 194 837 q 69 477 69 616 q 115 260 69 361 q 244 90 160 160 q 444 -2 328 21 l 403 -149 l 500 -177 q 554 -201 542 -189 q 566 -224 566 -212 q 531 -247 566 -247 z "},"Ĉ":{"ha":941,"x_min":69,"x_max":885,"o":"m 69 0 m 578 964 q 310 900 425 964 q 132 727 194 837 q 69 477 69 616 q 129 229 69 342 q 303 50 189 116 q 569 -16 417 -16 q 710 0 642 -16 q 861 49 778 16 l 885 59 l 830 196 l 806 186 q 599 141 684 141 q 338 234 432 141 q 243 479 243 326 q 283 648 243 571 q 398 768 323 724 q 575 813 474 813 q 674 806 627 813 q 790 774 720 800 l 816 766 l 873 899 l 845 910 q 578 964 717 964 m 318 1132 l 406 1033 l 578 1165 l 750 1033 l 839 1132 l 578 1330 l 318 1132 z "},"Ċ":{"ha":941,"x_min":69,"x_max":885,"o":"m 69 0 m 578 964 q 310 900 425 964 q 132 727 194 837 q 69 477 69 616 q 129 229 69 342 q 303 50 189 116 q 569 -16 417 -16 q 710 0 642 -16 q 861 49 778 16 l 885 59 l 830 196 l 806 186 q 599 141 684 141 q 338 234 432 141 q 243 479 243 326 q 283 648 243 571 q 398 768 323 724 q 575 813 474 813 q 674 806 627 813 q 790 774 720 800 l 816 766 l 873 899 l 845 910 q 578 964 717 964 m 578 1056 q 503 1087 535 1056 q 472 1161 472 1118 q 503 1237 472 1207 q 578 1267 535 1267 q 654 1237 623 1267 q 684 1161 684 1207 q 654 1087 684 1118 q 578 1056 623 1056 z "},"D":{"ha":1012,"x_min":109,"x_max":943,"o":"m 109 0 l 347 0 q 487 3 432 0 q 597 19 542 7 q 862 203 781 71 q 943 507 943 335 q 896 720 943 620 q 735 888 849 821 q 432 955 622 955 l 109 955 l 109 0 m 436 802 q 684 721 599 802 q 769 484 769 641 q 757 378 769 424 q 727 306 745 332 q 590 182 679 210 q 391 155 502 155 l 280 155 l 280 802 l 436 802 z "},"Ð":{"ha":1085,"x_min":16,"x_max":1017,"o":"m 184 410 l 184 0 l 424 0 q 561 3 505 0 q 672 19 616 7 q 936 203 854 71 q 1017 507 1017 335 q 971 720 1017 620 q 811 888 925 821 q 507 955 696 955 l 184 955 l 184 564 l 16 564 l 16 410 l 184 410 m 510 802 q 759 721 674 802 q 844 484 844 641 q 802 306 844 384 q 663 182 750 210 q 465 155 576 155 l 356 155 l 356 410 l 564 410 l 564 564 l 356 564 l 356 802 l 510 802 z "},"Ď":{"ha":1012,"x_min":109,"x_max":943,"o":"m 109 0 m 109 0 l 347 0 q 487 3 432 0 q 597 19 542 7 q 862 203 781 71 q 943 507 943 335 q 896 720 943 620 q 735 888 849 821 q 432 955 622 955 l 109 955 l 109 0 m 436 802 q 684 721 599 802 q 769 484 769 641 q 757 378 769 424 q 727 306 745 332 q 590 182 679 210 q 391 155 502 155 l 280 155 l 280 802 l 436 802 m 156 1214 l 245 1313 l 417 1181 l 589 1313 l 677 1214 l 417 1016 l 156 1214 z "},"Đ":{"ha":1085,"x_min":16,"x_max":1017,"o":"m 16 0 m 184 410 l 184 0 l 424 0 q 561 3 505 0 q 672 19 616 7 q 936 203 854 71 q 1017 507 1017 335 q 971 720 1017 620 q 811 888 925 821 q 507 955 696 955 l 184 955 l 184 564 l 16 564 l 16 410 l 184 410 m 510 802 q 759 721 674 802 q 844 484 844 641 q 802 306 844 384 q 663 182 750 210 q 465 155 576 155 l 356 155 l 356 410 l 564 410 l 564 564 l 356 564 l 356 802 l 510 802 z "},"E":{"ha":811,"x_min":109,"x_max":736,"o":"m 736 0 l 736 155 l 280 155 l 280 408 l 684 408 l 684 563 l 280 563 l 280 802 l 736 802 l 736 955 l 109 955 l 109 0 l 736 0 z "},"É":{"ha":811,"x_min":109,"x_max":736,"o":"m 109 0 m 736 0 l 736 155 l 280 155 l 280 408 l 684 408 l 684 563 l 280 563 l 280 802 l 736 802 l 736 955 l 109 955 l 109 0 l 736 0 m 608 1151 l 234 1007 l 172 1127 l 538 1304 l 608 1151 z "},"Ĕ":{"ha":811,"x_min":109,"x_max":736,"o":"m 109 0 m 736 0 l 736 155 l 280 155 l 280 408 l 684 408 l 684 563 l 280 563 l 280 802 l 736 802 l 736 955 l 109 955 l 109 0 l 736 0 m 422 1045 q 563 1090 505 1045 q 653 1200 622 1135 l 559 1267 q 498 1193 530 1220 q 422 1165 467 1165 q 346 1191 375 1165 q 285 1267 318 1217 l 191 1200 q 280 1090 222 1135 q 422 1045 339 1045 z "},"Ě":{"ha":811,"x_min":109,"x_max":736,"o":"m 109 0 m 736 0 l 736 155 l 280 155 l 280 408 l 684 408 l 684 563 l 280 563 l 280 802 l 736 802 l 736 955 l 109 955 l 109 0 l 736 0 m 161 1231 l 250 1330 l 422 1198 l 594 1330 l 682 1231 l 422 1033 l 161 1231 z "},"Ê":{"ha":811,"x_min":109,"x_max":736,"o":"m 109 0 m 736 0 l 736 155 l 280 155 l 280 408 l 684 408 l 684 563 l 280 563 l 280 802 l 736 802 l 736 955 l 109 955 l 109 0 l 736 0 m 161 1132 l 250 1033 l 422 1165 l 594 1033 l 682 1132 l 422 1330 l 161 1132 z "},"Ë":{"ha":811,"x_min":109,"x_max":736,"o":"m 109 0 m 736 0 l 736 155 l 280 155 l 280 408 l 684 408 l 684 563 l 280 563 l 280 802 l 736 802 l 736 955 l 109 955 l 109 0 l 736 0 m 286 1064 q 225 1089 250 1064 q 200 1151 200 1115 q 225 1211 200 1186 q 286 1236 250 1236 q 346 1211 321 1236 q 372 1151 372 1186 q 346 1089 372 1115 q 286 1064 321 1064 m 559 1064 q 497 1089 523 1064 q 472 1151 472 1115 q 497 1211 472 1186 q 559 1236 523 1236 q 619 1211 594 1236 q 644 1151 644 1186 q 619 1089 644 1115 q 559 1064 594 1064 z "},"Ė":{"ha":811,"x_min":109,"x_max":736,"o":"m 109 0 m 736 0 l 736 155 l 280 155 l 280 408 l 684 408 l 684 563 l 280 563 l 280 802 l 736 802 l 736 955 l 109 955 l 109 0 l 736 0 m 422 1056 q 347 1087 378 1056 q 316 1161 316 1118 q 347 1237 316 1207 q 422 1267 378 1267 q 497 1237 467 1267 q 528 1161 528 1207 q 497 1087 528 1118 q 422 1056 467 1056 z "},"È":{"ha":811,"x_min":109,"x_max":736,"o":"m 109 0 m 736 0 l 736 155 l 280 155 l 280 408 l 684 408 l 684 563 l 280 563 l 280 802 l 736 802 l 736 955 l 109 955 l 109 0 l 736 0 m 236 1151 l 306 1304 l 672 1127 l 609 1007 l 236 1151 z "},"Ē":{"ha":811,"x_min":109,"x_max":736,"o":"m 109 0 m 736 0 l 736 155 l 280 155 l 280 408 l 684 408 l 684 563 l 280 563 l 280 802 l 736 802 l 736 955 l 109 955 l 109 0 l 736 0 m 196 1085 l 648 1085 l 648 1220 l 196 1220 l 196 1085 z "},"Ę":{"ha":811,"x_min":109,"x_max":736,"o":"m 465 0 q 341 -79 385 -35 q 297 -187 297 -123 q 346 -300 297 -253 q 488 -347 396 -347 q 608 -330 556 -347 q 708 -281 660 -312 l 670 -205 q 619 -223 658 -208 q 545 -238 580 -238 q 478 -214 502 -238 q 455 -151 455 -189 q 517 -61 455 -102 q 736 0 580 -19 l 736 155 l 280 155 l 280 408 l 684 408 l 684 563 l 280 563 l 280 802 l 736 802 l 736 955 l 109 955 l 109 0 l 465 0 z "},"F":{"ha":781,"x_min":109,"x_max":727,"o":"m 727 802 l 727 955 l 109 955 l 109 0 l 280 0 l 280 363 l 674 363 l 674 519 l 280 519 l 280 802 l 727 802 z "},"G":{"ha":1003,"x_min":69,"x_max":925,"o":"m 509 533 l 509 382 l 759 382 l 759 179 q 688 151 724 160 q 597 142 653 142 q 414 187 495 142 q 287 309 333 231 q 241 484 241 387 q 288 655 241 582 q 411 768 335 729 q 575 807 488 807 q 704 789 641 807 q 816 745 767 771 l 840 734 l 911 865 l 887 878 q 569 964 740 964 q 301 896 415 964 q 128 717 188 828 q 69 477 69 606 q 125 241 69 354 q 293 56 181 128 q 569 -16 406 -16 q 925 99 799 -10 l 925 533 l 509 533 z "},"Ğ":{"ha":1003,"x_min":69,"x_max":925,"o":"m 69 0 m 509 533 l 509 382 l 759 382 l 759 179 q 688 151 724 160 q 597 142 653 142 q 414 187 495 142 q 287 309 333 231 q 241 484 241 387 q 288 655 241 582 q 411 768 335 729 q 575 807 488 807 q 704 789 641 807 q 816 745 767 771 l 840 734 l 911 865 l 887 878 q 569 964 740 964 q 301 896 415 964 q 128 717 188 828 q 69 477 69 606 q 125 241 69 354 q 293 56 181 128 q 569 -16 406 -16 q 925 99 799 -10 l 925 533 l 509 533 m 569 1045 q 711 1090 653 1045 q 800 1200 769 1135 l 707 1267 q 646 1193 677 1220 q 569 1165 615 1165 q 494 1191 523 1165 q 432 1267 465 1217 l 339 1200 q 428 1090 370 1135 q 569 1045 486 1045 z "},"Ĝ":{"ha":1003,"x_min":69,"x_max":925,"o":"m 69 0 m 509 533 l 509 382 l 759 382 l 759 179 q 688 151 724 160 q 597 142 653 142 q 414 187 495 142 q 287 309 333 231 q 241 484 241 387 q 288 655 241 582 q 411 768 335 729 q 575 807 488 807 q 704 789 641 807 q 816 745 767 771 l 840 734 l 911 865 l 887 878 q 569 964 740 964 q 301 896 415 964 q 128 717 188 828 q 69 477 69 606 q 125 241 69 354 q 293 56 181 128 q 569 -16 406 -16 q 925 99 799 -10 l 925 533 l 509 533 m 309 1132 l 398 1033 l 569 1165 l 741 1033 l 830 1132 l 569 1330 l 309 1132 z "},"Ģ":{"ha":1003,"x_min":69,"x_max":925,"o":"m 69 0 m 509 533 l 509 382 l 759 382 l 759 179 q 688 151 724 160 q 597 142 653 142 q 414 187 495 142 q 287 309 333 231 q 241 484 241 387 q 288 655 241 582 q 411 768 335 729 q 575 807 488 807 q 704 789 641 807 q 816 745 767 771 l 840 734 l 911 865 l 887 878 q 569 964 740 964 q 301 896 415 964 q 128 717 188 828 q 69 477 69 606 q 125 241 69 354 q 293 56 181 128 q 569 -16 406 -16 q 925 99 799 -10 l 925 533 l 509 533 m 406 -394 l 547 -394 l 660 -89 l 469 -89 l 406 -394 z "},"Ġ":{"ha":1003,"x_min":69,"x_max":925,"o":"m 69 0 m 509 533 l 509 382 l 759 382 l 759 179 q 688 151 724 160 q 597 142 653 142 q 414 187 495 142 q 287 309 333 231 q 241 484 241 387 q 288 655 241 582 q 411 768 335 729 q 575 807 488 807 q 704 789 641 807 q 816 745 767 771 l 840 734 l 911 865 l 887 878 q 569 964 740 964 q 301 896 415 964 q 128 717 188 828 q 69 477 69 606 q 125 241 69 354 q 293 56 181 128 q 569 -16 406 -16 q 925 99 799 -10 l 925 533 l 509 533 m 569 1056 q 495 1087 526 1056 q 464 1161 464 1118 q 495 1237 464 1207 q 569 1267 526 1267 q 645 1237 615 1267 q 675 1161 675 1207 q 645 1087 675 1118 q 569 1056 615 1056 z "},"H":{"ha":1019,"x_min":109,"x_max":910,"o":"m 741 554 l 280 554 l 280 955 l 109 955 l 109 0 l 280 0 l 280 399 l 741 399 l 741 0 l 910 0 l 910 955 l 741 955 l 741 554 z "},"I":{"ha":389,"x_min":109,"x_max":280,"o":"m 109 0 l 280 0 l 280 955 l 109 955 l 109 0 z "},"Ĳ":{"ha":969,"x_min":109,"x_max":884,"o":"m 109 0 l 280 0 l 280 955 l 109 955 l 109 0 m 715 345 q 676 204 715 264 q 509 144 637 144 q 420 155 460 144 l 391 161 l 365 14 l 387 5 q 528 -12 455 -12 q 812 90 740 -12 q 884 345 884 193 l 884 955 l 715 955 l 715 345 z "},"Í":{"ha":389,"x_min":-56,"x_max":380,"o":"m 0 0 m 109 0 l 280 0 l 280 955 l 109 955 l 109 0 m 380 1134 l 7 990 l -56 1109 l 311 1286 l 380 1134 z "},"Ĭ":{"ha":389,"x_min":-36,"x_max":425,"o":"m 0 0 m 109 0 l 280 0 l 280 955 l 109 955 l 109 0 m 194 1028 q 336 1073 278 1028 q 425 1182 394 1118 l 332 1250 q 271 1175 302 1203 q 194 1148 240 1148 q 119 1174 148 1148 q 57 1250 90 1200 l -36 1182 q 53 1073 -5 1118 q 194 1028 111 1028 z "},"Î":{"ha":389,"x_min":-66,"x_max":455,"o":"m 0 0 m 109 0 l 280 0 l 280 955 l 109 955 l 109 0 m -66 1115 l 23 1016 l 194 1148 l 366 1016 l 455 1115 l 194 1313 l -66 1115 z "},"Ï":{"ha":389,"x_min":-28,"x_max":417,"o":"m 0 0 m 109 0 l 280 0 l 280 955 l 109 955 l 109 0 m 59 1047 q -3 1072 23 1047 q -28 1134 -28 1097 q -3 1194 -28 1168 q 59 1219 23 1219 q 119 1194 94 1219 q 144 1134 144 1168 q 119 1072 144 1097 q 59 1047 94 1047 m 332 1047 q 270 1072 295 1047 q 245 1134 245 1097 q 270 1194 245 1168 q 332 1219 295 1219 q 391 1194 366 1219 q 417 1134 417 1168 q 391 1072 417 1097 q 332 1047 366 1047 z "},"İ":{"ha":389,"x_min":89,"x_max":300,"o":"m 89 0 m 109 0 l 280 0 l 280 955 l 109 955 l 109 0 m 194 1038 q 120 1069 151 1038 q 89 1144 89 1101 q 120 1220 89 1189 q 194 1250 151 1250 q 270 1220 240 1250 q 300 1144 300 1189 q 270 1069 300 1101 q 194 1038 240 1038 z "},"Ì":{"ha":389,"x_min":9,"x_max":444,"o":"m 9 0 m 109 0 l 280 0 l 280 955 l 109 955 l 109 0 m 9 1134 l 78 1286 l 444 1109 l 382 990 l 9 1134 z "},"Ī":{"ha":389,"x_min":-31,"x_max":420,"o":"m 0 0 m 109 0 l 280 0 l 280 955 l 109 955 l 109 0 m -31 1068 l 420 1068 l 420 1203 l -31 1203 l -31 1068 z "},"Į":{"ha":396,"x_min":-104,"x_max":307,"o":"m 120 955 l 120 63 q -104 -172 -104 -35 q -52 -298 -104 -248 q 87 -347 0 -347 q 204 -330 153 -347 q 307 -281 255 -312 l 266 -205 q 219 -223 259 -208 q 142 -238 179 -238 q 79 -214 101 -238 q 57 -151 57 -189 q 104 -57 57 -97 q 290 28 151 -17 l 290 955 l 120 955 z "},"Ĩ":{"ha":389,"x_min":-78,"x_max":469,"o":"m 0 0 m 109 0 l 280 0 l 280 955 l 109 955 l 109 0 m 94 1236 q -20 1193 24 1236 q -78 1083 -64 1149 l 40 1045 q 68 1097 56 1082 q 108 1113 80 1113 q 167 1089 127 1113 q 231 1058 201 1069 q 292 1047 260 1047 q 411 1090 368 1047 q 469 1203 453 1134 l 349 1238 q 339 1213 347 1233 q 316 1181 330 1193 q 283 1170 302 1170 q 210 1198 259 1170 q 144 1227 170 1217 q 94 1236 118 1236 z "},"J":{"ha":632,"x_min":28,"x_max":547,"o":"m 378 345 q 339 204 378 264 q 172 144 300 144 q 83 155 123 144 l 54 161 l 28 14 l 50 5 q 191 -12 118 -12 q 475 90 403 -12 q 547 345 547 193 l 547 955 l 378 955 l 378 345 z "},"Ĵ":{"ha":632,"x_min":28,"x_max":724,"o":"m 28 0 m 378 345 q 339 204 378 264 q 172 144 300 144 q 83 155 123 144 l 54 161 l 28 14 l 50 5 q 191 -12 118 -12 q 475 90 403 -12 q 547 345 547 193 l 547 955 l 378 955 l 378 345 m 203 1115 l 292 1016 l 464 1148 l 635 1016 l 724 1115 l 464 1313 l 203 1115 z "},"K":{"ha":906,"x_min":109,"x_max":892,"o":"m 109 955 l 109 0 l 280 0 l 280 955 l 109 955 m 691 0 l 892 0 l 488 493 l 865 955 l 674 955 l 293 493 l 691 0 z "},"Ķ":{"ha":906,"x_min":109,"x_max":892,"o":"m 109 0 m 109 955 l 109 0 l 280 0 l 280 955 l 109 955 m 691 0 l 892 0 l 488 493 l 865 955 l 674 955 l 293 493 l 691 0 m 323 -394 l 464 -394 l 576 -89 l 385 -89 l 323 -394 z "},"L":{"ha":769,"x_min":109,"x_max":734,"o":"m 109 0 l 734 0 l 734 155 l 280 155 l 280 955 l 109 955 l 109 0 z "},"Ĺ":{"ha":769,"x_min":109,"x_max":734,"o":"m 109 0 m 109 0 l 734 0 l 734 155 l 280 155 l 280 955 l 109 955 l 109 0 m 563 1151 l 189 1007 l 127 1127 l 493 1304 l 563 1151 z "},"Ľ":{"ha":769,"x_min":109,"x_max":734,"o":"m 396 717 l 528 717 l 644 1040 l 462 1040 l 396 717 m 109 0 l 734 0 l 734 155 l 280 155 l 280 955 l 109 955 l 109 0 z "},"Ļ":{"ha":769,"x_min":109,"x_max":734,"o":"m 109 0 m 109 0 l 734 0 l 734 155 l 280 155 l 280 955 l 109 955 l 109 0 m 264 -394 l 405 -394 l 517 -89 l 326 -89 l 264 -394 z "},"Ł":{"ha":804,"x_min":0,"x_max":769,"o":"m 769 0 l 148 0 l 148 347 l 0 260 l 0 434 l 148 519 l 148 955 l 316 955 l 316 618 l 519 736 l 519 564 l 316 446 l 316 155 l 769 155 l 769 0 z "},"M":{"ha":1184,"x_min":109,"x_max":1075,"o":"m 109 0 l 280 0 l 280 720 l 519 245 l 665 245 l 906 720 l 906 0 l 1075 0 l 1075 955 l 859 955 l 595 432 l 337 955 l 109 955 l 109 0 z "},"N":{"ha":1056,"x_min":109,"x_max":946,"o":"m 109 0 l 280 0 l 280 710 l 740 0 l 946 0 l 946 955 l 774 955 l 774 247 l 313 955 l 109 955 l 109 0 z "},"Ń":{"ha":1056,"x_min":109,"x_max":946,"o":"m 109 0 m 109 0 l 280 0 l 280 710 l 740 0 l 946 0 l 946 955 l 774 955 l 774 247 l 313 955 l 109 955 l 109 0 m 738 1151 l 365 1007 l 302 1127 l 668 1304 l 738 1151 z "},"Ň":{"ha":1056,"x_min":109,"x_max":946,"o":"m 109 0 m 109 0 l 280 0 l 280 710 l 740 0 l 946 0 l 946 955 l 774 955 l 774 247 l 313 955 l 109 955 l 109 0 m 292 1231 l 380 1330 l 552 1198 l 724 1330 l 813 1231 l 552 1033 l 292 1231 z "},"Ņ":{"ha":1056,"x_min":109,"x_max":946,"o":"m 109 0 m 109 0 l 280 0 l 280 710 l 740 0 l 946 0 l 946 955 l 774 955 l 774 247 l 313 955 l 109 955 l 109 0 m 349 -377 l 490 -377 l 602 -71 l 411 -71 l 349 -377 z "},"Ñ":{"ha":1056,"x_min":109,"x_max":946,"o":"m 109 0 m 109 0 l 280 0 l 280 710 l 740 0 l 946 0 l 946 955 l 774 955 l 774 247 l 313 955 l 109 955 l 109 0 m 451 1253 q 338 1210 382 1253 q 280 1101 293 1167 l 398 1063 q 425 1115 413 1099 q 465 1130 438 1130 q 524 1106 484 1130 q 589 1076 559 1087 q 649 1064 618 1064 q 768 1108 726 1064 q 826 1220 811 1151 l 707 1255 q 696 1230 705 1250 q 674 1199 688 1210 q 641 1188 660 1188 q 568 1215 616 1188 q 502 1244 528 1234 q 451 1253 476 1253 z "},"O":{"ha":1082,"x_min":69,"x_max":1012,"o":"m 542 967 q 302 905 410 967 q 132 733 194 844 q 69 477 69 622 q 135 212 69 323 q 308 44 201 101 q 536 -12 415 -12 q 780 51 672 -12 q 951 228 889 115 q 1012 486 1012 342 q 950 740 1012 630 q 780 908 887 849 q 542 967 674 967 m 535 809 q 679 774 609 809 q 793 665 748 740 q 839 477 839 590 q 797 292 839 366 q 688 182 755 217 q 547 148 622 148 q 392 189 462 148 q 283 308 323 231 q 243 488 243 385 q 285 669 243 597 q 392 775 326 741 q 535 809 458 809 z "},"Ó":{"ha":1082,"x_min":69,"x_max":1012,"o":"m 69 0 m 542 967 q 302 905 410 967 q 132 733 194 844 q 69 477 69 622 q 135 212 69 323 q 308 44 201 101 q 536 -12 415 -12 q 780 51 672 -12 q 951 228 889 115 q 1012 486 1012 342 q 950 740 1012 630 q 780 908 887 849 q 542 967 674 967 m 535 809 q 679 774 609 809 q 793 665 748 740 q 839 477 839 590 q 797 292 839 366 q 688 182 755 217 q 547 148 622 148 q 392 189 462 148 q 283 308 323 231 q 243 488 243 385 q 285 669 243 597 q 392 775 326 741 q 535 809 458 809 m 727 1151 l 354 1007 l 292 1127 l 658 1304 l 727 1151 z "},"Ŏ":{"ha":1082,"x_min":69,"x_max":1012,"o":"m 69 0 m 542 967 q 302 905 410 967 q 132 733 194 844 q 69 477 69 622 q 135 212 69 323 q 308 44 201 101 q 536 -12 415 -12 q 780 51 672 -12 q 951 228 889 115 q 1012 486 1012 342 q 950 740 1012 630 q 780 908 887 849 q 542 967 674 967 m 535 809 q 679 774 609 809 q 793 665 748 740 q 839 477 839 590 q 797 292 839 366 q 688 182 755 217 q 547 148 622 148 q 392 189 462 148 q 283 308 323 231 q 243 488 243 385 q 285 669 243 597 q 392 775 326 741 q 535 809 458 809 m 542 1045 q 683 1090 625 1045 q 773 1200 741 1135 l 679 1267 q 618 1193 649 1220 q 542 1165 587 1165 q 466 1191 495 1165 q 405 1267 438 1217 l 311 1200 q 400 1090 342 1135 q 542 1045 458 1045 z "},"Ô":{"ha":1082,"x_min":69,"x_max":1012,"o":"m 69 0 m 542 967 q 302 905 410 967 q 132 733 194 844 q 69 477 69 622 q 135 212 69 323 q 308 44 201 101 q 536 -12 415 -12 q 780 51 672 -12 q 951 228 889 115 q 1012 486 1012 342 q 950 740 1012 630 q 780 908 887 849 q 542 967 674 967 m 535 809 q 679 774 609 809 q 793 665 748 740 q 839 477 839 590 q 797 292 839 366 q 688 182 755 217 q 547 148 622 148 q 392 189 462 148 q 283 308 323 231 q 243 488 243 385 q 285 669 243 597 q 392 775 326 741 q 535 809 458 809 m 281 1132 l 370 1033 l 542 1165 l 714 1033 l 802 1132 l 542 1330 l 281 1132 z "},"Ö":{"ha":1082,"x_min":69,"x_max":1012,"o":"m 69 0 m 542 967 q 302 905 410 967 q 132 733 194 844 q 69 477 69 622 q 135 212 69 323 q 308 44 201 101 q 536 -12 415 -12 q 780 51 672 -12 q 951 228 889 115 q 1012 486 1012 342 q 950 740 1012 630 q 780 908 887 849 q 542 967 674 967 m 535 809 q 679 774 609 809 q 793 665 748 740 q 839 477 839 590 q 797 292 839 366 q 688 182 755 217 q 547 148 622 148 q 392 189 462 148 q 283 308 323 231 q 243 488 243 385 q 285 669 243 597 q 392 775 326 741 q 535 809 458 809 m 406 1064 q 345 1089 370 1064 q 319 1151 319 1115 q 345 1211 319 1186 q 406 1236 370 1236 q 466 1211 441 1236 q 491 1151 491 1186 q 466 1089 491 1115 q 406 1064 441 1064 m 679 1064 q 617 1089 642 1064 q 592 1151 592 1115 q 617 1211 592 1186 q 679 1236 642 1236 q 739 1211 714 1236 q 764 1151 764 1186 q 739 1089 764 1115 q 679 1064 714 1064 z "},"Ò":{"ha":1082,"x_min":69,"x_max":1012,"o":"m 69 0 m 542 967 q 302 905 410 967 q 132 733 194 844 q 69 477 69 622 q 135 212 69 323 q 308 44 201 101 q 536 -12 415 -12 q 780 51 672 -12 q 951 228 889 115 q 1012 486 1012 342 q 950 740 1012 630 q 780 908 887 849 q 542 967 674 967 m 535 809 q 679 774 609 809 q 793 665 748 740 q 839 477 839 590 q 797 292 839 366 q 688 182 755 217 q 547 148 622 148 q 392 189 462 148 q 283 308 323 231 q 243 488 243 385 q 285 669 243 597 q 392 775 326 741 q 535 809 458 809 m 356 1151 l 425 1304 l 792 1127 l 729 1007 l 356 1151 z "},"Ő":{"ha":1082,"x_min":69,"x_max":1043,"o":"m 571 1151 l 198 1007 l 135 1127 l 502 1304 l 571 1151 m 1043 1151 l 670 1007 l 608 1127 l 974 1304 l 1043 1151 m 542 967 q 302 905 410 967 q 132 733 194 844 q 69 477 69 622 q 135 212 69 323 q 308 44 201 101 q 536 -12 415 -12 q 780 51 672 -12 q 951 228 889 115 q 1012 486 1012 342 q 950 740 1012 630 q 780 908 887 849 q 542 967 674 967 m 535 809 q 679 774 609 809 q 793 665 748 740 q 839 477 839 590 q 797 292 839 366 q 688 182 755 217 q 547 148 622 148 q 392 189 462 148 q 283 308 323 231 q 243 488 243 385 q 285 669 243 597 q 392 775 326 741 q 535 809 458 809 z "},"Ō":{"ha":1082,"x_min":69,"x_max":1012,"o":"m 69 0 m 542 967 q 302 905 410 967 q 132 733 194 844 q 69 477 69 622 q 135 212 69 323 q 308 44 201 101 q 536 -12 415 -12 q 780 51 672 -12 q 951 228 889 115 q 1012 486 1012 342 q 950 740 1012 630 q 780 908 887 849 q 542 967 674 967 m 535 809 q 679 774 609 809 q 793 665 748 740 q 839 477 839 590 q 797 292 839 366 q 688 182 755 217 q 547 148 622 148 q 392 189 462 148 q 283 308 323 231 q 243 488 243 385 q 285 669 243 597 q 392 775 326 741 q 535 809 458 809 m 316 1085 l 767 1085 l 767 1220 l 316 1220 l 316 1085 z "},"Ø":{"ha":1082,"x_min":21,"x_max":1085,"o":"m 948 743 q 1012 486 1012 634 q 951 228 1012 342 q 780 51 889 115 q 536 -12 672 -12 q 385 11 458 -12 q 252 80 313 35 l 139 -28 l 21 97 l 137 208 q 69 477 69 325 q 132 733 69 622 q 302 905 194 844 q 542 967 410 967 q 837 872 712 967 l 969 997 l 1085 873 l 948 743 m 243 488 q 271 335 243 405 l 714 753 q 535 809 632 809 q 392 775 458 809 q 285 669 326 741 q 243 488 243 597 m 839 477 q 816 616 839 554 l 377 200 q 547 148 450 148 q 688 182 622 148 q 797 292 755 217 q 839 477 839 366 z "},"Õ":{"ha":1082,"x_min":69,"x_max":1012,"o":"m 69 0 m 542 967 q 302 905 410 967 q 132 733 194 844 q 69 477 69 622 q 135 212 69 323 q 308 44 201 101 q 536 -12 415 -12 q 780 51 672 -12 q 951 228 889 115 q 1012 486 1012 342 q 950 740 1012 630 q 780 908 887 849 q 542 967 674 967 m 535 809 q 679 774 609 809 q 793 665 748 740 q 839 477 839 590 q 797 292 839 366 q 688 182 755 217 q 547 148 622 148 q 392 189 462 148 q 283 308 323 231 q 243 488 243 385 q 285 669 243 597 q 392 775 326 741 q 535 809 458 809 m 441 1253 q 327 1210 372 1253 q 269 1101 283 1167 l 387 1063 q 415 1115 403 1099 q 455 1130 427 1130 q 514 1106 474 1130 q 578 1076 549 1087 q 639 1064 608 1064 q 758 1108 715 1064 q 816 1220 800 1151 l 696 1255 q 686 1230 694 1250 q 663 1199 677 1210 q 630 1188 649 1188 q 557 1215 606 1188 q 491 1244 517 1234 q 441 1253 465 1253 z "},"Œ":{"ha":1351,"x_min":69,"x_max":1271,"o":"m 578 955 q 276 888 389 955 q 116 720 163 821 q 69 507 69 620 q 150 202 69 333 q 417 19 231 71 q 528 3 472 7 q 665 0 583 0 l 1271 0 l 1271 155 l 832 155 l 832 408 l 1224 408 l 1224 563 l 832 563 l 832 802 l 1271 802 l 1271 955 l 578 955 m 665 155 l 580 155 q 328 235 413 155 q 243 484 243 316 q 328 721 243 641 q 576 802 413 802 l 665 802 l 665 155 z "},"P":{"ha":858,"x_min":109,"x_max":816,"o":"m 109 0 l 280 0 l 280 373 q 314 370 292 372 q 356 368 337 368 q 687 431 557 370 q 814 674 816 493 q 422 955 814 955 l 109 955 l 109 0 m 405 802 q 579 775 516 802 q 642 670 642 748 q 569 551 642 580 q 363 523 495 523 l 323 524 q 280 528 295 528 l 280 802 l 405 802 z "},"Þ":{"ha":913,"x_min":109,"x_max":859,"o":"m 280 955 l 109 955 l 109 0 l 280 0 l 280 182 l 377 182 q 639 203 556 182 q 809 319 759 238 q 859 497 859 399 q 809 654 859 580 q 639 759 759 727 q 375 780 564 780 l 280 780 l 280 955 m 418 625 q 562 619 510 625 q 648 581 613 613 q 684 479 684 549 q 648 380 684 411 q 562 343 613 349 q 420 337 510 337 l 280 337 l 280 625 l 418 625 z "},"Q":{"ha":1080,"x_min":69,"x_max":1045,"o":"m 913 172 q 1012 486 1012 300 q 950 740 1012 630 q 780 908 887 849 q 542 967 674 967 q 302 905 410 967 q 132 733 194 844 q 69 477 69 622 q 135 212 69 323 q 308 44 201 101 q 536 -12 415 -12 q 811 73 694 -12 l 946 -50 l 1045 50 l 913 172 m 535 809 q 679 774 609 809 q 793 665 748 740 q 839 477 839 590 q 793 286 839 373 l 606 465 l 503 358 l 691 182 q 547 148 618 148 q 392 189 462 148 q 283 308 323 231 q 243 488 243 385 q 285 669 243 597 q 392 775 326 741 q 535 809 458 809 z "},"R":{"ha":884,"x_min":109,"x_max":842,"o":"m 109 0 l 280 0 l 280 373 q 356 370 332 370 q 431 372 405 370 l 649 0 l 842 0 l 602 399 q 814 674 814 470 q 422 955 814 955 l 109 955 l 109 0 m 405 802 q 579 775 516 802 q 642 670 642 748 q 569 551 642 580 q 363 523 495 523 q 280 528 323 523 l 280 802 l 405 802 z "},"Ŕ":{"ha":884,"x_min":109,"x_max":842,"o":"m 109 0 m 109 0 l 280 0 l 280 373 q 356 370 332 370 q 431 372 405 370 l 649 0 l 842 0 l 602 399 q 814 674 814 470 q 422 955 814 955 l 109 955 l 109 0 m 405 802 q 579 775 516 802 q 642 670 642 748 q 569 551 642 580 q 363 523 495 523 q 280 528 323 523 l 280 802 l 405 802 m 628 1151 l 255 1007 l 193 1127 l 559 1304 l 628 1151 z "},"Ř":{"ha":884,"x_min":109,"x_max":842,"o":"m 109 0 m 109 0 l 280 0 l 280 373 q 356 370 332 370 q 431 372 405 370 l 649 0 l 842 0 l 602 399 q 814 674 814 470 q 422 955 814 955 l 109 955 l 109 0 m 405 802 q 579 775 516 802 q 642 670 642 748 q 569 551 642 580 q 363 523 495 523 q 280 528 323 523 l 280 802 l 405 802 m 182 1231 l 271 1330 l 443 1198 l 615 1330 l 703 1231 l 443 1033 l 182 1231 z "},"Ŗ":{"ha":884,"x_min":109,"x_max":842,"o":"m 109 0 m 109 0 l 280 0 l 280 373 q 356 370 332 370 q 431 372 405 370 l 649 0 l 842 0 l 602 399 q 814 674 814 470 q 422 955 814 955 l 109 955 l 109 0 m 405 802 q 579 775 516 802 q 642 670 642 748 q 569 551 642 580 q 363 523 495 523 q 280 528 323 523 l 280 802 l 405 802 m 297 -394 l 438 -394 l 550 -89 l 359 -89 l 297 -394 z "},"S":{"ha":866,"x_min":69,"x_max":797,"o":"m 470 804 q 588 791 531 804 q 710 752 644 778 l 766 906 l 747 913 q 622 949 686 934 q 465 964 557 964 q 276 929 358 964 q 151 833 194 894 q 108 694 108 773 q 153 549 108 606 q 262 464 198 493 q 425 403 326 434 q 576 345 530 372 q 622 266 623 318 q 564 180 622 212 q 413 148 507 148 q 153 207 311 148 l 127 217 l 69 63 l 92 52 q 250 1 182 17 q 399 -16 318 -16 q 628 25 538 -16 q 757 129 717 66 q 797 266 797 193 q 750 411 797 354 q 638 498 703 469 q 472 559 573 528 q 327 616 373 590 q 281 688 281 642 q 332 773 281 741 q 470 804 382 804 z "},"Ś":{"ha":866,"x_min":69,"x_max":797,"o":"m 69 0 m 470 804 q 588 791 531 804 q 710 752 644 778 l 766 906 l 747 913 q 622 949 686 934 q 465 964 557 964 q 276 929 358 964 q 151 833 194 894 q 108 694 108 773 q 153 549 108 606 q 262 464 198 493 q 425 403 326 434 q 576 345 530 372 q 622 266 623 318 q 564 180 622 212 q 413 148 507 148 q 153 207 311 148 l 127 217 l 69 63 l 92 52 q 250 1 182 17 q 399 -16 318 -16 q 628 25 538 -16 q 757 129 717 66 q 797 266 797 193 q 750 411 797 354 q 638 498 703 469 q 472 559 573 528 q 327 616 373 590 q 281 688 281 642 q 332 773 281 741 q 470 804 382 804 m 651 1151 l 278 1007 l 215 1127 l 582 1304 l 651 1151 z "},"Š":{"ha":866,"x_min":69,"x_max":797,"o":"m 69 0 m 470 804 q 588 791 531 804 q 710 752 644 778 l 766 906 l 747 913 q 622 949 686 934 q 465 964 557 964 q 276 929 358 964 q 151 833 194 894 q 108 694 108 773 q 153 549 108 606 q 262 464 198 493 q 425 403 326 434 q 576 345 530 372 q 622 266 623 318 q 564 180 622 212 q 413 148 507 148 q 153 207 311 148 l 127 217 l 69 63 l 92 52 q 250 1 182 17 q 399 -16 318 -16 q 628 25 538 -16 q 757 129 717 66 q 797 266 797 193 q 750 411 797 354 q 638 498 703 469 q 472 559 573 528 q 327 616 373 590 q 281 688 281 642 q 332 773 281 741 q 470 804 382 804 m 205 1231 l 293 1330 l 465 1198 l 637 1330 l 726 1231 l 465 1033 l 205 1231 z "},"Ş":{"ha":866,"x_min":69,"x_max":797,"o":"m 429 -245 q 402 -241 418 -245 q 366 -236 385 -238 l 273 -210 l 238 -325 l 266 -332 q 425 -361 347 -361 q 553 -319 510 -361 q 595 -215 595 -276 q 556 -123 595 -158 q 458 -73 517 -89 l 474 -12 q 719 83 641 7 q 797 266 797 160 q 750 411 797 354 q 638 498 703 469 q 472 559 573 528 q 327 616 373 590 q 281 688 281 642 q 332 773 281 741 q 470 804 382 804 q 588 791 531 804 q 710 752 644 778 l 766 906 l 747 913 q 622 949 686 934 q 465 964 557 964 q 276 929 358 964 q 151 833 194 894 q 108 694 108 773 q 153 549 108 606 q 262 464 198 493 q 425 403 326 434 q 576 345 530 372 q 622 266 623 318 q 564 180 622 212 q 413 148 507 148 q 153 207 311 148 l 127 217 l 69 63 l 92 52 q 226 9 170 24 q 345 -12 281 -7 l 307 -149 l 403 -177 q 457 -201 444 -189 q 469 -224 469 -212 q 459 -239 469 -233 q 429 -245 450 -245 z "},"Ș":{"ha":866,"x_min":69,"x_max":797,"o":"m 69 0 m 470 804 q 588 791 531 804 q 710 752 644 778 l 766 906 l 747 913 q 622 949 686 934 q 465 964 557 964 q 276 929 358 964 q 151 833 194 894 q 108 694 108 773 q 153 549 108 606 q 262 464 198 493 q 425 403 326 434 q 576 345 530 372 q 622 266 623 318 q 564 180 622 212 q 413 148 507 148 q 153 207 311 148 l 127 217 l 69 63 l 92 52 q 250 1 182 17 q 399 -16 318 -16 q 628 25 538 -16 q 757 129 717 66 q 797 266 797 193 q 750 411 797 354 q 638 498 703 469 q 472 559 573 528 q 327 616 373 590 q 281 688 281 642 q 332 773 281 741 q 470 804 382 804 m 236 -394 l 377 -394 l 490 -89 l 299 -89 l 236 -394 z "},"T":{"ha":826,"x_min":16,"x_max":811,"o":"m 16 802 l 328 802 l 328 0 l 498 0 l 498 802 l 811 802 l 811 955 l 16 955 l 16 802 z "},"Ť":{"ha":826,"x_min":16,"x_max":811,"o":"m 16 0 m 16 802 l 328 802 l 328 0 l 498 0 l 498 802 l 811 802 l 811 955 l 16 955 l 16 802 m 155 1214 l 243 1313 l 415 1181 l 587 1313 l 675 1214 l 415 1016 l 155 1214 z "},"Ţ":{"ha":826,"x_min":16,"x_max":811,"o":"m 410 -245 q 381 -241 401 -245 q 345 -236 361 -238 l 252 -210 l 217 -325 l 245 -332 q 405 -361 326 -361 q 532 -319 490 -361 q 575 -215 575 -276 q 549 -120 575 -153 q 479 -71 524 -87 l 498 0 l 498 802 l 811 802 l 811 955 l 16 955 l 16 802 l 328 802 l 328 2 l 286 -149 l 382 -177 q 436 -201 424 -189 q 448 -224 448 -212 q 438 -238 448 -231 q 410 -245 429 -245 z "},"Ț":{"ha":826,"x_min":16,"x_max":811,"o":"m 16 0 m 16 802 l 328 802 l 328 0 l 498 0 l 498 802 l 811 802 l 811 955 l 16 955 l 16 802 m 252 -394 l 392 -394 l 505 -89 l 314 -89 l 252 -394 z "},"U":{"ha":976,"x_min":97,"x_max":878,"o":"m 486 -16 q 746 45 660 -16 q 855 182 832 106 q 878 345 878 259 l 878 955 l 708 955 l 708 354 q 703 273 708 309 q 630 176 686 210 q 486 142 575 142 q 345 176 401 142 q 274 273 290 210 q 266 354 266 313 l 266 955 l 97 955 l 97 345 q 121 182 97 259 q 230 45 144 106 q 486 -16 316 -16 z "},"Ú":{"ha":976,"x_min":97,"x_max":878,"o":"m 97 0 m 486 -16 q 746 45 660 -16 q 855 182 832 106 q 878 345 878 259 l 878 955 l 708 955 l 708 354 q 703 273 708 309 q 630 176 686 210 q 486 142 575 142 q 345 176 401 142 q 274 273 290 210 q 266 354 266 313 l 266 955 l 97 955 l 97 345 q 121 182 97 259 q 230 45 144 106 q 486 -16 316 -16 m 672 1151 l 299 1007 l 236 1127 l 602 1304 l 672 1151 z "},"Ŭ":{"ha":976,"x_min":97,"x_max":878,"o":"m 97 0 m 486 -16 q 746 45 660 -16 q 855 182 832 106 q 878 345 878 259 l 878 955 l 708 955 l 708 354 q 703 273 708 309 q 630 176 686 210 q 486 142 575 142 q 345 176 401 142 q 274 273 290 210 q 266 354 266 313 l 266 955 l 97 955 l 97 345 q 121 182 97 259 q 230 45 144 106 q 486 -16 316 -16 m 486 1045 q 628 1090 569 1045 q 717 1200 686 1135 l 623 1267 q 563 1193 594 1220 q 486 1165 531 1165 q 411 1191 439 1165 q 349 1267 382 1217 l 255 1200 q 345 1090 286 1135 q 486 1045 403 1045 z "},"Û":{"ha":976,"x_min":97,"x_max":878,"o":"m 97 0 m 486 -16 q 746 45 660 -16 q 855 182 832 106 q 878 345 878 259 l 878 955 l 708 955 l 708 354 q 703 273 708 309 q 630 176 686 210 q 486 142 575 142 q 345 176 401 142 q 274 273 290 210 q 266 354 266 313 l 266 955 l 97 955 l 97 345 q 121 182 97 259 q 230 45 144 106 q 486 -16 316 -16 m 226 1132 l 314 1033 l 486 1165 l 658 1033 l 747 1132 l 486 1330 l 226 1132 z "},"Ü":{"ha":976,"x_min":97,"x_max":878,"o":"m 97 0 m 486 -16 q 746 45 660 -16 q 855 182 832 106 q 878 345 878 259 l 878 955 l 708 955 l 708 354 q 703 273 708 309 q 630 176 686 210 q 486 142 575 142 q 345 176 401 142 q 274 273 290 210 q 266 354 266 313 l 266 955 l 97 955 l 97 345 q 121 182 97 259 q 230 45 144 106 q 486 -16 316 -16 m 351 1064 q 289 1089 314 1064 q 264 1151 264 1115 q 289 1211 264 1186 q 351 1236 314 1236 q 411 1211 385 1236 q 436 1151 436 1186 q 411 1089 436 1115 q 351 1064 385 1064 m 623 1064 q 562 1089 587 1064 q 536 1151 536 1115 q 562 1211 536 1186 q 623 1236 587 1236 q 683 1211 658 1236 q 708 1151 708 1186 q 683 1089 708 1115 q 623 1064 658 1064 z "},"Ù":{"ha":976,"x_min":97,"x_max":878,"o":"m 97 0 m 486 -16 q 746 45 660 -16 q 855 182 832 106 q 878 345 878 259 l 878 955 l 708 955 l 708 354 q 703 273 708 309 q 630 176 686 210 q 486 142 575 142 q 345 176 401 142 q 274 273 290 210 q 266 354 266 313 l 266 955 l 97 955 l 97 345 q 121 182 97 259 q 230 45 144 106 q 486 -16 316 -16 m 300 1151 l 370 1304 l 736 1127 l 674 1007 l 300 1151 z "},"Ű":{"ha":976,"x_min":80,"x_max":988,"o":"m 516 1151 l 142 1007 l 80 1127 l 446 1304 l 516 1151 m 988 1151 l 615 1007 l 552 1127 l 918 1304 l 988 1151 m 486 -16 q 746 45 660 -16 q 855 182 832 106 q 878 345 878 259 l 878 955 l 708 955 l 708 354 q 703 273 708 309 q 630 176 686 210 q 486 142 575 142 q 345 176 401 142 q 274 273 290 210 q 266 354 266 313 l 266 955 l 97 955 l 97 345 q 121 182 97 259 q 230 45 144 106 q 486 -16 316 -16 z "},"Ū":{"ha":976,"x_min":97,"x_max":878,"o":"m 97 0 m 486 -16 q 746 45 660 -16 q 855 182 832 106 q 878 345 878 259 l 878 955 l 708 955 l 708 354 q 703 273 708 309 q 630 176 686 210 q 486 142 575 142 q 345 176 401 142 q 274 273 290 210 q 266 354 266 313 l 266 955 l 97 955 l 97 345 q 121 182 97 259 q 230 45 144 106 q 486 -16 316 -16 m 260 1085 l 712 1085 l 712 1220 l 260 1220 l 260 1085 z "},"Ų":{"ha":983,"x_min":101,"x_max":882,"o":"m 712 955 l 712 354 q 705 273 712 306 q 634 176 689 210 q 490 142 578 142 q 348 176 403 142 q 278 273 293 210 q 269 354 269 313 l 269 955 l 101 955 l 101 345 q 121 189 101 262 q 217 55 141 116 q 446 -14 293 -7 q 361 -87 394 -40 q 328 -186 328 -134 q 384 -299 328 -252 q 524 -347 439 -347 q 642 -330 590 -347 q 743 -281 694 -312 l 705 -205 q 637 -231 665 -222 q 582 -240 609 -240 q 516 -218 540 -240 q 493 -160 493 -196 q 533 -81 493 -115 q 658 0 573 -47 q 769 66 726 35 q 857 175 832 104 q 882 345 882 247 l 882 955 l 712 955 z "},"Ů":{"ha":976,"x_min":97,"x_max":878,"o":"m 97 0 m 486 -16 q 746 45 660 -16 q 855 182 832 106 q 878 345 878 259 l 878 955 l 708 955 l 708 354 q 703 273 708 309 q 630 176 686 210 q 486 142 575 142 q 345 176 401 142 q 274 273 290 210 q 266 354 266 313 l 266 955 l 97 955 l 97 345 q 121 182 97 259 q 230 45 144 106 q 486 -16 316 -16 m 660 1201 q 610 1328 660 1278 q 486 1378 561 1378 q 361 1327 411 1378 q 311 1201 311 1276 q 362 1076 311 1128 q 486 1023 413 1023 q 609 1076 559 1023 q 660 1201 660 1128 m 486 1271 q 533 1250 514 1271 q 552 1201 552 1229 q 533 1153 552 1174 q 486 1132 514 1132 q 438 1153 457 1132 q 418 1201 418 1174 q 438 1250 418 1229 q 486 1271 457 1271 z "},"Ũ":{"ha":976,"x_min":97,"x_max":878,"o":"m 97 0 m 486 -16 q 746 45 660 -16 q 855 182 832 106 q 878 345 878 259 l 878 955 l 708 955 l 708 354 q 703 273 708 309 q 630 176 686 210 q 486 142 575 142 q 345 176 401 142 q 274 273 290 210 q 266 354 266 313 l 266 955 l 97 955 l 97 345 q 121 182 97 259 q 230 45 144 106 q 486 -16 316 -16 m 385 1253 q 272 1210 316 1253 q 214 1101 227 1167 l 332 1063 q 359 1115 347 1099 q 399 1130 372 1130 q 458 1106 418 1130 q 523 1076 493 1087 q 583 1064 552 1064 q 702 1108 660 1064 q 760 1220 745 1151 l 641 1255 q 630 1230 639 1250 q 608 1199 622 1210 q 575 1188 594 1188 q 502 1215 550 1188 q 436 1244 462 1234 q 385 1253 410 1253 z "},"V":{"ha":920,"x_min":19,"x_max":901,"o":"m 368 0 l 571 0 l 901 955 l 719 955 l 477 182 l 212 955 l 19 955 l 368 0 z "},"W":{"ha":1441,"x_min":19,"x_max":1425,"o":"m 309 0 l 484 0 l 712 734 l 908 0 l 1085 0 l 1425 955 l 1243 955 l 1003 222 l 816 955 l 623 955 l 392 222 l 201 955 l 19 955 l 309 0 z "},"X":{"ha":927,"x_min":28,"x_max":899,"o":"m 247 955 l 54 955 l 366 498 l 28 0 l 222 0 l 464 356 l 705 0 l 899 0 l 561 498 l 873 955 l 677 955 l 464 639 l 247 955 z "},"Y":{"ha":884,"x_min":12,"x_max":877,"o":"m 349 432 l 349 0 l 519 0 l 519 432 l 877 955 l 686 955 l 443 585 l 201 955 l 12 955 l 349 432 z "},"Ý":{"ha":884,"x_min":12,"x_max":877,"o":"m 12 0 m 349 432 l 349 0 l 519 0 l 519 432 l 877 955 l 686 955 l 443 585 l 201 955 l 12 955 l 349 432 m 628 1151 l 255 1007 l 193 1127 l 559 1304 l 628 1151 z "},"Ŷ":{"ha":884,"x_min":12,"x_max":877,"o":"m 12 0 m 349 432 l 349 0 l 519 0 l 519 432 l 877 955 l 686 955 l 443 585 l 201 955 l 12 955 l 349 432 m 182 1132 l 271 1033 l 443 1165 l 615 1033 l 703 1132 l 443 1330 l 182 1132 z "},"Ÿ":{"ha":884,"x_min":12,"x_max":877,"o":"m 12 0 m 349 432 l 349 0 l 519 0 l 519 432 l 877 955 l 686 955 l 443 585 l 201 955 l 12 955 l 349 432 m 307 1064 q 246 1089 271 1064 q 220 1151 220 1115 q 246 1211 220 1186 q 307 1236 271 1236 q 367 1211 342 1236 q 392 1151 392 1186 q 367 1089 392 1115 q 307 1064 342 1064 m 580 1064 q 518 1089 543 1064 q 493 1151 493 1115 q 518 1211 493 1186 q 580 1236 543 1236 q 640 1211 615 1236 q 665 1151 665 1186 q 640 1089 665 1115 q 580 1064 615 1064 z "},"Z":{"ha":844,"x_min":50,"x_max":793,"o":"m 83 802 l 547 802 l 50 106 l 50 0 l 793 0 l 793 155 l 280 155 l 790 852 l 790 955 l 83 955 l 83 802 z "},"Ź":{"ha":844,"x_min":50,"x_max":793,"o":"m 50 0 m 83 802 l 547 802 l 50 106 l 50 0 l 793 0 l 793 155 l 280 155 l 790 852 l 790 955 l 83 955 l 83 802 m 622 1151 l 248 1007 l 186 1127 l 552 1304 l 622 1151 z "},"Ž":{"ha":844,"x_min":50,"x_max":793,"o":"m 50 0 m 83 802 l 547 802 l 50 106 l 50 0 l 793 0 l 793 155 l 280 155 l 790 852 l 790 955 l 83 955 l 83 802 m 175 1231 l 264 1330 l 436 1198 l 608 1330 l 696 1231 l 436 1033 l 175 1231 z "},"Ż":{"ha":844,"x_min":50,"x_max":793,"o":"m 50 0 m 83 802 l 547 802 l 50 106 l 50 0 l 793 0 l 793 155 l 280 155 l 790 852 l 790 955 l 83 955 l 83 802 m 436 1056 q 361 1087 392 1056 q 330 1161 330 1118 q 361 1237 330 1207 q 436 1267 392 1267 q 511 1237 481 1267 q 542 1161 542 1207 q 511 1087 542 1118 q 436 1056 481 1056 z "},"a":{"ha":708,"x_min":50,"x_max":632,"o":"m 330 677 q 108 632 243 677 l 134 517 q 304 552 226 552 q 427 521 396 552 q 458 403 458 490 l 328 396 q 122 334 194 389 q 50 182 50 280 q 115 40 50 95 q 286 -16 179 -16 q 481 47 403 -16 l 500 0 l 632 0 l 632 410 q 565 608 632 538 q 330 677 498 677 m 465 148 q 434 131 457 142 q 387 115 411 120 q 328 109 363 109 q 247 132 276 109 q 217 194 217 155 q 347 281 217 274 l 465 290 l 465 148 z "},"á":{"ha":708,"x_min":50,"x_max":632,"o":"m 50 0 m 330 677 q 108 632 243 677 l 134 517 q 304 552 226 552 q 427 521 396 552 q 458 403 458 490 l 328 396 q 122 334 194 389 q 50 182 50 280 q 115 40 50 95 q 286 -16 179 -16 q 481 47 403 -16 l 500 0 l 632 0 l 632 410 q 565 608 632 538 q 330 677 498 677 m 465 148 q 434 131 457 142 q 387 115 411 120 q 328 109 363 109 q 247 132 276 109 q 217 194 217 155 q 347 281 217 274 l 465 290 l 465 148 m 212 726 l 530 972 l 417 1101 l 123 828 l 212 726 z "},"ă":{"ha":708,"x_min":50,"x_max":632,"o":"m 50 0 m 330 677 q 108 632 243 677 l 134 517 q 304 552 226 552 q 427 521 396 552 q 458 403 458 490 l 328 396 q 122 334 194 389 q 50 182 50 280 q 115 40 50 95 q 286 -16 179 -16 q 481 47 403 -16 l 500 0 l 632 0 l 632 410 q 565 608 632 538 q 330 677 498 677 m 465 148 q 434 131 457 142 q 387 115 411 120 q 328 109 363 109 q 247 132 276 109 q 217 194 217 155 q 347 281 217 274 l 465 290 l 465 148 m 347 764 q 501 823 441 764 q 589 955 561 882 l 476 1002 q 423 918 451 950 q 347 885 394 885 q 274 915 300 885 q 217 1002 248 944 l 106 955 q 194 823 134 882 q 347 764 253 764 z "},"ǎ":{"ha":708,"x_min":50,"x_max":632,"o":"m 50 0 m 330 677 q 108 632 243 677 l 134 517 q 304 552 226 552 q 427 521 396 552 q 458 403 458 490 l 328 396 q 122 334 194 389 q 50 182 50 280 q 115 40 50 95 q 286 -16 179 -16 q 481 47 403 -16 l 500 0 l 632 0 l 632 410 q 565 608 632 538 q 330 677 498 677 m 465 148 q 434 131 457 142 q 387 115 411 120 q 328 109 363 109 q 247 132 276 109 q 217 194 217 155 q 347 281 217 274 l 465 290 l 465 148 m 497 1101 l 587 1009 l 347 747 l 108 1009 l 198 1101 l 347 938 l 497 1101 z "},"â":{"ha":708,"x_min":50,"x_max":632,"o":"m 50 0 m 330 677 q 108 632 243 677 l 134 517 q 304 552 226 552 q 427 521 396 552 q 458 403 458 490 l 328 396 q 122 334 194 389 q 50 182 50 280 q 115 40 50 95 q 286 -16 179 -16 q 481 47 403 -16 l 500 0 l 632 0 l 632 410 q 565 608 632 538 q 330 677 498 677 m 465 148 q 434 131 457 142 q 387 115 411 120 q 328 109 363 109 q 247 132 276 109 q 217 194 217 155 q 347 281 217 274 l 465 290 l 465 148 m 497 747 l 587 839 l 347 1101 l 108 839 l 198 747 l 347 910 l 497 747 z "},"ä":{"ha":708,"x_min":50,"x_max":632,"o":"m 50 0 m 330 677 q 108 632 243 677 l 134 517 q 304 552 226 552 q 427 521 396 552 q 458 403 458 490 l 328 396 q 122 334 194 389 q 50 182 50 280 q 115 40 50 95 q 286 -16 179 -16 q 481 47 403 -16 l 500 0 l 632 0 l 632 410 q 565 608 632 538 q 330 677 498 677 m 465 148 q 434 131 457 142 q 387 115 411 120 q 328 109 363 109 q 247 132 276 109 q 217 194 217 155 q 347 281 217 274 l 465 290 l 465 148 m 208 773 q 147 798 172 773 q 122 859 122 823 q 147 919 122 894 q 208 944 172 944 q 268 919 243 944 q 293 859 293 894 q 268 798 293 823 q 208 773 243 773 m 481 773 q 419 798 444 773 q 394 859 394 823 q 419 919 394 894 q 481 944 444 944 q 541 919 516 944 q 566 859 566 894 q 541 798 566 823 q 481 773 516 773 z "},"à":{"ha":708,"x_min":50,"x_max":632,"o":"m 50 0 m 330 677 q 108 632 243 677 l 134 517 q 304 552 226 552 q 427 521 396 552 q 458 403 458 490 l 328 396 q 122 334 194 389 q 50 182 50 280 q 115 40 50 95 q 286 -16 179 -16 q 481 47 403 -16 l 500 0 l 632 0 l 632 410 q 565 608 632 538 q 330 677 498 677 m 465 148 q 434 131 457 142 q 387 115 411 120 q 328 109 363 109 q 247 132 276 109 q 217 194 217 155 q 347 281 217 274 l 465 290 l 465 148 m 483 726 l 571 828 l 278 1101 l 165 972 l 483 726 z "},"ā":{"ha":708,"x_min":50,"x_max":632,"o":"m 50 0 m 330 677 q 108 632 243 677 l 134 517 q 304 552 226 552 q 427 521 396 552 q 458 403 458 490 l 328 396 q 122 334 194 389 q 50 182 50 280 q 115 40 50 95 q 286 -16 179 -16 q 481 47 403 -16 l 500 0 l 632 0 l 632 410 q 565 608 632 538 q 330 677 498 677 m 465 148 q 434 131 457 142 q 387 115 411 120 q 328 109 363 109 q 247 132 276 109 q 217 194 217 155 q 347 281 217 274 l 465 290 l 465 148 m 127 776 l 564 776 l 564 911 l 127 911 l 127 776 z "},"ą":{"ha":703,"x_min":50,"x_max":686,"o":"m 632 410 q 565 608 632 538 q 330 677 498 677 q 108 632 243 677 l 134 517 q 304 552 226 552 q 427 521 396 552 q 458 403 458 490 l 328 396 q 122 334 194 389 q 50 182 50 280 q 115 40 50 95 q 286 -16 179 -16 q 481 47 403 -16 l 497 16 l 464 0 q 330 -87 378 -43 q 281 -201 281 -130 q 336 -306 281 -264 q 469 -347 391 -347 q 582 -328 535 -347 q 686 -274 630 -309 l 641 -196 q 516 -243 559 -243 q 458 -226 479 -243 q 438 -175 438 -208 q 490 -87 438 -128 q 632 0 543 -45 l 632 410 m 465 148 q 434 131 457 142 q 387 115 411 120 q 328 109 363 109 q 247 132 276 109 q 217 194 217 155 q 347 281 217 274 l 465 290 l 465 148 z "},"å":{"ha":708,"x_min":50,"x_max":632,"o":"m 50 0 m 330 677 q 108 632 243 677 l 134 517 q 304 552 226 552 q 427 521 396 552 q 458 403 458 490 l 328 396 q 122 334 194 389 q 50 182 50 280 q 115 40 50 95 q 286 -16 179 -16 q 481 47 403 -16 l 500 0 l 632 0 l 632 410 q 565 608 632 538 q 330 677 498 677 m 465 148 q 434 131 457 142 q 387 115 411 120 q 328 109 363 109 q 247 132 276 109 q 217 194 217 155 q 347 281 217 274 l 465 290 l 465 148 m 521 908 q 471 1035 521 984 q 347 1085 422 1085 q 222 1034 273 1085 q 172 908 172 983 q 223 782 172 835 q 347 729 274 729 q 470 782 420 729 q 521 908 521 835 m 347 977 q 394 957 375 977 q 413 908 413 936 q 394 859 413 880 q 347 839 375 839 q 299 859 318 839 q 280 908 280 880 q 299 957 280 936 q 347 977 318 977 z "},"ã":{"ha":708,"x_min":50,"x_max":632,"o":"m 50 0 m 330 677 q 108 632 243 677 l 134 517 q 304 552 226 552 q 427 521 396 552 q 458 403 458 490 l 328 396 q 122 334 194 389 q 50 182 50 280 q 115 40 50 95 q 286 -16 179 -16 q 481 47 403 -16 l 500 0 l 632 0 l 632 410 q 565 608 632 538 q 330 677 498 677 m 465 148 q 434 131 457 142 q 387 115 411 120 q 328 109 363 109 q 247 132 276 109 q 217 194 217 155 q 347 281 217 274 l 465 290 l 465 148 m 238 957 q 126 911 174 957 q 68 799 78 865 l 194 759 q 222 807 210 793 q 262 821 234 821 q 321 797 281 821 q 385 766 356 778 q 446 755 415 755 q 573 802 524 755 q 628 911 622 849 l 503 953 q 479 907 491 922 q 438 892 467 892 q 396 904 420 892 q 366 917 372 915 q 238 957 286 957 z "},"æ":{"ha":1090,"x_min":50,"x_max":1040,"o":"m 747 677 q 557 602 649 677 q 468 658 517 639 q 330 677 418 677 q 108 632 243 677 l 134 517 q 304 552 226 552 q 427 521 396 552 q 458 403 458 490 l 328 396 q 122 334 194 389 q 50 182 50 280 q 115 40 50 95 q 286 -16 179 -16 q 545 68 411 -16 q 790 -17 625 -17 q 1010 23 899 -17 l 981 135 q 799 115 898 115 q 657 148 703 115 q 604 266 611 181 l 1040 266 l 1040 330 q 968 585 1040 493 q 747 677 896 677 m 750 547 q 845 505 811 547 q 878 382 878 464 l 608 382 q 654 503 611 460 q 750 547 696 547 m 467 148 q 407 118 439 127 q 328 109 375 109 q 247 132 276 109 q 217 194 217 155 q 347 281 217 274 l 467 290 l 467 148 z "},"b":{"ha":793,"x_min":92,"x_max":741,"o":"m 92 0 l 210 0 l 224 36 q 401 -16 313 -16 q 652 77 563 -16 q 741 332 741 170 q 693 530 741 453 q 570 642 644 608 q 417 677 497 677 q 259 649 321 677 l 259 955 l 92 955 l 92 0 m 378 547 q 571 323 571 547 q 516 164 571 214 q 373 115 462 115 q 259 148 307 115 l 259 524 q 378 547 311 547 z "},"c":{"ha":688,"x_min":50,"x_max":651,"o":"m 222 330 q 273 488 222 429 q 424 547 325 547 q 506 537 470 547 q 604 507 542 528 l 651 616 q 532 661 589 646 q 396 677 476 677 q 144 584 238 677 q 50 330 50 491 q 145 78 50 174 q 396 -17 240 -17 q 539 0 479 -17 q 651 47 599 17 l 604 155 q 506 124 542 134 q 424 115 470 115 q 276 174 330 115 q 222 330 222 234 z "},"ć":{"ha":688,"x_min":50,"x_max":651,"o":"m 50 0 m 222 330 q 273 488 222 429 q 424 547 325 547 q 506 537 470 547 q 604 507 542 528 l 651 616 q 532 661 589 646 q 396 677 476 677 q 144 584 238 677 q 50 330 50 491 q 145 78 50 174 q 396 -17 240 -17 q 539 0 479 -17 q 651 47 599 17 l 604 155 q 506 124 542 134 q 424 115 470 115 q 276 174 330 115 q 222 330 222 234 m 260 726 l 578 972 l 465 1101 l 172 828 l 260 726 z "},"č":{"ha":688,"x_min":50,"x_max":651,"o":"m 50 0 m 222 330 q 273 488 222 429 q 424 547 325 547 q 506 537 470 547 q 604 507 542 528 l 651 616 q 532 661 589 646 q 396 677 476 677 q 144 584 238 677 q 50 330 50 491 q 145 78 50 174 q 396 -17 240 -17 q 539 0 479 -17 q 651 47 599 17 l 604 155 q 506 124 542 134 q 424 115 470 115 q 276 174 330 115 q 222 330 222 234 m 545 1101 l 635 1009 l 396 747 l 156 1009 l 247 1101 l 396 938 l 545 1101 z "},"ç":{"ha":688,"x_min":50,"x_max":651,"o":"m 222 330 q 273 488 222 429 q 424 547 325 547 q 506 537 470 547 q 604 507 542 528 l 651 616 q 598 640 641 622 q 505 668 556 658 q 396 677 455 677 q 144 584 238 677 q 50 330 50 491 q 119 106 50 196 q 309 -10 188 16 l 271 -149 l 366 -177 q 419 -200 408 -189 q 431 -224 431 -210 q 391 -245 431 -245 q 362 -241 380 -245 q 328 -236 344 -238 l 234 -210 l 203 -325 l 227 -332 q 391 -361 314 -361 q 514 -319 472 -361 q 556 -215 556 -276 q 422 -73 556 -111 l 436 -17 q 555 3 505 -12 q 651 47 604 19 l 604 155 q 506 124 542 134 q 424 115 470 115 q 276 174 330 115 q 222 330 222 234 z "},"ĉ":{"ha":688,"x_min":50,"x_max":651,"o":"m 50 0 m 222 330 q 273 488 222 429 q 424 547 325 547 q 506 537 470 547 q 604 507 542 528 l 651 616 q 532 661 589 646 q 396 677 476 677 q 144 584 238 677 q 50 330 50 491 q 145 78 50 174 q 396 -17 240 -17 q 539 0 479 -17 q 651 47 599 17 l 604 155 q 506 124 542 134 q 424 115 470 115 q 276 174 330 115 q 222 330 222 234 m 545 747 l 635 839 l 396 1101 l 156 839 l 247 747 l 396 910 l 545 747 z "},"ċ":{"ha":688,"x_min":50,"x_max":651,"o":"m 50 0 m 222 330 q 273 488 222 429 q 424 547 325 547 q 506 537 470 547 q 604 507 542 528 l 651 616 q 532 661 589 646 q 396 677 476 677 q 144 584 238 677 q 50 330 50 491 q 145 78 50 174 q 396 -17 240 -17 q 539 0 479 -17 q 651 47 599 17 l 604 155 q 506 124 542 134 q 424 115 470 115 q 276 174 330 115 q 222 330 222 234 m 396 780 q 321 811 352 780 q 290 885 290 842 q 321 961 290 931 q 396 991 352 991 q 471 961 441 991 q 502 885 502 931 q 471 811 502 842 q 396 780 441 780 z "},"d":{"ha":793,"x_min":50,"x_max":701,"o":"m 535 649 q 377 677 472 677 q 227 642 302 677 q 102 530 153 608 q 50 332 50 451 q 141 78 50 172 q 391 -16 233 -16 q 569 36 481 -16 l 582 0 l 701 0 l 701 955 l 535 955 l 535 649 m 415 547 q 535 524 483 547 l 535 148 q 420 115 484 115 q 276 163 330 115 q 222 323 222 212 q 415 547 222 547 z "},"ð":{"ha":778,"x_min":49,"x_max":736,"o":"m 604 788 q 736 378 736 622 q 688 168 736 257 q 562 31 641 78 q 391 -16 483 -16 q 141 74 233 -16 q 49 316 49 163 q 93 491 49 418 q 212 601 137 564 q 378 637 286 637 q 530 609 458 637 q 470 733 512 679 l 323 674 l 280 778 l 378 818 q 315 855 347 839 q 274 877 283 872 l 337 986 q 398 954 344 983 q 516 875 453 925 l 665 936 l 707 830 l 604 788 m 391 116 q 518 173 465 116 q 571 370 571 229 q 564 472 571 422 q 417 512 488 512 q 273 467 328 512 q 217 316 217 422 q 266 171 217 226 q 391 116 316 116 z "},"ď":{"ha":938,"x_min":50,"x_max":990,"o":"m 785 729 l 908 729 l 990 1035 l 830 1035 l 785 729 m 535 649 q 377 677 472 677 q 227 642 302 677 q 102 530 153 608 q 50 332 50 451 q 141 78 50 172 q 391 -16 233 -16 q 569 36 481 -16 l 582 0 l 701 0 l 701 955 l 535 955 l 535 649 m 415 547 q 535 524 483 547 l 535 148 q 420 115 484 115 q 276 163 330 115 q 222 323 222 212 q 415 547 222 547 z "},"đ":{"ha":828,"x_min":50,"x_max":828,"o":"m 535 865 l 264 865 l 264 738 l 535 738 l 535 637 q 377 667 446 667 q 228 630 304 667 q 102 517 153 594 q 50 326 50 441 q 141 76 50 167 q 391 -16 233 -16 q 569 36 481 -16 l 582 0 l 701 0 l 701 738 l 828 738 l 828 865 l 701 865 l 701 955 l 535 955 l 535 865 m 415 535 q 535 512 464 535 l 535 148 q 420 115 484 115 q 276 162 330 115 q 222 314 222 210 q 415 535 222 535 z "},"e":{"ha":722,"x_min":50,"x_max":672,"o":"m 359 677 q 207 635 278 677 q 94 513 137 592 q 50 330 50 434 q 141 78 50 174 q 403 -17 231 -17 q 639 23 526 -17 l 609 135 q 425 115 526 115 q 278 148 330 115 q 219 266 226 181 l 672 266 l 672 330 q 591 584 672 491 q 359 677 510 677 m 363 547 q 467 504 427 547 q 507 382 507 462 l 222 382 q 268 503 226 460 q 363 547 311 547 z "},"é":{"ha":722,"x_min":50,"x_max":672,"o":"m 50 0 m 359 677 q 207 635 278 677 q 94 513 137 592 q 50 330 50 434 q 141 78 50 174 q 403 -17 231 -17 q 639 23 526 -17 l 609 135 q 425 115 526 115 q 278 148 330 115 q 219 266 226 181 l 672 266 l 672 330 q 591 584 672 491 q 359 677 510 677 m 363 547 q 467 504 427 547 q 507 382 507 462 l 222 382 q 268 503 226 460 q 363 547 311 547 m 224 726 l 542 972 l 429 1101 l 135 828 l 224 726 z "},"ĕ":{"ha":722,"x_min":50,"x_max":672,"o":"m 50 0 m 359 677 q 207 635 278 677 q 94 513 137 592 q 50 330 50 434 q 141 78 50 174 q 403 -17 231 -17 q 639 23 526 -17 l 609 135 q 425 115 526 115 q 278 148 330 115 q 219 266 226 181 l 672 266 l 672 330 q 591 584 672 491 q 359 677 510 677 m 363 547 q 467 504 427 547 q 507 382 507 462 l 222 382 q 268 503 226 460 q 363 547 311 547 m 359 764 q 513 823 453 764 q 601 955 573 882 l 488 1002 q 435 918 464 950 q 359 885 406 885 q 286 915 313 885 q 229 1002 260 944 l 118 955 q 206 823 146 882 q 359 764 266 764 z "},"ě":{"ha":722,"x_min":50,"x_max":672,"o":"m 50 0 m 359 677 q 207 635 278 677 q 94 513 137 592 q 50 330 50 434 q 141 78 50 174 q 403 -17 231 -17 q 639 23 526 -17 l 609 135 q 425 115 526 115 q 278 148 330 115 q 219 266 226 181 l 672 266 l 672 330 q 591 584 672 491 q 359 677 510 677 m 363 547 q 467 504 427 547 q 507 382 507 462 l 222 382 q 268 503 226 460 q 363 547 311 547 m 509 1101 l 599 1009 l 359 747 l 120 1009 l 210 1101 l 359 938 l 509 1101 z "},"ê":{"ha":722,"x_min":50,"x_max":672,"o":"m 50 0 m 359 677 q 207 635 278 677 q 94 513 137 592 q 50 330 50 434 q 141 78 50 174 q 403 -17 231 -17 q 639 23 526 -17 l 609 135 q 425 115 526 115 q 278 148 330 115 q 219 266 226 181 l 672 266 l 672 330 q 591 584 672 491 q 359 677 510 677 m 363 547 q 467 504 427 547 q 507 382 507 462 l 222 382 q 268 503 226 460 q 363 547 311 547 m 509 747 l 599 839 l 359 1101 l 120 839 l 210 747 l 359 910 l 509 747 z "},"ë":{"ha":722,"x_min":50,"x_max":672,"o":"m 50 0 m 359 677 q 207 635 278 677 q 94 513 137 592 q 50 330 50 434 q 141 78 50 174 q 403 -17 231 -17 q 639 23 526 -17 l 609 135 q 425 115 526 115 q 278 148 330 115 q 219 266 226 181 l 672 266 l 672 330 q 591 584 672 491 q 359 677 510 677 m 363 547 q 467 504 427 547 q 507 382 507 462 l 222 382 q 268 503 226 460 q 363 547 311 547 m 220 773 q 159 798 184 773 q 134 859 134 823 q 159 919 134 894 q 220 944 184 944 q 280 919 255 944 q 306 859 306 894 q 280 798 306 823 q 220 773 255 773 m 493 773 q 431 798 457 773 q 406 859 406 823 q 431 919 406 894 q 493 944 457 944 q 553 919 528 944 q 578 859 578 894 q 553 798 578 823 q 493 773 528 773 z "},"ė":{"ha":722,"x_min":50,"x_max":672,"o":"m 50 0 m 359 677 q 207 635 278 677 q 94 513 137 592 q 50 330 50 434 q 141 78 50 174 q 403 -17 231 -17 q 639 23 526 -17 l 609 135 q 425 115 526 115 q 278 148 330 115 q 219 266 226 181 l 672 266 l 672 330 q 591 584 672 491 q 359 677 510 677 m 363 547 q 467 504 427 547 q 507 382 507 462 l 222 382 q 268 503 226 460 q 363 547 311 547 m 359 780 q 285 811 316 780 q 253 885 253 842 q 285 961 253 931 q 359 991 316 991 q 435 961 405 991 q 465 885 465 931 q 435 811 465 842 q 359 780 405 780 z "},"è":{"ha":722,"x_min":50,"x_max":672,"o":"m 50 0 m 359 677 q 207 635 278 677 q 94 513 137 592 q 50 330 50 434 q 141 78 50 174 q 403 -17 231 -17 q 639 23 526 -17 l 609 135 q 425 115 526 115 q 278 148 330 115 q 219 266 226 181 l 672 266 l 672 330 q 591 584 672 491 q 359 677 510 677 m 363 547 q 467 504 427 547 q 507 382 507 462 l 222 382 q 268 503 226 460 q 363 547 311 547 m 495 726 l 583 828 l 290 1101 l 177 972 l 495 726 z "},"ē":{"ha":722,"x_min":50,"x_max":672,"o":"m 50 0 m 359 677 q 207 635 278 677 q 94 513 137 592 q 50 330 50 434 q 141 78 50 174 q 403 -17 231 -17 q 639 23 526 -17 l 609 135 q 425 115 526 115 q 278 148 330 115 q 219 266 226 181 l 672 266 l 672 330 q 591 584 672 491 q 359 677 510 677 m 363 547 q 467 504 427 547 q 507 382 507 462 l 222 382 q 268 503 226 460 q 363 547 311 547 m 139 776 l 576 776 l 576 911 l 139 911 l 139 776 z "},"ę":{"ha":722,"x_min":50,"x_max":672,"o":"m 359 677 q 207 635 278 677 q 94 513 137 592 q 50 330 50 434 q 122 97 50 188 q 337 -14 194 7 q 241 -172 241 -83 q 293 -298 241 -248 q 432 -347 344 -347 q 550 -330 498 -347 q 651 -281 602 -312 l 611 -205 q 563 -223 602 -208 q 486 -238 523 -238 q 424 -214 446 -238 q 403 -151 403 -189 q 471 -38 403 -75 q 639 23 540 -2 l 609 135 q 425 115 526 115 q 278 148 330 115 q 219 266 226 181 l 672 266 l 672 330 q 591 584 672 491 q 359 677 510 677 m 363 547 q 467 504 427 547 q 507 382 507 462 l 222 382 q 268 503 226 460 q 363 547 311 547 z "},"f":{"ha":549,"x_min":28,"x_max":606,"o":"m 28 667 l 28 536 l 139 536 l 139 0 l 304 0 l 304 536 l 552 536 l 552 667 l 304 667 l 304 724 q 343 802 304 774 q 450 830 382 830 q 552 816 502 830 l 580 807 l 606 927 l 582 936 q 411 962 491 962 q 195 884 252 962 q 139 719 139 806 l 139 667 l 28 667 z "},"g":{"ha":790,"x_min":50,"x_max":701,"o":"m 536 16 q 520 -120 536 -68 q 457 -201 503 -172 q 323 -231 411 -231 q 156 -196 253 -231 l 128 -187 l 83 -309 l 109 -319 q 340 -363 220 -363 q 618 -260 535 -363 q 701 -16 701 -156 l 701 667 l 585 667 l 569 623 q 368 677 472 677 q 223 644 295 677 q 101 534 151 611 q 50 332 50 457 q 141 78 50 172 q 391 -16 233 -16 q 464 -7 432 -16 q 536 19 497 2 l 536 16 m 415 545 q 535 521 479 545 l 535 148 q 420 115 484 115 q 276 163 330 115 q 222 323 222 212 q 415 545 222 545 z "},"ğ":{"ha":790,"x_min":50,"x_max":701,"o":"m 50 0 m 536 16 q 520 -120 536 -68 q 457 -201 503 -172 q 323 -231 411 -231 q 156 -196 253 -231 l 128 -187 l 83 -309 l 109 -319 q 340 -363 220 -363 q 618 -260 535 -363 q 701 -16 701 -156 l 701 667 l 585 667 l 569 623 q 368 677 472 677 q 223 644 295 677 q 101 534 151 611 q 50 332 50 457 q 141 78 50 172 q 391 -16 233 -16 q 464 -7 432 -16 q 536 19 497 2 l 536 16 m 415 545 q 535 521 479 545 l 535 148 q 420 115 484 115 q 276 163 330 115 q 222 323 222 212 q 415 545 222 545 m 377 764 q 530 823 470 764 q 618 955 590 882 l 505 1002 q 452 918 481 950 q 377 885 424 885 q 304 915 330 885 q 247 1002 278 944 l 135 955 q 223 823 163 882 q 377 764 283 764 z "},"ĝ":{"ha":790,"x_min":50,"x_max":701,"o":"m 50 0 m 536 16 q 520 -120 536 -68 q 457 -201 503 -172 q 323 -231 411 -231 q 156 -196 253 -231 l 128 -187 l 83 -309 l 109 -319 q 340 -363 220 -363 q 618 -260 535 -363 q 701 -16 701 -156 l 701 667 l 585 667 l 569 623 q 368 677 472 677 q 223 644 295 677 q 101 534 151 611 q 50 332 50 457 q 141 78 50 172 q 391 -16 233 -16 q 464 -7 432 -16 q 536 19 497 2 l 536 16 m 415 545 q 535 521 479 545 l 535 148 q 420 115 484 115 q 276 163 330 115 q 222 323 222 212 q 415 545 222 545 m 526 747 l 616 839 l 377 1101 l 137 839 l 227 747 l 377 910 l 526 747 z "},"ģ":{"ha":790,"x_min":50,"x_max":701,"o":"m 325 781 l 448 781 l 530 1087 l 370 1087 l 325 781 m 536 16 q 520 -120 536 -68 q 457 -201 503 -172 q 323 -231 411 -231 q 156 -196 253 -231 l 128 -187 l 83 -309 l 109 -319 q 340 -363 220 -363 q 618 -260 535 -363 q 701 -16 701 -156 l 701 667 l 585 667 l 569 623 q 368 677 472 677 q 223 644 295 677 q 101 534 151 611 q 50 332 50 457 q 141 78 50 172 q 391 -16 233 -16 q 464 -7 432 -16 q 536 19 497 2 l 536 16 m 415 545 q 535 521 479 545 l 535 148 q 420 115 484 115 q 276 163 330 115 q 222 323 222 212 q 415 545 222 545 z "},"ġ":{"ha":790,"x_min":50,"x_max":701,"o":"m 50 0 m 536 16 q 520 -120 536 -68 q 457 -201 503 -172 q 323 -231 411 -231 q 156 -196 253 -231 l 128 -187 l 83 -309 l 109 -319 q 340 -363 220 -363 q 618 -260 535 -363 q 701 -16 701 -156 l 701 667 l 585 667 l 569 623 q 368 677 472 677 q 223 644 295 677 q 101 534 151 611 q 50 332 50 457 q 141 78 50 172 q 391 -16 233 -16 q 464 -7 432 -16 q 536 19 497 2 l 536 16 m 415 545 q 535 521 479 545 l 535 148 q 420 115 484 115 q 276 163 330 115 q 222 323 222 212 q 415 545 222 545 m 377 780 q 302 811 333 780 q 271 885 271 842 q 302 961 271 931 q 377 991 333 991 q 452 961 422 991 q 483 885 483 931 q 452 811 483 842 q 377 780 422 780 z "},"h":{"ha":780,"x_min":92,"x_max":703,"o":"m 417 536 q 512 499 488 536 q 536 401 536 462 l 536 0 l 703 0 l 703 378 q 656 590 703 505 q 460 675 609 675 q 259 632 363 675 l 259 955 l 92 955 l 92 0 l 259 0 l 259 500 q 417 536 352 536 z "},"i":{"ha":337,"x_min":63,"x_max":274,"o":"m 63 0 m 85 0 l 252 0 l 252 667 l 85 667 l 85 0 m 168 780 q 94 811 125 780 q 63 885 63 842 q 94 961 63 931 q 168 991 125 991 q 244 961 214 991 q 274 885 274 931 q 244 811 274 842 q 168 780 214 780 z "},"ı":{"ha":337,"x_min":85,"x_max":252,"o":"m 85 0 l 252 0 l 252 667 l 85 667 l 85 0 z "},"í":{"ha":337,"x_min":-56,"x_max":351,"o":"m 0 0 m 85 0 l 252 0 l 252 667 l 85 667 l 85 0 m 33 726 l 351 972 l 238 1101 l -56 828 l 33 726 z "},"ĭ":{"ha":337,"x_min":-73,"x_max":410,"o":"m 0 0 m 85 0 l 252 0 l 252 667 l 85 667 l 85 0 m 168 764 q 322 823 262 764 q 410 955 382 882 l 297 1002 q 244 918 273 950 q 168 885 215 885 q 95 915 122 885 q 38 1002 69 944 l -73 955 q 15 823 -45 882 q 168 764 75 764 z "},"î":{"ha":337,"x_min":-71,"x_max":408,"o":"m 0 0 m 85 0 l 252 0 l 252 667 l 85 667 l 85 0 m 318 747 l 408 839 l 168 1101 l -71 839 l 19 747 l 168 910 l 318 747 z "},"ï":{"ha":337,"x_min":-57,"x_max":387,"o":"m 0 0 m 85 0 l 252 0 l 252 667 l 85 667 l 85 0 m 30 773 q -32 798 -7 773 q -57 859 -57 823 q -32 919 -57 894 q 30 944 -7 944 q 89 919 64 944 q 115 859 115 894 q 89 798 115 823 q 30 773 64 773 m 302 773 q 240 798 266 773 q 215 859 215 823 q 240 919 215 894 q 302 944 266 944 q 362 919 337 944 q 387 859 387 894 q 362 798 387 823 q 302 773 337 773 z "},"ì":{"ha":337,"x_min":-14,"x_max":392,"o":"m 0 0 m 85 0 l 252 0 l 252 667 l 85 667 l 85 0 m 304 726 l 392 828 l 99 1101 l -14 972 l 304 726 z "},"ĳ":{"ha":639,"x_min":63,"x_max":580,"o":"m 168 780 q 94 811 125 780 q 63 885 63 842 q 94 961 63 931 q 168 991 125 991 q 244 961 214 991 q 274 885 274 931 q 244 811 274 842 q 168 780 214 780 m 474 780 q 399 811 431 780 q 368 885 368 842 q 399 961 368 931 q 474 991 431 991 q 549 961 519 991 q 580 885 580 931 q 549 811 580 842 q 474 780 519 780 m 85 0 l 252 0 l 252 667 l 85 667 l 85 0 m 392 5 q 385 -115 392 -75 q 352 -183 377 -156 q 273 -238 328 -210 l 248 -252 l 306 -366 l 328 -359 q 510 -232 464 -311 q 556 -50 556 -153 l 556 667 l 392 667 l 392 5 z "},"ī":{"ha":337,"x_min":-52,"x_max":385,"o":"m 0 0 m 85 0 l 252 0 l 252 667 l 85 667 l 85 0 m -52 776 l 385 776 l 385 911 l -52 911 l -52 776 z "},"į":{"ha":356,"x_min":-69,"x_max":342,"o":"m 188 780 q 113 811 144 780 q 82 885 82 842 q 113 961 82 931 q 188 991 144 991 q 263 961 233 991 q 293 885 293 931 q 263 811 293 842 q 188 780 233 780 m 108 667 l 108 35 q -69 -172 -69 -52 q -17 -298 -69 -248 q 122 -347 35 -347 q 237 -331 188 -347 q 342 -281 286 -314 l 302 -205 q 253 -223 293 -208 q 177 -238 214 -238 q 114 -214 135 -238 q 92 -151 92 -189 q 134 -59 92 -101 q 273 31 175 -17 l 273 667 l 108 667 z "},"ĩ":{"ha":337,"x_min":-111,"x_max":450,"o":"m 0 0 m 85 0 l 252 0 l 252 667 l 85 667 l 85 0 m 59 957 q -53 911 -5 957 q -111 799 -101 865 l 16 759 q 43 807 31 793 q 83 821 56 821 q 142 797 102 821 q 207 766 177 778 q 267 755 236 755 q 394 802 345 755 q 450 911 443 849 l 325 953 q 300 907 313 922 q 259 892 288 892 q 217 904 241 892 q 188 917 193 915 q 59 957 108 957 z "},"j":{"ha":349,"x_min":-42,"x_max":290,"o":"m 0 0 m 102 5 q 95 -115 102 -75 q 63 -183 87 -156 q -17 -238 38 -210 l -42 -252 l 16 -366 l 38 -359 q 220 -232 174 -311 q 266 -50 266 -153 l 266 667 l 102 667 l 102 5 m 184 780 q 109 811 141 780 q 78 885 78 842 q 109 961 78 931 q 184 991 141 991 q 260 961 229 991 q 290 885 290 931 q 260 811 290 842 q 184 780 229 780 z "},"ȷ":{"ha":349,"x_min":-42,"x_max":266,"o":"m 102 5 q 95 -115 102 -75 q 63 -183 87 -156 q -17 -238 38 -210 l -42 -252 l 16 -366 l 38 -359 q 220 -232 174 -311 q 266 -50 266 -153 l 266 667 l 102 667 l 102 5 z "},"ĵ":{"ha":349,"x_min":-56,"x_max":424,"o":"m 0 0 m 102 5 q 95 -115 102 -75 q 63 -183 87 -156 q -17 -238 38 -210 l -42 -252 l 16 -366 l 38 -359 q 220 -232 174 -311 q 266 -50 266 -153 l 266 667 l 102 667 l 102 5 m 333 747 l 424 839 l 184 1101 l -56 839 l 35 747 l 184 910 l 333 747 z "},"k":{"ha":755,"x_min":92,"x_max":741,"o":"m 92 955 l 92 0 l 259 0 l 259 955 l 92 955 m 276 366 l 540 0 l 741 0 l 472 366 l 729 675 l 528 675 l 276 366 z "},"ķ":{"ha":755,"x_min":92,"x_max":741,"o":"m 92 0 m 92 955 l 92 0 l 259 0 l 259 955 l 92 955 m 276 366 l 540 0 l 741 0 l 472 366 l 729 675 l 528 675 l 276 366 m 231 -377 l 372 -377 l 484 -71 l 293 -71 l 231 -377 z "},"l":{"ha":424,"x_min":92,"x_max":411,"o":"m 332 115 q 272 141 288 115 q 255 220 255 168 l 255 955 l 92 955 l 92 172 q 262 -16 92 -16 q 411 17 340 -16 l 411 127 q 332 115 366 115 z "},"ĺ":{"ha":424,"x_min":92,"x_max":543,"o":"m 92 0 m 332 115 q 272 141 288 115 q 255 220 255 168 l 255 955 l 92 955 l 92 172 q 262 -16 92 -16 q 411 17 340 -16 l 411 127 q 332 115 366 115 m 226 1014 l 543 1260 l 431 1389 l 137 1116 l 226 1014 z "},"ľ":{"ha":512,"x_min":92,"x_max":564,"o":"m 359 729 l 483 729 l 564 1035 l 405 1035 l 359 729 m 332 115 q 272 141 288 115 q 255 220 255 168 l 255 955 l 92 955 l 92 172 q 262 -16 92 -16 q 411 17 340 -16 l 411 127 q 332 115 366 115 z "},"ļ":{"ha":424,"x_min":92,"x_max":411,"o":"m 92 0 m 332 115 q 272 141 288 115 q 255 220 255 168 l 255 955 l 92 955 l 92 172 q 262 -16 92 -16 q 411 17 340 -16 l 411 127 q 332 115 366 115 m 99 -377 l 240 -377 l 352 -71 l 161 -71 l 99 -377 z "},"ł":{"ha":438,"x_min":0,"x_max":424,"o":"m 345 115 q 424 127 378 115 l 424 17 q 274 -16 352 -16 q 141 36 177 -16 q 106 172 106 89 l 106 330 l 0 269 l 0 420 l 106 481 l 106 955 l 266 955 l 266 573 l 403 651 l 403 498 l 266 420 l 266 220 q 283 141 266 168 q 345 115 300 115 z "},"m":{"ha":1160,"x_min":82,"x_max":1080,"o":"m 82 667 l 82 0 l 247 0 l 247 498 q 336 527 304 519 q 392 535 368 535 q 477 493 453 535 q 500 399 500 451 l 500 0 l 667 0 l 667 372 q 655 493 667 434 q 743 525 708 516 q 809 535 778 535 q 892 493 870 535 q 915 399 915 451 l 915 0 l 1080 0 l 1080 378 q 1037 590 1080 505 q 852 675 995 675 q 609 608 745 675 q 438 675 550 675 q 342 662 387 675 q 264 635 297 649 q 220 618 231 622 l 200 667 l 82 667 z "},"n":{"ha":773,"x_min":82,"x_max":693,"o":"m 82 667 l 82 0 l 247 0 l 247 498 q 408 535 347 535 q 502 493 476 535 q 528 399 528 451 l 528 0 l 693 0 l 693 378 q 678 519 693 457 q 610 628 663 582 q 451 675 557 675 q 220 618 339 675 l 200 667 l 82 667 z "},"ń":{"ha":773,"x_min":82,"x_max":693,"o":"m 82 0 m 82 667 l 82 0 l 247 0 l 247 498 q 408 535 347 535 q 502 493 476 535 q 528 399 528 451 l 528 0 l 693 0 l 693 378 q 678 519 693 457 q 610 628 663 582 q 451 675 557 675 q 220 618 339 675 l 200 667 l 82 667 m 262 726 l 580 972 l 467 1101 l 174 828 l 262 726 z "},"ň":{"ha":773,"x_min":82,"x_max":693,"o":"m 82 0 m 82 667 l 82 0 l 247 0 l 247 498 q 408 535 347 535 q 502 493 476 535 q 528 399 528 451 l 528 0 l 693 0 l 693 378 q 678 519 693 457 q 610 628 663 582 q 451 675 557 675 q 220 618 339 675 l 200 667 l 82 667 m 547 1101 l 637 1009 l 398 747 l 158 1009 l 248 1101 l 398 938 l 547 1101 z "},"ņ":{"ha":773,"x_min":82,"x_max":693,"o":"m 82 0 m 82 667 l 82 0 l 247 0 l 247 498 q 408 535 347 535 q 502 493 476 535 q 528 399 528 451 l 528 0 l 693 0 l 693 378 q 678 519 693 457 q 610 628 663 582 q 451 675 557 675 q 220 618 339 675 l 200 667 l 82 667 m 224 -377 l 365 -377 l 477 -71 l 286 -71 l 224 -377 z "},"ñ":{"ha":773,"x_min":82,"x_max":693,"o":"m 82 0 m 82 667 l 82 0 l 247 0 l 247 498 q 408 535 347 535 q 502 493 476 535 q 528 399 528 451 l 528 0 l 693 0 l 693 378 q 678 519 693 457 q 610 628 663 582 q 451 675 557 675 q 220 618 339 675 l 200 667 l 82 667 m 288 957 q 176 911 224 957 q 118 799 128 865 l 245 759 q 273 807 260 793 q 313 821 285 821 q 372 797 332 821 q 436 766 406 778 q 497 755 465 755 q 623 802 575 755 q 679 911 672 849 l 554 953 q 530 907 542 922 q 488 892 517 892 q 446 904 470 892 q 417 917 422 915 q 288 957 337 957 z "},"o":{"ha":790,"x_min":52,"x_max":738,"o":"m 394 -16 q 575 29 497 -16 q 695 151 653 73 q 738 332 738 229 q 645 583 738 490 q 396 677 552 677 q 146 584 240 677 q 52 330 52 491 q 95 151 52 229 q 214 29 137 73 q 394 -16 292 -16 m 394 547 q 516 490 467 547 q 566 330 566 434 q 518 172 566 227 q 394 116 470 116 q 273 173 321 116 q 224 330 224 229 q 273 490 224 432 q 394 547 323 547 z "},"ó":{"ha":790,"x_min":52,"x_max":738,"o":"m 52 0 m 394 -16 q 575 29 497 -16 q 695 151 653 73 q 738 332 738 229 q 645 583 738 490 q 396 677 552 677 q 146 584 240 677 q 52 330 52 491 q 95 151 52 229 q 214 29 137 73 q 394 -16 292 -16 m 394 547 q 516 490 467 547 q 566 330 566 434 q 518 172 566 227 q 394 116 470 116 q 273 173 321 116 q 224 330 224 229 q 273 490 224 432 q 394 547 323 547 m 260 726 l 578 972 l 465 1101 l 172 828 l 260 726 z "},"ŏ":{"ha":790,"x_min":52,"x_max":738,"o":"m 52 0 m 394 -16 q 575 29 497 -16 q 695 151 653 73 q 738 332 738 229 q 645 583 738 490 q 396 677 552 677 q 146 584 240 677 q 52 330 52 491 q 95 151 52 229 q 214 29 137 73 q 394 -16 292 -16 m 394 547 q 516 490 467 547 q 566 330 566 434 q 518 172 566 227 q 394 116 470 116 q 273 173 321 116 q 224 330 224 229 q 273 490 224 432 q 394 547 323 547 m 396 764 q 549 823 490 764 q 637 955 609 882 l 524 1002 q 471 918 500 950 q 396 885 443 885 q 323 915 349 885 q 266 1002 297 944 l 155 955 q 242 823 182 882 q 396 764 302 764 z "},"ô":{"ha":790,"x_min":52,"x_max":738,"o":"m 52 0 m 394 -16 q 575 29 497 -16 q 695 151 653 73 q 738 332 738 229 q 645 583 738 490 q 396 677 552 677 q 146 584 240 677 q 52 330 52 491 q 95 151 52 229 q 214 29 137 73 q 394 -16 292 -16 m 394 547 q 516 490 467 547 q 566 330 566 434 q 518 172 566 227 q 394 116 470 116 q 273 173 321 116 q 224 330 224 229 q 273 490 224 432 q 394 547 323 547 m 545 747 l 635 839 l 396 1101 l 156 839 l 247 747 l 396 910 l 545 747 z "},"ö":{"ha":790,"x_min":52,"x_max":738,"o":"m 52 0 m 394 -16 q 575 29 497 -16 q 695 151 653 73 q 738 332 738 229 q 645 583 738 490 q 396 677 552 677 q 146 584 240 677 q 52 330 52 491 q 95 151 52 229 q 214 29 137 73 q 394 -16 292 -16 m 394 547 q 516 490 467 547 q 566 330 566 434 q 518 172 566 227 q 394 116 470 116 q 273 173 321 116 q 224 330 224 229 q 273 490 224 432 q 394 547 323 547 m 257 773 q 195 798 220 773 q 170 859 170 823 q 195 919 170 894 q 257 944 220 944 q 317 919 292 944 q 342 859 342 894 q 317 798 342 823 q 257 773 292 773 m 530 773 q 468 798 493 773 q 443 859 443 823 q 468 919 443 894 q 530 944 493 944 q 589 919 564 944 q 615 859 615 894 q 589 798 615 823 q 530 773 564 773 z "},"ò":{"ha":790,"x_min":52,"x_max":738,"o":"m 52 0 m 394 -16 q 575 29 497 -16 q 695 151 653 73 q 738 332 738 229 q 645 583 738 490 q 396 677 552 677 q 146 584 240 677 q 52 330 52 491 q 95 151 52 229 q 214 29 137 73 q 394 -16 292 -16 m 394 547 q 516 490 467 547 q 566 330 566 434 q 518 172 566 227 q 394 116 470 116 q 273 173 321 116 q 224 330 224 229 q 273 490 224 432 q 394 547 323 547 m 531 726 l 620 828 l 326 1101 l 214 972 l 531 726 z "},"ő":{"ha":790,"x_min":52,"x_max":905,"o":"m 240 726 l 557 972 l 444 1101 l 151 828 l 240 726 m 587 726 l 905 972 l 792 1101 l 498 828 l 587 726 m 394 -16 q 575 29 497 -16 q 695 151 653 73 q 738 332 738 229 q 645 583 738 490 q 396 677 552 677 q 146 584 240 677 q 52 330 52 491 q 95 151 52 229 q 214 29 137 73 q 394 -16 292 -16 m 394 547 q 516 490 467 547 q 566 330 566 434 q 518 172 566 227 q 394 116 470 116 q 273 173 321 116 q 224 330 224 229 q 273 490 224 432 q 394 547 323 547 z "},"ō":{"ha":790,"x_min":52,"x_max":738,"o":"m 52 0 m 394 -16 q 575 29 497 -16 q 695 151 653 73 q 738 332 738 229 q 645 583 738 490 q 396 677 552 677 q 146 584 240 677 q 52 330 52 491 q 95 151 52 229 q 214 29 137 73 q 394 -16 292 -16 m 394 547 q 516 490 467 547 q 566 330 566 434 q 518 172 566 227 q 394 116 470 116 q 273 173 321 116 q 224 330 224 229 q 273 490 224 432 q 394 547 323 547 m 175 776 l 613 776 l 613 911 l 175 911 l 175 776 z "},"ø":{"ha":790,"x_min":38,"x_max":757,"o":"m 686 531 q 738 332 738 450 q 695 151 738 229 q 575 29 653 73 q 394 -16 497 -16 q 201 36 286 -16 l 130 -36 l 38 50 l 111 125 q 52 330 52 210 q 146 584 52 491 q 396 677 240 677 q 595 623 512 677 l 665 696 l 757 602 l 686 531 m 224 330 q 233 252 224 290 l 490 516 q 394 547 448 547 q 273 490 323 547 q 224 330 224 432 m 566 330 q 559 401 566 356 l 306 142 q 394 116 345 116 q 518 172 470 116 q 566 330 566 227 z "},"õ":{"ha":790,"x_min":52,"x_max":738,"o":"m 52 0 m 394 -16 q 575 29 497 -16 q 695 151 653 73 q 738 332 738 229 q 645 583 738 490 q 396 677 552 677 q 146 584 240 677 q 52 330 52 491 q 95 151 52 229 q 214 29 137 73 q 394 -16 292 -16 m 394 547 q 516 490 467 547 q 566 330 566 434 q 518 172 566 227 q 394 116 470 116 q 273 173 321 116 q 224 330 224 229 q 273 490 224 432 q 394 547 323 547 m 286 957 q 174 911 222 957 q 116 799 127 865 l 243 759 q 271 807 259 793 q 311 821 283 821 q 370 797 330 821 q 434 766 405 778 q 495 755 464 755 q 622 802 573 755 q 677 911 670 849 l 552 953 q 528 907 540 922 q 486 892 516 892 q 444 904 469 892 q 415 917 420 915 q 286 957 335 957 z "},"œ":{"ha":1193,"x_min":50,"x_max":1142,"o":"m 708 266 q 763 147 717 179 q 903 115 809 115 q 1087 135 1000 115 l 1113 23 q 894 -17 1012 -17 q 627 82 720 -17 q 392 -16 543 -16 q 213 29 290 -16 q 93 151 135 73 q 50 330 50 229 q 144 584 50 491 q 394 677 238 677 q 634 580 542 677 q 734 652 677 627 q 851 677 790 677 q 1072 586 1002 677 q 1142 330 1142 495 l 1142 266 l 708 266 m 392 116 q 516 172 469 116 q 564 330 564 227 q 515 490 564 434 q 392 547 465 547 q 272 490 321 547 q 222 330 222 432 q 271 173 222 229 q 392 116 319 116 m 983 382 q 950 505 983 464 q 856 547 917 547 q 757 503 802 547 q 712 382 712 460 l 983 382 z "},"p":{"ha":792,"x_min":89,"x_max":740,"o":"m 89 667 l 89 -358 l 255 -358 l 255 19 q 327 -7 295 2 q 399 -16 359 -16 q 650 77 561 -16 q 740 332 740 170 q 690 534 740 457 q 568 644 641 611 q 422 677 495 677 q 224 623 321 677 l 205 667 l 89 667 m 377 545 q 569 323 569 545 q 515 164 569 214 q 372 115 460 115 q 257 148 307 115 l 257 521 q 377 545 313 545 z "},"þ":{"ha":764,"x_min":63,"x_max":710,"o":"m 63 -358 l 227 -358 l 227 19 q 299 -7 267 2 q 373 -16 332 -16 q 621 78 531 -16 q 710 332 710 172 q 625 585 710 493 q 391 677 540 677 q 298 669 333 677 q 227 642 262 661 l 227 955 l 63 955 l 63 -358 m 229 517 q 351 550 276 550 q 489 501 436 550 q 542 342 542 451 q 485 172 542 229 q 344 115 429 115 q 229 148 280 115 l 229 517 z "},"q":{"ha":793,"x_min":52,"x_max":705,"o":"m 571 623 q 370 677 474 677 q 225 644 297 677 q 102 534 153 611 q 52 332 52 457 q 143 78 52 172 q 392 -16 234 -16 q 466 -7 434 -16 q 538 19 498 2 l 538 -358 l 705 -358 l 705 667 l 587 667 l 571 623 m 417 545 q 536 521 481 545 l 536 148 q 422 115 486 115 q 278 163 332 115 q 224 323 224 212 q 417 545 224 545 z "},"r":{"ha":554,"x_min":82,"x_max":538,"o":"m 82 667 l 82 0 l 247 0 l 247 514 q 356 533 299 533 q 498 498 439 533 l 505 500 l 538 651 q 417 677 481 677 q 220 618 313 677 l 200 667 l 82 667 z "},"ŕ":{"ha":554,"x_min":78,"x_max":538,"o":"m 78 0 m 82 667 l 82 0 l 247 0 l 247 514 q 356 533 299 533 q 498 498 439 533 l 505 500 l 538 651 q 417 677 481 677 q 220 618 313 677 l 200 667 l 82 667 m 167 724 l 484 970 l 372 1099 l 78 826 l 167 724 z "},"ř":{"ha":554,"x_min":63,"x_max":542,"o":"m 63 0 m 82 667 l 82 0 l 247 0 l 247 514 q 356 533 299 533 q 498 498 439 533 l 505 500 l 538 651 q 417 677 481 677 q 220 618 313 677 l 200 667 l 82 667 m 451 1099 l 542 1007 l 302 745 l 63 1007 l 153 1099 l 302 936 l 451 1099 z "},"ŗ":{"ha":554,"x_min":0,"x_max":538,"o":"m 0 0 m 82 667 l 82 0 l 247 0 l 247 514 q 356 533 299 533 q 498 498 439 533 l 505 500 l 538 651 q 417 677 481 677 q 220 618 313 677 l 200 667 l 82 667 m 0 -377 l 141 -377 l 253 -71 l 63 -71 l 0 -377 z "},"s":{"ha":661,"x_min":54,"x_max":613,"o":"m 54 45 q 313 -16 184 -16 q 546 48 479 -16 q 613 189 613 111 q 577 295 613 253 q 492 359 542 337 q 366 405 443 382 q 265 443 297 425 q 233 488 233 460 q 259 528 233 514 q 361 542 285 542 q 538 510 431 542 l 580 639 q 475 665 536 653 q 359 677 413 677 q 134 621 191 677 q 76 495 76 564 q 115 378 76 424 q 205 308 153 332 q 333 262 257 285 q 425 227 398 241 q 453 191 453 214 q 424 142 453 158 q 321 127 394 127 q 220 141 281 127 q 101 175 160 155 l 54 45 z "},"ś":{"ha":661,"x_min":54,"x_max":613,"o":"m 54 0 m 54 45 q 313 -16 184 -16 q 546 48 479 -16 q 613 189 613 111 q 577 295 613 253 q 492 359 542 337 q 366 405 443 382 q 265 443 297 425 q 233 488 233 460 q 259 528 233 514 q 361 542 285 542 q 538 510 431 542 l 580 639 q 475 665 536 653 q 359 677 413 677 q 134 621 191 677 q 76 495 76 564 q 115 378 76 424 q 205 308 153 332 q 333 262 257 285 q 425 227 398 241 q 453 191 453 214 q 424 142 453 158 q 321 127 394 127 q 220 141 281 127 q 101 175 160 155 l 54 45 m 224 726 l 542 972 l 429 1101 l 135 828 l 224 726 z "},"š":{"ha":661,"x_min":54,"x_max":613,"o":"m 54 0 m 54 45 q 313 -16 184 -16 q 546 48 479 -16 q 613 189 613 111 q 577 295 613 253 q 492 359 542 337 q 366 405 443 382 q 265 443 297 425 q 233 488 233 460 q 259 528 233 514 q 361 542 285 542 q 538 510 431 542 l 580 639 q 475 665 536 653 q 359 677 413 677 q 134 621 191 677 q 76 495 76 564 q 115 378 76 424 q 205 308 153 332 q 333 262 257 285 q 425 227 398 241 q 453 191 453 214 q 424 142 453 158 q 321 127 394 127 q 220 141 281 127 q 101 175 160 155 l 54 45 m 509 1101 l 599 1009 l 359 747 l 120 1009 l 210 1101 l 359 938 l 509 1101 z "},"ş":{"ha":661,"x_min":54,"x_max":613,"o":"m 332 -245 q 304 -241 321 -245 q 271 -236 286 -238 l 175 -210 l 141 -325 l 170 -332 q 328 -361 248 -361 q 456 -319 413 -361 q 498 -215 498 -278 q 459 -122 498 -158 q 361 -73 420 -87 l 378 -12 q 561 63 509 3 q 613 200 613 123 q 576 304 613 264 q 488 365 538 344 q 361 408 438 385 q 263 440 293 425 q 233 479 233 455 q 261 522 233 502 q 361 542 290 542 q 538 510 431 542 l 580 639 q 459 669 510 658 q 359 677 408 681 q 76 484 76 677 q 115 372 76 415 q 207 306 155 328 q 337 262 259 285 q 424 234 396 247 q 453 200 453 220 q 424 144 453 161 q 321 127 396 127 q 220 141 281 127 q 101 175 160 155 l 54 45 q 247 -12 125 10 l 210 -149 l 307 -177 q 360 -201 347 -191 q 373 -224 373 -212 q 364 -239 373 -233 q 332 -245 354 -245 z "},"ș":{"ha":661,"x_min":54,"x_max":613,"o":"m 54 0 m 54 45 q 313 -16 184 -16 q 546 48 479 -16 q 613 189 613 111 q 577 295 613 253 q 492 359 542 337 q 366 405 443 382 q 265 443 297 425 q 233 488 233 460 q 259 528 233 514 q 361 542 285 542 q 538 510 431 542 l 580 639 q 475 665 536 653 q 359 677 413 677 q 134 621 191 677 q 76 495 76 564 q 115 378 76 424 q 205 308 153 332 q 333 262 257 285 q 425 227 398 241 q 453 191 453 214 q 424 142 453 158 q 321 127 394 127 q 220 141 281 127 q 101 175 160 155 l 54 45 m 149 -377 l 290 -377 l 403 -71 l 212 -71 l 149 -377 z "},"ß":{"ha":917,"x_min":108,"x_max":847,"o":"m 417 962 q 197 887 286 962 q 108 660 108 813 l 108 0 l 273 0 l 273 660 q 317 777 273 747 q 403 807 361 807 q 531 717 531 807 q 512 677 531 694 q 451 632 493 660 q 360 563 392 597 q 328 470 328 528 q 358 378 328 413 q 429 326 387 344 q 538 288 470 307 q 643 248 611 266 q 675 194 675 231 q 648 143 675 160 q 556 127 622 127 q 377 155 479 127 l 347 161 l 307 23 l 339 16 q 582 -17 460 -17 q 786 45 726 -17 q 847 188 847 108 q 813 299 847 257 q 734 364 780 342 q 620 406 688 385 q 539 438 563 425 q 516 470 516 450 q 530 497 516 484 q 578 531 545 509 q 675 609 639 569 q 712 712 712 649 q 679 830 712 773 q 579 924 646 887 q 417 962 512 962 z "},"t":{"ha":576,"x_min":16,"x_max":554,"o":"m 531 141 q 403 120 453 120 q 293 217 293 120 l 293 536 l 524 536 l 524 667 l 293 667 l 293 858 l 127 858 l 127 667 l 16 667 l 16 536 l 127 536 l 127 214 q 174 45 127 106 q 366 -16 222 -16 q 451 -5 408 -16 q 554 23 493 5 l 531 141 z "},"ť":{"ha":576,"x_min":16,"x_max":564,"o":"m 363 747 l 486 747 l 564 1035 l 405 1035 l 363 747 m 531 141 q 403 120 453 120 q 293 217 293 120 l 293 536 l 524 536 l 524 667 l 293 667 l 293 858 l 127 858 l 127 667 l 16 667 l 16 536 l 127 536 l 127 214 q 174 45 127 106 q 366 -16 222 -16 q 451 -5 408 -16 q 554 23 493 5 l 531 141 z "},"ţ":{"ha":576,"x_min":16,"x_max":554,"o":"m 352 -73 q 448 -123 410 -89 q 486 -215 486 -158 q 444 -319 486 -276 q 319 -361 401 -361 q 156 -332 238 -361 l 130 -325 l 163 -210 l 257 -236 q 321 -245 300 -245 q 351 -239 342 -245 q 359 -224 359 -233 q 347 -200 359 -210 q 293 -177 335 -189 l 198 -149 l 241 3 q 150 82 174 28 q 127 214 127 135 l 127 536 l 16 536 l 16 667 l 127 667 l 127 858 l 293 858 l 293 667 l 524 667 l 524 536 l 293 536 l 293 217 q 403 120 293 120 q 531 141 453 120 l 554 23 q 451 -5 493 5 q 366 -16 408 -16 l 352 -73 z "},"ț":{"ha":576,"x_min":16,"x_max":554,"o":"m 16 0 m 531 141 q 403 120 453 120 q 293 217 293 120 l 293 536 l 524 536 l 524 667 l 293 667 l 293 858 l 127 858 l 127 667 l 16 667 l 16 536 l 127 536 l 127 214 q 174 45 127 106 q 366 -16 222 -16 q 451 -5 408 -16 q 554 23 493 5 l 531 141 m 177 -375 l 318 -375 l 431 -69 l 240 -69 l 177 -375 z "},"u":{"ha":762,"x_min":82,"x_max":677,"o":"m 677 -2 l 677 667 l 514 667 l 514 167 q 368 127 444 127 q 273 168 299 127 q 247 264 247 210 l 247 667 l 82 667 l 82 286 q 128 72 82 160 q 325 -16 174 -16 q 430 0 384 -16 q 542 47 476 16 l 563 -2 l 677 -2 z "},"ú":{"ha":762,"x_min":82,"x_max":677,"o":"m 82 0 m 677 -2 l 677 667 l 514 667 l 514 167 q 368 127 444 127 q 273 168 299 127 q 247 264 247 210 l 247 667 l 82 667 l 82 286 q 128 72 82 160 q 325 -16 174 -16 q 430 0 384 -16 q 542 47 476 16 l 563 -2 l 677 -2 m 245 726 l 563 972 l 450 1101 l 156 828 l 245 726 z "},"ŭ":{"ha":762,"x_min":82,"x_max":677,"o":"m 82 0 m 677 -2 l 677 667 l 514 667 l 514 167 q 368 127 444 127 q 273 168 299 127 q 247 264 247 210 l 247 667 l 82 667 l 82 286 q 128 72 82 160 q 325 -16 174 -16 q 430 0 384 -16 q 542 47 476 16 l 563 -2 l 677 -2 m 380 764 q 534 823 474 764 q 622 955 594 882 l 509 1002 q 456 918 484 950 q 380 885 427 885 q 307 915 333 885 q 250 1002 281 944 l 139 955 q 227 823 167 882 q 380 764 286 764 z "},"û":{"ha":762,"x_min":82,"x_max":677,"o":"m 82 0 m 677 -2 l 677 667 l 514 667 l 514 167 q 368 127 444 127 q 273 168 299 127 q 247 264 247 210 l 247 667 l 82 667 l 82 286 q 128 72 82 160 q 325 -16 174 -16 q 430 0 384 -16 q 542 47 476 16 l 563 -2 l 677 -2 m 530 747 l 620 839 l 380 1101 l 141 839 l 231 747 l 380 910 l 530 747 z "},"ü":{"ha":762,"x_min":82,"x_max":677,"o":"m 82 0 m 677 -2 l 677 667 l 514 667 l 514 167 q 368 127 444 127 q 273 168 299 127 q 247 264 247 210 l 247 667 l 82 667 l 82 286 q 128 72 82 160 q 325 -16 174 -16 q 430 0 384 -16 q 542 47 476 16 l 563 -2 l 677 -2 m 241 773 q 180 798 205 773 q 155 859 155 823 q 180 919 155 894 q 241 944 205 944 q 301 919 276 944 q 326 859 326 894 q 301 798 326 823 q 241 773 276 773 m 514 773 q 452 798 477 773 q 427 859 427 823 q 452 919 427 894 q 514 944 477 944 q 574 919 549 944 q 599 859 599 894 q 574 798 599 823 q 514 773 549 773 z "},"ù":{"ha":762,"x_min":82,"x_max":677,"o":"m 82 0 m 677 -2 l 677 667 l 514 667 l 514 167 q 368 127 444 127 q 273 168 299 127 q 247 264 247 210 l 247 667 l 82 667 l 82 286 q 128 72 82 160 q 325 -16 174 -16 q 430 0 384 -16 q 542 47 476 16 l 563 -2 l 677 -2 m 516 726 l 604 828 l 311 1101 l 198 972 l 516 726 z "},"ű":{"ha":762,"x_min":82,"x_max":889,"o":"m 224 726 l 542 972 l 429 1101 l 135 828 l 224 726 m 571 726 l 889 972 l 776 1101 l 483 828 l 571 726 m 677 -2 l 677 667 l 514 667 l 514 167 q 368 127 444 127 q 273 168 299 127 q 247 264 247 210 l 247 667 l 82 667 l 82 286 q 128 72 82 160 q 325 -16 174 -16 q 430 0 384 -16 q 542 47 476 16 l 563 -2 l 677 -2 z "},"ū":{"ha":762,"x_min":82,"x_max":677,"o":"m 82 0 m 677 -2 l 677 667 l 514 667 l 514 167 q 368 127 444 127 q 273 168 299 127 q 247 264 247 210 l 247 667 l 82 667 l 82 286 q 128 72 82 160 q 325 -16 174 -16 q 430 0 384 -16 q 542 47 476 16 l 563 -2 l 677 -2 m 160 776 l 597 776 l 597 911 l 160 911 l 160 776 z "},"ų":{"ha":750,"x_min":82,"x_max":734,"o":"m 519 -7 q 380 -94 432 -50 q 328 -201 328 -137 q 384 -306 328 -264 q 516 -347 439 -347 q 632 -328 582 -347 q 734 -274 682 -309 l 686 -196 q 628 -228 661 -214 q 563 -243 594 -243 q 505 -225 526 -243 q 484 -175 484 -207 q 538 -87 484 -130 q 677 0 592 -43 l 677 665 l 514 665 l 514 158 q 433 128 472 137 q 368 120 394 120 q 273 161 299 120 q 247 257 247 203 l 247 665 l 82 665 l 82 286 q 128 72 82 160 q 325 -16 174 -16 q 430 0 384 -16 q 542 47 476 16 l 557 12 l 519 -7 z "},"ů":{"ha":762,"x_min":82,"x_max":677,"o":"m 82 0 m 677 -2 l 677 667 l 514 667 l 514 167 q 368 127 444 127 q 273 168 299 127 q 247 264 247 210 l 247 667 l 82 667 l 82 286 q 128 72 82 160 q 325 -16 174 -16 q 430 0 384 -16 q 542 47 476 16 l 563 -2 l 677 -2 m 554 908 q 504 1035 554 984 q 380 1085 455 1085 q 255 1034 306 1085 q 205 908 205 983 q 256 782 205 835 q 380 729 307 729 q 503 782 453 729 q 554 908 554 835 m 380 977 q 427 957 408 977 q 446 908 446 936 q 427 859 446 880 q 380 839 408 839 q 332 859 351 839 q 313 908 313 880 q 332 957 313 936 q 380 977 351 977 z "},"ũ":{"ha":762,"x_min":82,"x_max":677,"o":"m 82 0 m 677 -2 l 677 667 l 514 667 l 514 167 q 368 127 444 127 q 273 168 299 127 q 247 264 247 210 l 247 667 l 82 667 l 82 286 q 128 72 82 160 q 325 -16 174 -16 q 430 0 384 -16 q 542 47 476 16 l 563 -2 l 677 -2 m 271 957 q 159 911 207 957 q 101 799 111 865 l 227 759 q 255 807 243 793 q 295 821 267 821 q 354 797 314 821 q 418 766 389 778 q 479 755 448 755 q 606 802 557 755 q 661 911 655 849 l 536 953 q 512 907 524 922 q 470 892 500 892 q 429 904 453 892 q 399 917 405 915 q 271 957 319 957 z "},"v":{"ha":720,"x_min":19,"x_max":693,"o":"m 519 667 l 363 175 l 205 667 l 19 667 l 276 0 l 444 0 l 693 667 l 519 667 z "},"w":{"ha":1149,"x_min":28,"x_max":1122,"o":"m 342 182 l 205 667 l 28 667 l 266 0 l 425 0 l 576 472 l 724 0 l 882 0 l 1122 667 l 944 667 l 807 182 l 667 667 l 484 667 l 342 182 z "},"x":{"ha":717,"x_min":19,"x_max":696,"o":"m 248 328 l 31 0 l 220 0 l 358 214 l 493 0 l 696 0 l 458 328 l 691 667 l 497 667 l 358 436 l 210 667 l 19 667 l 248 328 z "},"y":{"ha":755,"x_min":0,"x_max":741,"o":"m 299 -5 l 148 -358 l 333 -358 l 741 667 l 568 667 l 389 155 l 189 667 l 0 667 l 299 -5 z "},"ý":{"ha":755,"x_min":0,"x_max":741,"o":"m 0 0 m 299 -5 l 148 -358 l 333 -358 l 741 667 l 568 667 l 389 155 l 189 667 l 0 667 l 299 -5 m 243 726 l 561 972 l 448 1101 l 155 828 l 243 726 z "},"ŷ":{"ha":755,"x_min":0,"x_max":741,"o":"m 0 0 m 299 -5 l 148 -358 l 333 -358 l 741 667 l 568 667 l 389 155 l 189 667 l 0 667 l 299 -5 m 528 747 l 618 839 l 378 1101 l 139 839 l 229 747 l 378 910 l 528 747 z "},"ÿ":{"ha":755,"x_min":0,"x_max":741,"o":"m 0 0 m 299 -5 l 148 -358 l 333 -358 l 741 667 l 568 667 l 389 155 l 189 667 l 0 667 l 299 -5 m 240 773 q 178 798 203 773 q 153 859 153 823 q 178 919 153 894 q 240 944 203 944 q 299 919 274 944 q 325 859 325 894 q 299 798 325 823 q 240 773 274 773 m 512 773 q 451 798 476 773 q 425 859 425 823 q 451 919 425 894 q 512 944 476 944 q 572 919 547 944 q 597 859 597 894 q 572 798 597 823 q 512 773 547 773 z "},"z":{"ha":646,"x_min":54,"x_max":599,"o":"m 54 521 l 365 521 l 54 85 l 54 0 l 599 0 l 599 141 l 274 141 l 587 578 l 587 667 l 54 667 l 54 521 z "},"ź":{"ha":646,"x_min":54,"x_max":599,"o":"m 54 0 m 54 521 l 365 521 l 54 85 l 54 0 l 599 0 l 599 141 l 274 141 l 587 578 l 587 667 l 54 667 l 54 521 m 186 726 l 503 972 l 391 1101 l 97 828 l 186 726 z "},"ž":{"ha":646,"x_min":54,"x_max":599,"o":"m 54 0 m 54 521 l 365 521 l 54 85 l 54 0 l 599 0 l 599 141 l 274 141 l 587 578 l 587 667 l 54 667 l 54 521 m 470 1101 l 561 1009 l 321 747 l 82 1009 l 172 1101 l 321 938 l 470 1101 z "},"ż":{"ha":646,"x_min":54,"x_max":599,"o":"m 54 0 m 54 521 l 365 521 l 54 85 l 54 0 l 599 0 l 599 141 l 274 141 l 587 578 l 587 667 l 54 667 l 54 521 m 321 780 q 247 811 278 780 q 215 885 215 842 q 247 961 215 931 q 321 991 278 991 q 397 961 366 991 q 427 885 427 931 q 397 811 427 842 q 321 780 366 780 z "},"ﬁ":{"ha":885,"x_min":28,"x_max":823,"o":"m 717 780 q 642 811 674 780 q 611 885 611 842 q 642 961 611 931 q 717 991 674 991 q 793 961 762 991 q 823 885 823 931 q 793 811 823 842 q 717 780 762 780 m 28 667 l 28 536 l 139 536 l 139 0 l 304 0 l 304 536 l 535 536 l 535 667 l 304 667 l 304 724 q 343 802 304 774 q 450 830 382 830 q 524 823 483 830 l 547 944 q 411 962 479 962 q 195 884 252 962 q 139 719 139 806 l 139 667 l 28 667 m 634 0 l 800 0 l 800 667 l 634 667 l 634 0 z "},"ﬂ":{"ha":972,"x_min":28,"x_max":960,"o":"m 28 667 l 28 536 l 139 536 l 139 0 l 304 0 l 304 536 l 535 536 l 535 667 l 304 667 l 304 724 q 343 802 304 774 q 450 830 382 830 q 524 823 483 830 l 547 944 q 411 962 479 962 q 195 884 252 962 q 139 719 139 806 l 139 667 l 28 667 m 880 115 q 820 141 837 115 q 804 220 804 168 l 804 955 l 641 955 l 641 172 q 811 -16 641 -16 q 960 17 889 -16 l 960 127 q 880 115 915 115 z "},"´":{"ha":424,"x_min":9,"x_max":415,"o":"m 97 726 l 415 972 l 302 1101 l 9 828 l 97 726 z "},"˘":{"ha":500,"x_min":9,"x_max":491,"o":"m 250 764 q 404 823 344 764 q 491 955 464 882 l 378 1002 q 326 918 354 950 q 250 885 297 885 q 177 915 203 885 q 120 1002 151 944 l 9 955 q 96 823 36 882 q 250 764 156 764 z "},"ˇ":{"ha":497,"x_min":9,"x_max":488,"o":"m 398 1101 l 488 1009 l 248 747 l 9 1009 l 99 1101 l 248 938 l 398 1101 z "},"¸":{"ha":373,"x_min":9,"x_max":365,"o":"m 200 -245 q 135 -236 179 -245 l 42 -210 l 9 -325 l 35 -332 q 198 -361 116 -361 q 322 -319 280 -361 q 365 -215 365 -276 q 326 -123 365 -158 q 231 -73 288 -89 l 259 45 l 132 45 l 76 -149 l 172 -177 q 226 -200 214 -189 q 238 -224 238 -210 q 229 -239 238 -233 q 200 -245 220 -245 z "},"ˆ":{"ha":497,"x_min":9,"x_max":488,"o":"m 398 747 l 488 839 l 248 1101 l 9 839 l 99 747 l 248 910 l 398 747 z "},"¨":{"ha":458,"x_min":7,"x_max":451,"o":"m 94 773 q 32 798 57 773 q 7 859 7 823 q 32 919 7 894 q 94 944 57 944 q 154 919 128 944 q 179 859 179 894 q 154 798 179 823 q 94 773 128 773 m 366 773 q 305 798 330 773 q 280 859 280 823 q 305 919 280 894 q 366 944 330 944 q 426 919 401 944 q 451 859 451 894 q 426 798 451 823 q 366 773 401 773 z "},"˙":{"ha":229,"x_min":9,"x_max":220,"o":"m 115 780 q 40 811 71 780 q 9 885 9 842 q 40 961 9 931 q 115 991 71 991 q 190 961 160 991 q 220 885 220 931 q 190 811 220 842 q 115 780 160 780 z "},"`":{"ha":424,"x_min":9,"x_max":415,"o":"m 326 726 l 415 828 l 122 1101 l 9 972 l 326 726 z "},"˝":{"ha":771,"x_min":9,"x_max":762,"o":"m 9 726 m 97 726 l 415 972 l 302 1101 l 9 828 l 97 726 m 444 726 l 762 972 l 649 1101 l 356 828 l 444 726 z "},"¯":{"ha":455,"x_min":9,"x_max":446,"o":"m 9 776 l 446 776 l 446 911 l 9 911 l 9 776 z "},"˛":{"ha":444,"x_min":17,"x_max":427,"o":"m 252 63 q 76 -49 135 14 q 17 -189 17 -113 q 72 -326 17 -269 q 224 -382 127 -382 q 325 -365 280 -382 q 427 -316 370 -349 l 387 -240 q 356 -253 378 -243 q 313 -267 333 -262 q 273 -273 292 -273 q 201 -245 227 -273 q 175 -181 175 -217 q 218 -67 175 -118 q 356 24 260 -16 l 252 63 z "},"˚":{"ha":366,"x_min":9,"x_max":358,"o":"m 358 908 q 308 1035 358 984 q 184 1085 259 1085 q 59 1034 109 1085 q 9 908 9 983 q 60 782 9 835 q 184 729 111 729 q 307 782 257 729 q 358 908 358 835 m 184 977 q 231 957 212 977 q 250 908 250 936 q 231 859 250 880 q 184 839 212 839 q 135 859 155 839 q 116 908 116 880 q 135 957 116 936 q 184 977 155 977 z "},"˜":{"ha":582,"x_min":12,"x_max":573,"o":"m 182 957 q 70 911 118 957 q 12 799 23 865 l 139 759 q 167 807 155 793 q 207 821 179 821 q 266 797 226 821 q 330 766 300 778 q 391 755 359 755 q 517 802 469 755 q 573 911 566 849 l 448 953 q 424 907 436 922 q 382 892 411 892 q 340 904 365 892 q 311 917 316 915 q 182 957 231 957 z "},"̦":{"ha":0,"x_min":9,"x_max":262,"o":"m 9 -377 l 149 -377 l 262 -71 l 71 -71 l 9 -377 z "},"ˉ":{"ha":594,"x_min":78,"x_max":516,"o":"m 78 776 m 78 776 l 516 776 l 516 911 l 78 911 l 78 776 z "},"ª":{"ha":462,"x_min":52,"x_max":410,"o":"m 227 962 q 145 951 189 962 q 73 929 101 941 l 94 859 l 128 868 q 208 884 184 884 q 285 864 266 884 q 304 790 304 844 l 226 785 q 52 651 52 771 q 92 561 52 597 q 196 524 132 524 q 258 534 231 524 q 316 563 285 543 l 328 535 l 410 535 l 410 792 q 371 918 410 875 q 227 962 332 962 m 307 630 q 273 609 290 615 q 226 604 257 604 q 174 619 194 604 q 155 656 155 634 q 236 712 155 708 l 307 719 l 307 630 z "},"º":{"ha":516,"x_min":52,"x_max":464,"o":"m 257 524 q 407 585 351 524 q 464 741 464 646 q 409 903 464 842 q 259 964 354 964 q 108 903 163 964 q 52 741 52 842 q 107 584 52 644 q 257 524 161 524 m 257 884 q 332 845 304 884 q 359 741 359 807 q 332 642 359 679 q 257 606 304 606 q 184 642 214 606 q 155 741 155 679 q 183 845 155 807 q 257 884 212 884 z "},"⁄":{"ha":493,"x_min":-122,"x_max":615,"o":"m 30 -35 l 615 990 l 469 990 l -122 -35 l 30 -35 z "},"½":{"ha":1165,"x_min":43,"x_max":1095,"o":"m 43 898 l 87 800 l 184 828 l 184 415 l 309 415 l 309 955 l 219 955 l 43 898 m 311 0 l 913 955 l 767 955 l 160 0 l 311 0 m 759 392 q 819 420 792 410 q 880 431 847 431 q 943 411 924 431 q 962 352 962 392 q 830 167 962 290 q 729 69 811 146 l 729 -2 l 1095 -2 l 1095 106 l 924 106 q 1046 252 1009 191 q 1083 372 1083 313 q 1031 500 1083 451 q 899 549 979 549 q 720 498 809 549 l 759 392 z "},"¼":{"ha":1146,"x_min":43,"x_max":1076,"o":"m 43 898 l 87 800 l 184 828 l 184 415 l 309 415 l 309 955 l 219 955 l 43 898 m 311 0 l 913 955 l 767 955 l 160 0 l 311 0 m 622 203 l 622 109 l 875 109 l 875 0 l 991 0 l 991 109 l 1076 109 l 1076 214 l 991 214 l 991 536 l 852 536 l 622 203 m 875 370 l 875 214 l 766 214 l 875 370 z "},"¾":{"ha":1250,"x_min":78,"x_max":1181,"o":"m 229 622 q 304 609 280 622 q 328 566 328 595 q 252 510 328 510 q 178 520 217 510 q 115 538 139 530 l 78 429 q 161 403 108 413 q 253 392 214 392 q 399 432 344 392 q 455 550 455 472 q 429 625 455 592 q 370 675 403 658 q 418 730 399 698 q 438 795 438 762 q 388 914 438 873 q 255 955 339 955 q 172 942 212 955 q 87 906 132 929 l 128 800 q 257 837 201 837 q 316 790 316 837 q 226 729 316 729 l 186 729 l 186 622 l 229 622 m 415 0 l 1017 955 l 872 955 l 264 0 l 415 0 m 726 203 l 726 109 l 979 109 l 979 0 l 1095 0 l 1095 109 l 1181 109 l 1181 214 l 1095 214 l 1095 536 l 957 536 l 726 203 m 979 370 l 979 214 l 870 214 l 979 370 z "},"¹":{"ha":335,"x_min":26,"x_max":292,"o":"m 26 960 l 69 863 l 167 891 l 167 477 l 292 477 l 292 1017 l 201 1017 l 26 960 z "},"²":{"ha":462,"x_min":52,"x_max":427,"o":"m 90 873 q 151 901 123 891 q 212 911 179 911 q 274 892 255 911 q 293 833 293 873 q 161 648 293 771 q 61 550 142 627 l 61 479 l 427 479 l 427 587 l 255 587 q 378 733 340 672 q 415 852 415 793 q 363 981 415 932 q 231 1030 311 1030 q 52 979 141 1030 l 90 873 z "},"³":{"ha":472,"x_min":61,"x_max":438,"o":"m 212 701 q 286 688 262 701 q 311 646 311 675 q 234 590 311 590 q 161 600 200 590 q 97 618 122 609 l 61 509 q 143 483 90 493 q 236 472 196 472 q 382 512 326 472 q 438 630 438 552 q 411 705 438 672 q 352 755 385 738 q 401 810 382 778 q 420 875 420 842 q 371 994 420 953 q 238 1035 321 1035 q 155 1022 194 1035 q 69 986 115 1009 l 111 880 q 240 917 184 917 q 299 870 299 917 q 208 809 299 809 l 168 809 l 168 701 l 212 701 z "},"ऄ":{"ha":1042,"x_min":10,"x_max":1076,"o":"m 925 688 l 925 0 l 778 0 l 778 283 q 684 266 733 266 q 608 276 646 266 q 609 238 609 264 q 543 81 609 141 q 359 21 476 21 q 214 53 274 21 q 111 142 155 85 q 10 300 68 200 l 122 368 q 200 243 170 285 q 267 176 229 201 q 358 151 306 151 q 449 178 418 151 q 479 255 479 205 q 438 346 479 313 q 309 375 398 380 l 276 375 l 276 498 l 316 498 q 442 529 413 498 q 470 602 470 559 q 377 682 470 682 q 240 620 313 682 l 165 722 q 272 786 219 764 q 391 809 325 809 q 544 754 486 809 q 602 613 602 700 q 568 498 602 545 q 477 436 533 451 l 500 425 q 665 385 597 385 q 778 417 726 385 l 778 688 l 675 688 l 675 809 l 774 809 q 730 863 764 847 q 620 878 696 878 q 444 936 514 878 q 365 1113 373 993 l 488 1158 q 523 1048 498 1082 q 601 1007 549 1014 q 681 1003 635 1003 q 834 956 766 1003 q 918 809 903 908 l 1076 809 l 1076 688 l 925 688 z "},"ॲ":{"ha":1042,"x_min":10,"x_max":1109,"o":"m 10 0 m 925 688 l 925 0 l 778 0 l 778 283 q 684 266 733 266 q 608 276 646 266 q 609 238 609 264 q 543 81 609 141 q 359 21 476 21 q 214 53 274 21 q 111 142 155 85 q 10 300 68 200 l 122 368 q 200 243 170 285 q 267 176 229 201 q 358 151 306 151 q 449 178 418 151 q 479 255 479 205 q 438 346 479 313 q 309 375 398 380 l 276 375 l 276 498 l 316 498 q 442 529 413 498 q 470 602 470 559 q 377 682 470 682 q 240 620 313 682 l 165 722 q 272 786 219 764 q 391 809 325 809 q 544 754 486 809 q 602 613 602 700 q 568 498 602 545 q 477 436 533 451 l 500 425 q 665 385 597 385 q 778 417 726 385 l 778 688 l 675 688 l 675 809 l 1076 809 l 1076 688 l 925 688 m 852 901 q 684 952 750 901 q 595 1083 618 1003 l 703 1132 q 763 1044 727 1073 q 852 1016 799 1016 q 942 1044 906 1016 q 1002 1132 977 1073 l 1109 1083 q 1021 952 1087 1003 q 852 901 955 901 z "},"अ":{"ha":1042,"x_min":10,"x_max":1076,"o":"m 925 688 l 925 0 l 778 0 l 778 283 q 684 266 733 266 q 608 276 646 266 q 609 238 609 264 q 543 81 609 141 q 359 21 476 21 q 214 53 274 21 q 111 142 155 85 q 10 300 68 200 l 122 368 q 200 243 170 285 q 267 176 229 201 q 358 151 306 151 q 449 178 418 151 q 479 255 479 205 q 438 346 479 313 q 309 375 398 380 l 276 375 l 276 498 l 316 498 q 442 529 413 498 q 470 602 470 559 q 377 682 470 682 q 240 620 313 682 l 165 722 q 272 786 219 764 q 391 809 325 809 q 544 754 486 809 q 602 613 602 700 q 568 498 602 545 q 477 436 533 451 l 500 425 q 665 385 597 385 q 778 417 726 385 l 778 688 l 675 688 l 675 809 l 1076 809 l 1076 688 l 925 688 z "},"आ":{"ha":1411,"x_min":10,"x_max":1453,"o":"m 1302 688 l 1302 0 l 1155 0 l 1155 688 l 925 688 l 925 0 l 778 0 l 778 283 q 684 266 733 266 q 608 276 646 266 q 609 238 609 264 q 543 81 609 141 q 359 21 476 21 q 214 53 274 21 q 111 142 155 85 q 10 300 68 200 l 122 368 q 200 243 170 285 q 267 176 229 201 q 358 151 306 151 q 449 178 418 151 q 479 255 479 205 q 438 346 479 313 q 309 375 398 380 l 276 375 l 276 498 l 316 498 q 442 529 413 498 q 470 602 470 559 q 377 682 470 682 q 240 620 313 682 l 165 722 q 272 786 219 764 q 391 809 325 809 q 544 754 486 809 q 602 613 602 700 q 568 498 602 545 q 477 436 533 451 l 500 425 q 665 385 597 385 q 778 417 726 385 l 778 688 l 675 688 l 675 809 l 1453 809 l 1453 688 l 1302 688 z "},"इ":{"ha":653,"x_min":-42,"x_max":696,"o":"m 318 484 q 228 475 253 484 q 203 441 203 465 q 242 395 203 406 q 354 387 281 384 q 534 345 469 392 q 599 208 599 297 q 529 56 599 115 q 339 -5 458 -3 l 448 -128 l 326 -207 l 181 19 q 83 75 120 40 q 47 149 47 109 q 79 219 47 198 q 155 240 111 240 l 240 132 q 309 122 271 122 q 423 145 387 122 q 458 201 458 168 q 333 257 458 266 l 297 255 q 127 299 189 255 q 64 434 64 344 q 130 566 64 523 q 304 609 196 609 q 415 604 359 609 l 415 688 l -42 688 l -42 809 l 696 809 l 696 688 l 547 688 l 547 477 l 530 465 q 484 472 498 469 q 434 479 477 474 q 318 484 391 484 z "},"ई":{"ha":653,"x_min":-42,"x_max":727,"o":"m 450 955 q 550 809 450 880 l 696 809 l 696 688 l 547 688 l 547 477 l 530 465 q 484 472 498 469 q 434 479 477 474 q 318 484 391 484 q 228 475 253 484 q 203 441 203 465 q 242 395 203 406 q 354 387 281 384 q 534 345 469 392 q 599 208 599 297 q 529 56 599 115 q 339 -5 458 -3 l 448 -128 l 326 -207 l 181 19 q 83 75 120 40 q 47 149 47 109 q 79 219 47 198 q 155 240 111 240 l 240 132 q 309 122 271 122 q 423 145 387 122 q 458 201 458 168 q 333 257 458 266 l 297 255 q 127 299 189 255 q 64 434 64 344 q 130 566 64 523 q 304 609 196 609 q 415 604 361 609 l 415 688 l -42 688 l -42 809 l 394 809 q 340 883 359 842 q 321 967 321 924 q 383 1111 321 1061 q 535 1161 444 1161 q 636 1142 590 1161 q 727 1095 682 1123 l 660 993 q 631 1009 653 997 q 585 1029 609 1021 q 535 1036 561 1036 q 473 1015 497 1036 q 450 955 450 993 z "},"उ":{"ha":738,"x_min":-42,"x_max":780,"o":"m 615 688 q 639 592 639 644 q 605 493 639 536 q 516 427 571 450 q 609 348 571 405 q 648 217 648 292 q 615 109 648 158 q 524 30 583 59 q 389 0 465 0 q 242 33 304 0 q 134 124 181 66 q 31 280 87 182 l 141 344 q 218 220 188 262 q 289 154 248 179 q 387 128 330 128 q 484 157 450 128 q 517 234 517 186 q 472 332 517 292 q 339 366 427 372 l 306 366 l 306 490 l 345 490 q 476 524 443 490 q 509 602 509 559 q 481 664 509 641 q 406 688 453 688 l -42 688 l -42 809 l 780 809 l 780 688 l 615 688 z "},"ऊ":{"ha":991,"x_min":-42,"x_max":1033,"o":"m 615 688 q 639 592 639 644 q 605 493 639 536 q 516 427 571 450 q 568 396 543 417 q 755 493 649 493 q 894 440 839 493 q 950 295 950 387 q 819 66 950 161 l 736 155 q 804 220 783 193 q 825 295 825 247 q 805 350 825 328 q 748 372 785 372 q 688 350 714 372 q 637 292 661 328 q 648 217 648 259 q 615 109 648 158 q 524 30 583 59 q 389 0 465 0 q 242 33 304 0 q 134 124 181 66 q 31 280 87 182 l 141 344 q 218 220 188 262 q 289 154 248 179 q 387 128 330 128 q 484 157 450 128 q 517 234 517 186 q 472 332 517 292 q 339 366 427 372 l 306 366 l 306 490 l 345 490 q 476 524 443 490 q 509 602 509 559 q 481 664 509 641 q 406 688 453 688 l -42 688 l -42 809 l 1033 809 l 1033 688 l 615 688 z "},"ऋ":{"ha":1146,"x_min":-42,"x_max":1188,"o":"m 672 438 q 747 424 705 424 q 839 446 802 424 l 780 552 q 906 601 837 601 q 979 571 950 601 q 1009 498 1009 542 q 988 417 1009 453 l 1068 274 l 1068 273 l 1036 177 l 997 177 q 936 164 958 177 q 913 127 913 151 q 977 73 913 73 q 1016 78 995 73 q 1052 90 1038 83 l 1102 -21 q 1042 -43 1076 -35 q 974 -52 1007 -52 q 834 -3 882 -52 q 786 125 786 45 q 824 229 786 186 q 927 290 861 273 l 901 337 q 764 292 833 292 q 672 302 708 292 l 672 0 l 530 0 l 530 252 l 247 -3 l 144 106 l 483 387 q 340 451 415 451 q 257 429 293 453 q 189 372 220 405 q 146 330 158 340 l 40 429 q 184 553 118 510 q 342 595 250 595 q 530 519 431 595 l 530 688 l -42 688 l -42 809 l 1188 809 l 1188 688 l 672 688 l 672 438 z "},"ॠ":{"ha":1146,"x_min":-42,"x_max":1188,"o":"m 672 438 q 747 424 705 424 q 839 446 802 424 l 780 552 q 906 601 837 601 q 979 571 950 601 q 1009 498 1009 542 q 988 417 1009 453 l 1068 274 l 1068 273 l 1036 177 l 997 177 q 936 164 958 177 q 913 127 913 151 q 936 83 913 97 q 1012 69 958 69 l 1054 69 l 1054 -49 l 1014 -49 q 953 -62 976 -49 q 931 -99 931 -75 q 995 -153 931 -153 q 1033 -148 1012 -153 q 1068 -135 1054 -142 l 1118 -245 q 1058 -267 1092 -259 q 991 -276 1024 -276 q 852 -232 901 -276 q 804 -122 804 -187 q 859 -5 804 -50 q 805 56 823 26 q 786 134 786 85 q 825 230 786 188 q 927 290 863 273 l 901 337 q 764 292 833 292 q 672 302 708 292 l 672 0 l 530 0 l 530 252 l 247 -3 l 144 106 l 483 387 q 340 451 415 451 q 257 429 293 453 q 189 372 220 405 q 146 330 158 340 l 40 429 q 184 553 118 510 q 342 595 250 595 q 530 519 431 595 l 530 688 l -42 688 l -42 809 l 1188 809 l 1188 688 l 672 688 l 672 438 z "},"ऌ":{"ha":964,"x_min":-42,"x_max":1005,"o":"m 736 519 q 832 447 799 497 q 866 332 866 398 q 842 237 866 276 q 774 149 818 198 q 731 100 745 120 q 717 59 717 80 q 729 25 717 36 q 762 14 741 14 q 805 23 786 14 q 838 42 823 31 q 859 57 852 52 l 925 -49 q 757 -115 845 -115 q 625 -64 672 -115 q 578 50 578 -14 q 595 129 578 95 q 644 201 613 163 l 672 233 q 712 280 700 262 q 724 321 724 299 q 623 401 724 401 q 555 370 578 401 q 531 281 531 339 q 536 182 531 234 l 403 205 q 398 293 398 231 q 403 359 398 328 q 319 399 363 399 q 242 372 266 399 q 219 293 219 345 q 271 152 219 229 q 373 21 323 75 l 247 -40 q 200 14 247 -45 q 115 148 153 73 q 76 299 76 222 q 140 475 76 410 q 302 540 203 540 q 464 486 398 540 q 597 535 514 530 l 597 688 l -42 688 l -42 809 l 1005 809 l 1005 688 l 736 688 l 736 519 z "},"ॡ":{"ha":964,"x_min":-42,"x_max":1005,"o":"m 736 519 q 833 447 799 497 q 868 332 868 398 q 846 243 868 281 q 786 163 825 205 q 752 128 774 151 q 717 86 729 104 q 705 52 705 68 q 786 -7 705 -7 l 845 -7 l 845 -122 l 795 -122 q 723 -131 750 -122 q 696 -174 696 -141 q 715 -216 696 -201 q 762 -231 734 -231 q 878 -201 819 -231 l 936 -302 q 764 -349 851 -349 q 623 -304 674 -349 q 573 -193 573 -259 q 593 -118 573 -148 q 648 -66 613 -89 q 578 63 578 -14 q 592 127 578 99 q 644 201 606 155 l 672 233 q 712 280 700 262 q 724 321 724 299 q 623 401 724 401 q 555 370 578 401 q 531 281 531 339 q 536 182 531 234 l 403 205 q 398 293 398 231 q 403 359 398 328 q 319 399 363 399 q 242 372 266 399 q 219 293 219 345 q 271 152 219 229 q 373 21 323 75 l 247 -40 q 200 14 247 -45 q 115 148 153 73 q 76 299 76 222 q 140 475 76 410 q 302 540 203 540 q 464 486 398 540 q 597 535 514 530 l 597 688 l -42 688 l -42 809 l 1005 809 l 1005 688 l 736 688 l 736 519 z "},"ऍ":{"ha":762,"x_min":-42,"x_max":804,"o":"m 0 0 m 658 688 l 658 439 q 624 286 658 337 q 503 201 590 236 l 436 328 q 489 361 474 342 q 507 404 503 380 q 512 493 510 427 l 512 688 l 234 688 l 234 332 l 639 0 l 545 -108 l 89 264 l 87 688 l -42 688 l -42 809 l 804 809 l 804 688 l 658 688 m 372 901 q 203 952 269 901 q 115 1083 137 1003 l 222 1132 q 282 1044 247 1073 q 372 1016 318 1016 q 461 1044 425 1016 q 521 1132 497 1073 l 628 1083 q 540 952 606 1003 q 372 901 474 901 z "},"ऎ":{"ha":762,"x_min":-42,"x_max":804,"o":"m 658 688 l 658 439 q 624 286 658 337 q 503 201 590 236 l 436 328 q 489 361 474 342 q 507 404 503 380 q 512 493 510 427 l 512 688 l 234 688 l 234 332 l 639 0 l 545 -108 l 89 264 l 87 688 l -42 688 l -42 809 l 514 809 q 470 863 503 847 q 359 878 436 878 q 183 936 253 878 q 104 1113 113 993 l 227 1158 q 263 1048 238 1082 q 340 1007 288 1014 q 420 1003 375 1003 q 574 956 505 1003 q 658 809 642 908 l 804 809 l 804 688 l 658 688 z "},"ए":{"ha":762,"x_min":-42,"x_max":804,"o":"m 658 688 l 658 439 q 624 286 658 337 q 503 201 590 236 l 436 328 q 489 361 474 342 q 507 404 503 380 q 512 493 510 427 l 512 688 l 234 688 l 234 332 l 639 0 l 545 -108 l 89 264 l 87 688 l -42 688 l -42 809 l 804 809 l 804 688 l 658 688 z "},"ऐ":{"ha":762,"x_min":-42,"x_max":804,"o":"m 658 688 l 658 439 q 624 286 658 337 q 503 201 590 236 l 436 328 q 489 361 474 342 q 507 404 503 380 q 512 493 510 427 l 512 688 l 234 688 l 234 332 l 639 0 l 545 -108 l 89 264 l 87 688 l -42 688 l -42 809 l 497 809 l 384 951 q 333 1003 352 990 q 288 1017 314 1017 q 243 1010 264 1017 q 217 998 222 1002 l 167 1108 q 191 1119 172 1111 q 237 1135 210 1127 q 288 1142 264 1142 q 391 1115 349 1142 q 491 1021 432 1089 l 656 809 l 804 809 l 804 688 l 658 688 z "},"ऑ":{"ha":1411,"x_min":10,"x_max":1483,"o":"m 10 0 m 1302 688 l 1302 0 l 1155 0 l 1155 688 l 925 688 l 925 0 l 778 0 l 778 283 q 684 266 733 266 q 608 276 646 266 q 609 238 609 264 q 543 81 609 141 q 359 21 476 21 q 214 53 274 21 q 111 142 155 85 q 10 300 68 200 l 122 368 q 200 243 170 285 q 267 176 229 201 q 358 151 306 151 q 449 178 418 151 q 479 255 479 205 q 438 346 479 313 q 309 375 398 380 l 276 375 l 276 498 l 316 498 q 442 529 413 498 q 470 602 470 559 q 377 682 470 682 q 240 620 313 682 l 165 722 q 272 786 219 764 q 391 809 325 809 q 544 754 486 809 q 602 613 602 700 q 568 498 602 545 q 477 436 533 451 l 500 425 q 665 385 597 385 q 778 417 726 385 l 778 688 l 675 688 l 675 809 l 1453 809 l 1453 688 l 1302 688 m 1226 901 q 1057 952 1123 901 q 969 1083 991 1003 l 1076 1132 q 1136 1044 1101 1073 q 1226 1016 1172 1016 q 1315 1044 1280 1016 q 1375 1132 1351 1073 l 1483 1083 q 1394 952 1460 1003 q 1226 901 1328 901 z "},"ओ":{"ha":1411,"x_min":10,"x_max":1453,"o":"m 1302 688 l 1302 0 l 1155 0 l 1155 688 l 925 688 l 925 0 l 778 0 l 778 283 q 684 266 733 266 q 608 276 646 266 q 609 238 609 264 q 543 81 609 141 q 359 21 476 21 q 214 53 274 21 q 111 142 155 85 q 10 300 68 200 l 122 368 q 200 243 170 285 q 267 176 229 201 q 358 151 306 151 q 449 178 418 151 q 479 255 479 205 q 438 346 479 313 q 309 375 398 380 l 276 375 l 276 498 l 316 498 q 442 529 413 498 q 470 602 470 559 q 377 682 470 682 q 240 620 313 682 l 165 722 q 272 786 219 764 q 391 809 325 809 q 544 754 486 809 q 602 613 602 700 q 568 498 602 545 q 477 436 533 451 l 500 425 q 665 385 597 385 q 778 417 726 385 l 778 688 l 675 688 l 675 809 l 1139 809 l 1026 951 q 976 1003 995 990 q 931 1017 957 1017 q 885 1010 906 1017 q 859 998 865 1002 l 809 1108 q 833 1119 814 1111 q 879 1135 852 1127 q 931 1142 906 1142 q 1033 1115 991 1142 q 1134 1021 1075 1089 l 1299 809 l 1453 809 l 1453 688 l 1302 688 z "},"औ":{"ha":1411,"x_min":10,"x_max":1453,"o":"m 1302 688 l 1302 0 l 1155 0 l 1155 688 l 925 688 l 925 0 l 778 0 l 778 283 q 684 266 733 266 q 608 276 646 266 q 609 238 609 264 q 543 81 609 141 q 359 21 476 21 q 214 53 274 21 q 111 142 155 85 q 10 300 68 200 l 122 368 q 200 243 170 285 q 267 176 229 201 q 358 151 306 151 q 449 178 418 151 q 479 255 479 205 q 438 346 479 313 q 309 375 398 380 l 276 375 l 276 498 l 316 498 q 442 529 413 498 q 470 602 470 559 q 377 682 470 682 q 240 620 313 682 l 165 722 q 272 786 219 764 q 391 809 325 809 q 544 754 486 809 q 602 613 602 700 q 568 498 602 545 q 477 436 533 451 l 500 425 q 665 385 597 385 q 778 417 726 385 l 778 688 l 675 688 l 675 809 l 1102 809 l 1036 858 q 995 889 1012 873 q 939 926 958 915 q 903 938 920 938 q 864 931 887 938 q 833 922 840 925 l 799 1040 q 841 1053 809 1043 q 903 1063 873 1063 q 971 1043 938 1063 q 1056 979 1005 1023 q 1092 948 1056 979 l 1200 856 l 1139 983 q 1093 1067 1111 1042 q 1042 1092 1075 1092 q 1003 1088 1026 1092 q 972 1082 979 1083 l 946 1193 q 984 1203 955 1196 q 1040 1210 1012 1210 q 1154 1172 1108 1210 q 1233 1043 1200 1134 l 1318 809 l 1453 809 l 1453 688 l 1302 688 z "},"ॳ":{"ha":1069,"x_min":10,"x_max":1076,"o":"m 925 688 l 925 0 l 778 0 l 778 283 q 684 266 733 266 q 608 276 646 266 q 609 238 609 264 q 543 81 609 141 q 359 21 476 21 q 214 53 274 21 q 111 142 155 85 q 10 300 68 200 l 122 368 q 200 243 170 285 q 267 176 229 201 q 358 151 306 151 q 449 178 418 151 q 479 255 479 205 q 438 346 479 313 q 309 375 398 380 l 276 375 l 276 498 l 316 498 q 442 529 413 498 q 470 602 470 559 q 377 682 470 682 q 240 620 313 682 l 165 722 q 272 786 219 764 q 391 809 325 809 q 544 754 486 809 q 602 613 602 700 q 568 498 602 545 q 477 436 533 451 l 500 425 q 665 385 597 385 q 778 417 726 385 l 778 688 l 675 688 l 675 809 l 778 809 l 778 972 l 925 972 l 925 809 l 1076 809 l 1076 688 l 925 688 z "},"ॴ":{"ha":1439,"x_min":10,"x_max":1453,"o":"m 1302 688 l 1302 0 l 1155 0 l 1155 688 l 925 688 l 925 0 l 778 0 l 778 283 q 684 266 733 266 q 608 276 646 266 q 609 238 609 264 q 543 81 609 141 q 359 21 476 21 q 214 53 274 21 q 111 142 155 85 q 10 300 68 200 l 122 368 q 200 243 170 285 q 267 176 229 201 q 358 151 306 151 q 449 178 418 151 q 479 255 479 205 q 438 346 479 313 q 309 375 398 380 l 276 375 l 276 498 l 316 498 q 442 529 413 498 q 470 602 470 559 q 377 682 470 682 q 240 620 313 682 l 165 722 q 272 786 219 764 q 391 809 325 809 q 544 754 486 809 q 602 613 602 700 q 568 498 602 545 q 477 436 533 451 l 500 425 q 665 385 597 385 q 778 417 726 385 l 778 688 l 675 688 l 675 809 l 1155 809 l 1155 972 l 1302 972 l 1302 809 l 1453 809 l 1453 688 l 1302 688 z "},"ॵ":{"ha":1411,"x_min":10,"x_max":1453,"o":"m 1302 688 l 1302 0 l 1155 0 l 1155 688 l 925 688 l 925 0 l 778 0 l 778 283 q 684 266 733 266 q 608 276 646 266 q 609 238 609 264 q 543 81 609 141 q 359 21 476 21 q 214 53 274 21 q 111 142 155 85 q 10 300 68 200 l 122 368 q 200 243 170 285 q 267 176 229 201 q 358 151 306 151 q 449 178 418 151 q 479 255 479 205 q 438 346 479 313 q 309 375 398 380 l 276 375 l 276 498 l 316 498 q 442 529 413 498 q 470 602 470 559 q 377 682 470 682 q 240 620 313 682 l 165 722 q 272 786 219 764 q 391 809 325 809 q 544 754 486 809 q 602 613 602 700 q 568 498 602 545 q 477 436 533 451 l 500 425 q 665 385 597 385 q 778 417 726 385 l 778 688 l 675 688 l 675 809 l 1118 809 q 1069 860 1108 845 q 950 875 1031 875 q 779 935 845 875 q 703 1116 712 995 l 814 1158 q 843 1049 825 1085 q 893 999 861 1012 q 988 986 925 986 q 1156 946 1085 986 q 1245 809 1227 906 l 1252 832 q 1262 889 1262 866 q 1238 946 1262 925 q 1158 995 1214 967 q 1104 1021 1132 1005 q 1010 1097 1042 1057 q 977 1215 977 1137 q 990 1302 977 1259 l 1106 1304 q 1097 1234 1097 1260 q 1120 1156 1097 1182 q 1194 1102 1142 1130 l 1227 1087 q 1308 1043 1278 1063 q 1361 985 1339 1023 q 1384 891 1384 948 q 1370 809 1384 856 l 1453 809 l 1453 688 l 1302 688 z "},"ॶ":{"ha":1042,"x_min":10,"x_max":1076,"o":"m 10 0 m 925 688 l 925 0 l 778 0 l 778 283 q 684 266 733 266 q 608 276 646 266 q 609 238 609 264 q 543 81 609 141 q 359 21 476 21 q 214 53 274 21 q 111 142 155 85 q 10 300 68 200 l 122 368 q 200 243 170 285 q 267 176 229 201 q 358 151 306 151 q 449 178 418 151 q 479 255 479 205 q 438 346 479 313 q 309 375 398 380 l 276 375 l 276 498 l 316 498 q 442 529 413 498 q 470 602 470 559 q 377 682 470 682 q 240 620 313 682 l 165 722 q 272 786 219 764 q 391 809 325 809 q 544 754 486 809 q 602 613 602 700 q 568 498 602 545 q 477 436 533 451 l 500 425 q 665 385 597 385 q 778 417 726 385 l 778 688 l 675 688 l 675 809 l 1076 809 l 1076 688 l 925 688 m 602 -245 q 365 -94 427 -245 l 462 -35 q 518 -106 486 -83 q 602 -128 550 -128 q 687 -106 655 -128 q 743 -35 719 -83 l 840 -94 q 602 -245 778 -245 z "},"ॷ":{"ha":1042,"x_min":10,"x_max":1076,"o":"m 10 0 m 925 688 l 925 0 l 778 0 l 778 283 q 684 266 733 266 q 608 276 646 266 q 609 238 609 264 q 543 81 609 141 q 359 21 476 21 q 214 53 274 21 q 111 142 155 85 q 10 300 68 200 l 122 368 q 200 243 170 285 q 267 176 229 201 q 358 151 306 151 q 449 178 418 151 q 479 255 479 205 q 438 346 479 313 q 309 375 398 380 l 276 375 l 276 498 l 316 498 q 442 529 413 498 q 470 602 470 559 q 377 682 470 682 q 240 620 313 682 l 165 722 q 272 786 219 764 q 391 809 325 809 q 544 754 486 809 q 602 613 602 700 q 568 498 602 545 q 477 436 533 451 l 500 425 q 665 385 597 385 q 778 417 726 385 l 778 688 l 675 688 l 675 809 l 1076 809 l 1076 688 l 925 688 m 602 -245 q 365 -94 427 -245 l 462 -35 q 518 -106 486 -83 q 602 -128 550 -128 q 687 -106 655 -128 q 743 -35 719 -83 l 840 -94 q 602 -245 778 -245 m 602 -457 q 365 -306 427 -457 l 462 -247 q 518 -318 486 -295 q 602 -340 550 -340 q 687 -318 655 -340 q 743 -247 719 -295 l 840 -306 q 602 -457 778 -457 z "},"ऀ":{"ha":0,"x_min":9,"x_max":523,"o":"m 9 901 m 267 1049 q 320 1029 300 1049 q 340 976 340 1009 q 320 922 340 943 q 267 901 300 901 q 214 921 234 901 q 193 976 193 941 q 214 1029 193 1009 q 267 1049 234 1049 m 266 1234 q 434 1183 368 1234 q 523 1052 500 1132 l 415 1003 q 355 1091 391 1063 q 266 1120 319 1120 q 176 1091 212 1120 q 116 1003 141 1063 l 9 1052 q 97 1183 31 1132 q 266 1234 163 1234 z "},"ँ":{"ha":0,"x_min":-432,"x_max":82,"o":"m -177 1087 q -230 1107 -210 1087 q -250 1160 -250 1127 q -230 1214 -250 1193 q -177 1234 -210 1234 q -123 1214 -144 1234 q -102 1160 -102 1194 q -123 1107 -102 1127 q -177 1087 -144 1087 m -175 901 q -344 952 -278 901 q -432 1083 -410 1003 l -325 1132 q -265 1044 -300 1073 q -175 1016 -229 1016 q -86 1044 -122 1016 q -26 1132 -50 1073 l 82 1083 q -7 952 59 1003 q -175 901 -73 901 z "},"ं":{"ha":0,"x_min":-224,"x_max":-62,"o":"m -144 903 q -201 925 -179 903 q -224 983 -224 948 q -201 1042 -224 1019 q -144 1064 -179 1064 q -85 1042 -108 1064 q -62 983 -62 1019 q -85 925 -62 948 q -144 903 -108 903 z "},"ः":{"ha":314,"x_min":69,"x_max":245,"o":"m 158 427 q 95 452 120 427 q 69 516 69 477 q 95 578 69 554 q 158 602 120 602 q 220 578 196 602 q 245 516 245 554 q 220 452 245 477 q 158 427 196 427 m 158 69 q 95 95 120 69 q 69 158 69 120 q 95 220 69 196 q 158 245 120 245 q 220 220 196 245 q 245 158 245 196 q 220 95 245 120 q 158 69 196 69 z "},"ा":{"ha":370,"x_min":-42,"x_max":411,"o":"m 260 688 l 260 0 l 113 0 l 113 688 l -42 688 l -42 809 l 411 809 l 411 688 l 260 688 z "},"ि":{"ha":361,"x_min":-42,"x_max":1064,"o":"m 392 1144 q 751 1044 582 1144 q 1064 757 920 944 l 905 757 q 668 956 790 889 q 391 1023 547 1023 q 260 991 302 1023 q 217 908 217 960 q 250 809 217 851 l 401 809 l 401 688 l 252 688 l 252 0 l 104 0 l 104 688 l -42 688 l -42 809 l 104 809 q 82 917 82 858 q 162 1081 82 1017 q 392 1144 243 1144 z "},"ी":{"ha":361,"x_min":-312,"x_max":403,"o":"m 260 688 l 260 0 l 113 0 l 113 688 l -42 688 l -42 809 l 106 809 q 19 968 66 925 q -83 1010 -28 1010 q -152 989 -128 1010 q -175 927 -175 967 q -141 829 -175 870 q -64 762 -106 788 l -236 762 q -257 785 -236 759 q -295 850 -278 811 q -312 938 -312 889 q -252 1085 -312 1026 q -83 1144 -191 1144 q 119 1056 38 1144 q 252 809 200 969 l 403 809 l 403 688 l 260 688 z "},"ु":{"ha":0,"x_min":-569,"x_max":-2,"o":"m -321 3 q -260 29 -297 17 q -181 40 -222 40 q -51 -14 -101 40 q -2 -151 -2 -68 q -65 -289 -2 -240 q -231 -339 -128 -339 q -366 -306 -302 -339 q -470 -240 -431 -274 q -569 -146 -510 -205 l -488 -57 q -428 -115 -477 -68 q -328 -189 -378 -163 q -227 -215 -278 -215 q -157 -197 -184 -215 q -130 -151 -130 -179 q -148 -103 -130 -120 q -194 -87 -165 -87 q -246 -97 -219 -87 q -273 -109 -273 -108 l -321 3 z "},"ू":{"ha":0,"x_min":-384,"x_max":191,"o":"m -68 -304 q -194 -339 -125 -339 q -332 -285 -281 -339 q -384 -151 -384 -231 q -325 -14 -384 -64 q -174 36 -266 36 q -30 -16 -102 36 q 89 -125 42 -69 q 191 -255 135 -181 l 97 -330 q -62 -145 -5 -201 q -174 -89 -120 -89 q -236 -104 -214 -89 q -259 -151 -259 -120 q -240 -197 -259 -179 q -193 -215 -222 -215 q -116 -196 -158 -215 l -68 -304 z "},"ृ":{"ha":0,"x_min":12,"x_max":387,"o":"m 214 -387 q 67 -332 122 -387 q 12 -193 12 -276 q 71 -46 12 -99 q 238 7 130 7 l 365 7 l 365 -113 l 231 -113 q 132 -191 132 -113 q 154 -248 132 -227 q 214 -269 175 -269 q 328 -236 273 -269 l 387 -337 q 306 -374 345 -361 q 214 -387 266 -387 z "},"ॄ":{"ha":0,"x_min":35,"x_max":415,"o":"m 247 -599 q 89 -549 144 -599 q 35 -429 35 -500 q 128 -295 35 -333 q 59 -236 83 -274 q 35 -153 35 -198 q 92 -36 35 -80 q 269 9 149 9 l 375 9 l 375 -113 l 276 -113 q 189 -126 217 -113 q 161 -172 161 -139 q 276 -238 161 -238 l 349 -238 l 349 -352 l 276 -352 q 190 -365 220 -352 q 160 -415 160 -378 q 185 -464 160 -448 q 252 -481 210 -481 q 373 -448 318 -481 l 415 -556 q 247 -599 337 -599 z "},"ॢ":{"ha":0,"x_min":35,"x_max":727,"o":"m 727 -583 q 653 -630 691 -613 q 564 -648 615 -648 q 448 -607 490 -648 q 406 -502 406 -566 q 426 -420 406 -453 q 490 -340 446 -387 q 523 -306 498 -332 q 561 -257 549 -281 q 573 -207 573 -233 q 553 -157 573 -175 q 497 -139 533 -139 q 426 -176 450 -139 q 403 -278 403 -214 q 406 -342 403 -307 l 293 -321 q 288 -267 288 -295 q 302 -163 288 -210 q 238 -137 276 -137 q 181 -160 201 -137 q 160 -219 160 -182 q 180 -312 160 -267 q 236 -417 200 -356 l 125 -464 q 61 -340 87 -399 q 35 -210 35 -281 q 89 -75 35 -128 q 240 -21 144 -21 q 365 -66 307 -21 q 503 -21 420 -21 q 648 -76 602 -21 q 693 -203 693 -130 q 669 -295 693 -259 q 595 -384 646 -332 l 571 -410 q 531 -456 543 -439 q 519 -495 519 -472 q 532 -530 519 -517 q 569 -542 545 -542 q 621 -530 599 -542 q 672 -495 642 -517 l 727 -583 z "},"ॣ":{"ha":0,"x_min":35,"x_max":757,"o":"m 757 -828 q 590 -873 675 -873 q 441 -832 488 -873 q 394 -724 394 -790 q 415 -651 394 -684 q 467 -597 436 -618 q 406 -500 406 -566 q 427 -421 406 -457 q 490 -340 448 -385 q 523 -306 498 -332 q 561 -257 549 -281 q 573 -207 573 -233 q 553 -157 573 -175 q 497 -139 533 -139 q 426 -176 450 -139 q 403 -278 403 -214 q 406 -342 403 -307 l 293 -321 q 288 -267 288 -295 q 302 -163 288 -210 q 238 -137 276 -137 q 181 -160 201 -137 q 160 -219 160 -182 q 180 -312 160 -267 q 236 -417 200 -356 l 125 -464 q 61 -340 87 -399 q 35 -210 35 -281 q 89 -75 35 -128 q 240 -21 144 -21 q 365 -66 307 -21 q 503 -21 420 -21 q 648 -76 602 -21 q 693 -203 693 -130 q 669 -295 693 -259 q 595 -384 646 -332 l 571 -410 q 531 -456 543 -439 q 519 -495 519 -472 q 539 -530 519 -517 q 595 -542 559 -542 l 672 -542 l 672 -648 l 622 -648 q 536 -661 566 -648 q 505 -710 505 -674 q 527 -753 505 -738 q 589 -767 549 -767 q 705 -738 646 -767 l 757 -828 z "},"ॅ":{"ha":0,"x_min":-432,"x_max":82,"o":"m -175 901 q -344 952 -278 901 q -432 1083 -410 1003 l -325 1132 q -265 1044 -300 1073 q -175 1016 -229 1016 q -86 1044 -122 1016 q -26 1132 -50 1073 l 82 1083 q -7 952 59 1003 q -175 901 -73 901 z "},"ॆ":{"ha":0,"x_min":17,"x_max":575,"o":"m 432 759 q 400 848 432 821 q 273 875 368 875 q 96 934 167 875 q 17 1113 26 993 l 141 1158 q 176 1046 151 1082 q 253 1003 201 1010 q 311 1000 288 1000 q 498 943 422 1000 q 575 759 575 885 l 432 759 z "},"े":{"ha":0,"x_min":-580,"x_max":-50,"o":"m -363 951 q -413 1003 -394 990 q -458 1017 -432 1017 q -503 1010 -483 1017 q -530 998 -524 1002 l -580 1108 q -556 1119 -575 1111 q -510 1135 -536 1127 q -458 1142 -483 1142 q -356 1115 -398 1142 q -255 1021 -314 1089 l -50 759 l -210 759 l -363 951 z "},"ै":{"ha":0,"x_min":-606,"x_max":-69,"o":"m -368 858 q -410 889 -392 873 q -465 926 -446 915 q -502 938 -484 938 q -541 931 -517 938 q -571 922 -564 925 l -606 1040 q -563 1053 -595 1043 q -502 1063 -531 1063 q -433 1043 -467 1063 q -349 979 -399 1023 q -312 948 -349 979 l -205 856 l -266 983 q -312 1067 -293 1042 q -363 1092 -330 1092 q -402 1088 -378 1092 q -432 1082 -425 1083 l -458 1193 q -421 1203 -450 1196 q -365 1210 -392 1210 q -251 1172 -297 1210 q -172 1043 -205 1134 l -69 759 l -233 759 l -368 858 z "},"ॉ":{"ha":370,"x_min":-71,"x_max":443,"o":"m 0 0 m 260 688 l 260 0 l 113 0 l 113 688 l -42 688 l -42 809 l 411 809 l 411 688 l 260 688 m 186 901 q 17 952 83 901 q -71 1083 -49 1003 l 36 1132 q 96 1044 61 1073 q 186 1016 132 1016 q 275 1044 240 1016 q 335 1132 311 1073 l 443 1083 q 354 952 420 1003 q 186 901 288 901 z "},"ॊ":{"ha":370,"x_min":-300,"x_max":411,"o":"m 260 688 l 260 0 l 113 0 l 113 688 l -42 688 l -42 809 l 109 809 q 64 859 99 844 q -45 875 30 875 q -221 934 -151 875 q -300 1113 -292 993 l -177 1158 q -141 1046 -167 1082 q -64 1003 -116 1010 q -7 1000 -30 1000 q 165 954 92 1000 q 253 809 238 908 l 411 809 l 411 688 l 260 688 z "},"ो":{"ha":370,"x_min":-231,"x_max":411,"o":"m 260 688 l 260 0 l 113 0 l 113 688 l -42 688 l -42 809 l 99 809 l -14 951 q -64 1003 -45 990 q -109 1017 -83 1017 q -155 1010 -134 1017 q -181 998 -175 1002 l -231 1108 q -207 1119 -226 1111 q -161 1135 -187 1127 q -109 1142 -134 1142 q -7 1115 -49 1142 q 94 1021 35 1089 l 259 809 l 411 809 l 411 688 l 260 688 z "},"ौ":{"ha":370,"x_min":-241,"x_max":411,"o":"m 260 688 l 260 0 l 113 0 l 113 688 l -42 688 l -42 809 l 63 809 l -3 858 q -45 889 -26 873 q -101 926 -82 915 q -137 938 -120 938 q -176 931 -153 938 q -207 922 -200 925 l -241 1040 q -199 1053 -231 1043 q -137 1063 -167 1063 q -69 1043 -102 1063 q 16 979 -35 1023 q 52 948 16 979 l 160 856 l 99 983 q 53 1067 71 1042 q 2 1092 35 1092 q -37 1088 -14 1092 q -68 1082 -61 1083 l -94 1193 q -56 1203 -85 1196 q 0 1210 -28 1210 q 114 1172 68 1210 q 193 1043 160 1134 l 278 809 l 411 809 l 411 688 l 260 688 z "},"ऻ":{"ha":370,"x_min":-42,"x_max":411,"o":"m 260 688 l 260 0 l 113 0 l 113 688 l -42 688 l -42 809 l 123 809 l 123 1007 l 252 1007 l 252 809 l 411 809 l 411 688 l 260 688 z "},"ॏ":{"ha":370,"x_min":-352,"x_max":411,"o":"m 260 688 l 260 0 l 113 0 l 113 688 l -42 688 l -42 809 l 63 809 q 14 860 52 845 q -106 875 -24 875 q -277 935 -210 875 q -352 1116 -344 995 l -241 1158 q -213 1049 -231 1085 q -162 999 -194 1012 q -68 986 -130 986 q 101 946 30 986 q 189 809 172 906 l 196 832 q 207 889 207 866 q 182 946 207 925 q 102 995 158 967 q 49 1021 76 1005 q -46 1097 -14 1057 q -78 1215 -78 1137 q -66 1302 -78 1259 l 50 1304 q 42 1234 42 1260 q 64 1156 42 1182 q 139 1102 87 1130 l 172 1087 q 253 1043 222 1063 q 306 985 283 1023 q 328 891 328 948 q 314 809 328 856 l 411 809 l 411 688 l 260 688 z "},"ॕ":{"ha":0,"x_min":10,"x_max":524,"o":"m 267 1040 q 99 1091 165 1040 q 10 1222 33 1142 l 118 1271 q 178 1183 142 1212 q 267 1155 214 1155 q 357 1183 321 1155 q 417 1271 392 1212 l 524 1222 q 436 1091 502 1142 q 267 1040 370 1040 m 17 865 l 17 974 l 514 974 l 514 865 l 17 865 z "},"ऺ":{"ha":0,"x_min":17,"x_max":146,"o":"m 146 764 l 17 764 l 17 1007 l 146 1007 l 146 764 z "},"ॖ":{"ha":0,"x_min":17,"x_max":493,"o":"m 255 -245 q 17 -94 80 -245 l 115 -35 q 171 -106 139 -83 q 255 -128 203 -128 q 339 -106 307 -128 q 396 -35 372 -83 l 493 -94 q 255 -245 431 -245 z "},"ॗ":{"ha":0,"x_min":17,"x_max":493,"o":"m 255 -245 q 17 -94 80 -245 l 115 -35 q 171 -106 139 -83 q 255 -128 203 -128 q 339 -106 307 -128 q 396 -35 372 -83 l 493 -94 q 255 -245 431 -245 m 255 -457 q 17 -306 80 -457 l 115 -247 q 171 -318 139 -295 q 255 -340 203 -340 q 339 -318 307 -340 q 396 -247 372 -295 l 493 -306 q 255 -457 431 -457 z "},"॑":{"ha":0,"x_min":17,"x_max":146,"o":"m 146 764 l 17 764 l 17 1094 l 146 1094 l 146 764 z "},"॒":{"ha":0,"x_min":35,"x_max":745,"o":"m 35 -187 l 35 -69 l 745 -69 l 745 -187 l 35 -187 z "},"्":{"ha":0,"x_min":17,"x_max":453,"o":"m 17 -250 q 202 -283 127 -250 q 354 -410 278 -316 l 453 -326 q 283 -178 382 -236 q 17 -120 184 -120 l 17 -250 z "},"़":{"ha":0,"x_min":-134,"x_max":21,"o":"m -57 -198 q -113 -177 -92 -198 q -134 -122 -134 -156 q -113 -64 -134 -85 q -57 -43 -92 -43 q 0 -64 -21 -43 q 21 -122 21 -85 q 0 -177 21 -156 q -57 -198 -21 -198 z "},"॓":{"ha":0,"x_min":9,"x_max":415,"o":"m 9 899 m 326 899 l 415 1002 l 122 1274 l 9 1146 l 326 899 z "},"॔":{"ha":0,"x_min":9,"x_max":415,"o":"m 9 899 m 97 899 l 415 1146 l 302 1274 l 9 1002 l 97 899 z "},"क":{"ha":1045,"x_min":-42,"x_max":1092,"o":"m 622 571 q 727 590 668 590 q 905 526 837 590 q 974 345 974 462 q 937 200 974 262 q 837 87 899 137 l 738 186 q 808 262 785 229 q 832 347 832 295 q 804 425 832 396 q 720 455 776 455 q 622 425 681 455 l 622 0 l 479 0 l 479 125 q 333 95 417 95 q 148 162 222 95 q 73 342 73 229 q 147 524 73 458 q 333 590 220 590 q 479 559 413 590 l 479 688 l -42 688 l -42 809 l 1092 809 l 1092 688 l 622 688 l 622 571 m 358 224 q 479 262 424 224 l 479 424 q 358 460 431 460 q 252 431 293 460 q 210 342 210 401 q 252 253 210 283 q 358 224 293 224 z "},"ख":{"ha":1080,"x_min":-42,"x_max":1122,"o":"m 967 688 l 967 0 l 819 0 l 819 111 q 705 92 773 92 q 513 158 590 92 q 436 342 436 224 q 510 532 436 465 q 698 599 585 599 q 819 571 757 599 l 819 688 l 359 688 q 408 528 408 622 q 362 378 408 439 q 248 285 316 316 l 458 45 l 351 -43 l 10 356 l 111 441 l 158 387 q 273 531 273 425 q 208 688 273 627 l -42 688 l -42 809 l 1122 809 l 1122 688 l 967 688 m 729 224 q 819 248 776 224 l 819 427 q 712 460 774 460 q 582 342 582 460 q 623 253 582 283 q 729 224 665 224 z "},"ग":{"ha":795,"x_min":-42,"x_max":837,"o":"m 682 688 l 682 0 l 535 0 l 535 688 l 304 688 l 304 130 l 205 130 l 49 344 l 49 417 l 156 417 l 156 688 l -42 688 l -42 809 l 837 809 l 837 688 l 682 688 z "},"घ":{"ha":845,"x_min":-42,"x_max":887,"o":"m 733 688 l 733 0 l 585 0 l 585 156 q 389 106 491 106 q 184 166 262 106 q 106 332 106 226 q 153 446 106 399 q 64 615 64 512 q 78 688 64 655 l -42 688 l -42 809 l 887 809 l 887 688 l 733 688 m 227 688 q 210 615 210 653 q 274 512 210 547 q 396 538 325 528 l 431 411 q 299 378 344 401 q 253 319 253 354 q 292 262 253 283 q 384 241 330 241 q 585 307 491 241 l 585 688 l 227 688 z "},"ङ":{"ha":873,"x_min":-42,"x_max":915,"o":"m 915 688 l 625 688 l 625 477 l 608 465 l 563 470 q 392 484 476 484 q 303 475 328 484 q 278 441 278 465 q 306 401 278 413 q 385 389 333 389 q 429 391 413 389 q 615 348 549 398 q 682 208 682 299 q 609 53 682 111 q 411 -5 536 -5 q 222 36 306 -5 q 66 148 139 76 l 156 245 q 280 156 219 182 q 424 130 340 130 q 510 150 479 130 q 542 201 542 170 q 514 247 542 229 q 417 260 486 266 q 378 259 403 259 q 205 302 271 259 q 139 434 139 345 q 205 566 139 523 q 378 609 271 609 q 493 604 438 609 l 493 688 l -42 688 l -42 809 l 915 809 l 915 688 m 755 490 q 813 469 792 490 q 833 411 833 448 q 813 356 833 377 q 755 335 792 335 q 700 356 720 335 q 679 411 679 377 q 700 469 679 448 q 755 490 720 490 z "},"च":{"ha":854,"x_min":-42,"x_max":896,"o":"m 741 688 l 741 0 l 594 0 l 594 137 q 431 106 528 106 q 241 170 316 106 q 167 342 167 234 q 177 406 167 380 l 38 406 l 38 531 l 484 531 l 484 406 l 330 406 q 314 342 314 382 q 352 266 314 290 q 444 241 389 241 q 594 283 530 241 l 594 688 l -42 688 l -42 809 l 896 809 l 896 688 l 741 688 z "},"छ":{"ha":986,"x_min":-42,"x_max":1028,"o":"m 804 589 q 898 500 863 563 q 934 345 934 438 q 869 144 934 227 q 697 18 804 61 q 470 -24 590 -24 q 288 8 372 -24 q 155 100 205 40 q 106 240 106 160 q 148 368 106 316 q 233 438 189 420 q 156 495 193 450 q 120 597 120 540 q 146 688 120 649 l -42 688 l -42 809 l 1028 809 l 1028 688 l 804 688 l 804 589 m 313 688 q 266 597 266 660 q 441 490 266 490 l 457 490 l 457 380 l 448 380 q 301 351 351 385 q 252 255 252 316 q 313 152 252 193 q 470 111 373 111 q 599 127 542 111 q 526 366 526 247 q 565 513 526 453 q 665 595 604 573 l 665 688 l 313 688 m 722 186 q 799 359 799 252 q 779 446 799 417 q 727 476 759 476 q 678 444 694 476 q 661 361 661 413 q 722 186 661 269 z "},"ज":{"ha":984,"x_min":-42,"x_max":1026,"o":"m 872 688 l 872 0 l 724 0 l 724 387 l 575 387 q 606 271 606 337 q 538 107 606 167 q 366 47 470 47 q 33 391 139 47 l 156 441 q 250 246 203 306 q 363 186 297 186 q 438 213 410 186 q 467 285 467 240 q 356 392 467 392 l 356 507 l 724 507 l 724 688 l -42 688 l -42 809 l 1026 809 l 1026 688 l 872 688 z "},"झ":{"ha":1016,"x_min":-42,"x_max":1057,"o":"m 903 688 l 903 0 l 755 0 l 755 227 q 675 214 710 214 q 616 219 646 214 l 616 208 q 546 56 616 115 q 356 -5 476 -3 l 465 -128 l 344 -207 l 198 19 q 101 75 137 40 q 64 149 64 109 q 96 219 64 198 q 172 240 128 240 l 257 132 q 326 122 288 122 q 440 145 405 122 q 476 201 476 168 q 351 257 476 266 l 314 255 q 144 299 207 255 q 82 434 82 344 q 148 566 82 523 q 321 609 214 609 q 432 604 378 609 l 432 688 l -42 688 l -42 809 l 1057 809 l 1057 688 l 903 688 m 564 688 l 564 477 l 547 465 q 502 472 516 469 q 451 479 495 474 q 335 484 408 484 q 246 475 271 484 q 220 441 220 465 q 260 395 220 406 q 372 387 299 384 q 505 370 453 391 q 571 351 516 366 q 656 335 627 335 q 755 352 712 335 l 755 688 l 564 688 z "},"ञ":{"ha":1002,"x_min":-42,"x_max":1043,"o":"m 889 688 l 889 0 l 741 0 l 741 247 q 689 240 703 240 q 625 247 663 240 q 538 128 601 172 q 392 83 476 83 q 189 166 273 83 q 38 432 106 248 l 165 484 q 269 286 220 344 q 394 227 318 227 q 468 254 443 227 q 493 330 493 281 q 468 395 493 372 q 401 418 443 418 q 364 411 382 418 q 334 398 345 405 q 319 389 323 391 l 259 512 q 410 557 328 557 q 559 509 498 557 q 635 372 620 460 q 689 365 658 365 q 741 373 712 365 l 741 688 l -42 688 l -42 809 l 1043 809 l 1043 688 l 889 688 z "},"ट":{"ha":689,"x_min":-42,"x_max":731,"o":"m 387 424 q 255 386 300 424 q 210 283 210 349 q 256 175 210 215 q 380 135 302 135 q 582 200 477 135 l 642 76 q 530 22 599 47 q 378 -3 462 -3 q 155 77 241 -3 q 68 290 68 158 q 148 486 68 413 q 373 559 227 559 l 441 559 l 441 688 l -42 688 l -42 809 l 731 809 l 731 688 l 573 688 l 573 420 l 557 408 l 510 413 q 387 424 431 424 z "},"ठ":{"ha":795,"x_min":-42,"x_max":837,"o":"m 575 531 q 684 416 641 483 q 727 271 727 349 q 690 140 727 201 q 576 39 653 78 q 387 0 498 0 q 223 37 295 0 q 111 141 151 75 q 71 290 71 207 q 155 482 71 408 q 378 556 238 556 l 441 556 l 441 688 l -42 688 l -42 809 l 837 809 l 837 688 l 575 688 l 575 531 m 384 130 q 532 167 481 130 q 583 267 583 203 q 554 364 583 321 q 481 431 524 406 l 392 431 q 259 393 307 431 q 210 293 210 356 q 256 176 210 222 q 384 130 302 130 z "},"ड":{"ha":752,"x_min":-42,"x_max":793,"o":"m 385 484 q 296 475 321 484 q 271 441 271 465 q 299 401 271 413 q 378 389 326 389 q 422 391 406 389 q 609 348 542 398 q 675 208 675 299 q 602 53 675 111 q 405 -5 530 -5 q 215 36 299 -5 q 59 148 132 76 l 149 245 q 273 156 212 182 q 417 130 333 130 q 503 150 472 130 q 535 201 535 170 q 507 247 535 229 q 410 260 479 266 q 372 259 396 259 q 198 302 264 259 q 132 434 132 345 q 198 566 132 523 q 372 609 264 609 q 486 604 432 609 l 486 688 l -42 688 l -42 809 l 793 809 l 793 688 l 618 688 l 618 477 l 601 465 l 556 470 q 385 484 469 484 z "},"ढ":{"ha":726,"x_min":-42,"x_max":767,"o":"m 370 434 q 253 391 297 434 q 208 280 208 349 q 237 184 208 227 q 318 125 266 141 q 309 193 309 156 q 359 313 309 269 q 476 356 408 356 q 602 311 554 356 q 649 198 649 266 q 569 42 649 92 q 382 -9 490 -9 q 220 30 292 -9 q 109 136 149 68 q 68 290 68 205 q 102 431 68 366 q 203 532 137 495 q 361 569 269 569 q 441 566 396 569 l 441 688 l -42 688 l -42 809 l 767 809 l 767 688 l 573 688 l 573 431 l 557 418 q 482 427 542 420 q 370 434 422 434 m 476 231 q 432 167 432 231 q 444 120 432 144 q 501 146 483 128 q 519 184 519 163 q 507 219 519 207 q 476 231 495 231 z "},"ण":{"ha":1000,"x_min":-42,"x_max":1042,"o":"m 887 688 l 887 0 l 740 0 l 740 688 l 590 688 l 590 394 q 527 202 590 269 q 349 135 464 135 q 166 201 227 135 q 104 394 104 267 l 104 688 l -42 688 l -42 809 l 1042 809 l 1042 688 l 887 688 m 259 688 l 259 451 q 264 352 259 385 q 287 299 269 318 q 347 280 306 280 q 407 299 389 280 q 431 352 425 318 q 436 451 436 385 l 436 688 l 259 688 z "},"त":{"ha":760,"x_min":-42,"x_max":802,"o":"m 648 688 l 648 0 l 500 0 l 500 394 l 375 394 q 248 375 283 394 q 214 307 214 356 q 240 202 214 260 q 296 95 267 144 q 332 33 325 47 l 210 -38 q 105 158 144 71 q 66 321 66 245 q 133 480 66 431 q 332 530 200 530 l 500 530 l 500 688 l -42 688 l -42 809 l 802 809 l 802 688 l 648 688 z "},"थ":{"ha":852,"x_min":52,"x_max":894,"o":"m 740 688 l 740 0 l 592 0 l 592 186 q 398 128 497 128 q 196 188 288 128 q 63 316 104 247 l 85 377 q 163 418 95 382 q 269 503 231 455 q 307 608 307 552 q 289 674 307 646 q 236 703 271 703 q 196 690 208 703 q 184 658 184 677 q 197 622 184 637 q 233 592 210 608 l 163 493 q 82 559 113 521 q 52 658 52 597 q 103 780 52 731 q 240 830 155 830 q 391 760 337 830 q 446 601 446 691 q 399 450 446 510 q 255 314 352 389 q 389 271 314 271 q 503 293 448 271 q 592 358 557 316 l 592 688 l 512 688 l 512 809 l 894 809 l 894 688 l 740 688 z "},"द":{"ha":747,"x_min":-42,"x_max":788,"o":"m 392 424 q 258 386 306 424 q 210 283 210 349 q 256 174 210 215 q 382 132 302 132 q 448 142 417 132 l 408 226 q 426 244 411 231 q 469 270 441 257 q 531 283 497 283 q 614 251 585 283 q 642 174 642 219 q 609 94 642 127 l 715 -76 l 595 -142 l 509 21 q 380 -3 444 -3 q 220 33 292 -3 q 109 136 149 69 q 68 290 68 203 q 149 485 68 411 q 378 559 231 559 l 446 559 l 446 688 l -42 688 l -42 809 l 788 809 l 788 688 l 578 688 l 578 420 l 563 408 l 516 413 q 392 424 436 424 z "},"ध":{"ha":859,"x_min":61,"x_max":901,"o":"m 747 688 l 747 0 l 599 0 l 599 128 q 403 87 509 87 q 197 146 276 87 q 118 306 118 205 q 179 422 118 377 q 95 512 130 458 q 61 641 61 566 q 114 783 61 722 q 264 844 167 844 q 391 798 347 844 q 434 688 434 752 q 416 618 434 649 q 365 552 398 587 l 273 630 q 306 689 306 661 q 295 714 306 705 q 267 724 285 724 q 207 644 207 724 q 243 544 207 583 q 330 483 280 505 q 436 495 391 493 l 462 368 q 315 340 363 356 q 267 293 267 325 q 305 240 267 257 q 398 224 342 224 q 599 278 510 224 l 599 688 l 490 688 l 490 809 l 901 809 l 901 688 l 747 688 z "},"न":{"ha":748,"x_min":-42,"x_max":790,"o":"m 635 688 l 635 0 l 488 0 l 488 333 l 264 333 l 264 165 l 165 165 l 59 396 l 76 469 l 488 469 l 488 688 l -42 688 l -42 809 l 790 809 l 790 688 l 635 688 z "},"ऩ":{"ha":748,"x_min":-42,"x_max":790,"o":"m 635 688 l 635 0 l 488 0 l 488 351 l 264 351 l 264 182 l 165 182 l 59 413 l 76 486 l 488 486 l 488 688 l -42 688 l -42 809 l 790 809 l 790 688 l 635 688 m 302 102 q 359 82 339 102 q 380 24 380 61 q 359 -31 380 -10 q 302 -52 339 -52 q 247 -31 267 -52 q 226 24 226 -10 q 247 82 226 61 q 302 102 267 102 z "},"प":{"ha":781,"x_min":-42,"x_max":823,"o":"m 667 688 l 667 0 l 519 0 l 519 184 q 378 158 444 158 q 178 231 252 158 q 104 413 104 304 l 104 688 l -42 688 l -42 809 l 823 809 l 823 688 l 667 688 m 252 688 l 252 451 q 280 332 252 372 q 375 293 307 293 q 519 321 455 293 l 519 688 l 252 688 z "},"फ":{"ha":1123,"x_min":-42,"x_max":1170,"o":"m 661 563 q 806 599 726 599 q 984 535 915 599 q 1052 354 1052 470 q 1015 208 1052 271 q 915 95 977 146 l 816 194 q 886 271 863 238 q 910 356 910 304 q 882 434 910 405 q 799 464 854 464 q 661 410 745 464 l 661 0 l 519 0 l 519 188 q 378 161 444 161 q 178 230 252 161 q 104 406 104 299 l 104 688 l -42 688 l -42 809 l 1170 809 l 1170 688 l 661 688 l 661 563 m 252 688 l 252 451 q 280 333 252 373 q 375 293 307 293 q 519 321 451 293 l 519 688 l 252 688 z "},"ब":{"ha":755,"x_min":-42,"x_max":797,"o":"m 642 688 l 642 0 l 495 0 l 495 132 q 328 92 424 92 q 140 160 215 92 q 64 342 64 227 q 140 528 64 462 q 328 594 215 594 q 495 552 415 594 l 495 688 l -42 688 l -42 809 l 797 809 l 797 688 l 642 688 m 352 465 q 318 462 342 465 l 495 278 l 495 413 q 352 465 431 465 m 200 342 q 244 250 200 283 q 352 217 288 217 q 406 224 375 217 l 222 411 q 200 342 200 384 z "},"भ":{"ha":924,"x_min":21,"x_max":965,"o":"m 811 688 l 811 0 l 663 0 l 663 227 l 429 227 l 429 71 l 335 71 l 163 285 l 163 358 l 278 358 l 278 538 q 279 585 278 542 q 261 664 280 628 q 207 700 243 700 q 166 683 182 700 q 149 641 149 667 q 171 585 149 608 q 231 540 193 563 l 165 436 q 59 523 97 470 q 21 641 21 575 q 76 779 21 726 q 219 832 130 832 q 378 759 326 832 q 429 538 429 686 l 429 358 l 663 358 l 663 688 l 523 688 l 523 809 l 965 809 l 965 688 l 811 688 z "},"म":{"ha":866,"x_min":-42,"x_max":908,"o":"m 753 688 l 753 0 l 606 0 l 606 240 l 339 240 l 339 89 l 240 89 l 68 302 l 68 375 l 191 375 l 191 688 l -42 688 l -42 809 l 908 809 l 908 688 l 753 688 m 339 688 l 339 375 l 606 375 l 606 688 l 339 688 z "},"य":{"ha":806,"x_min":-42,"x_max":847,"o":"m 693 688 l 693 0 l 545 0 l 545 167 q 394 132 469 132 q 189 188 281 132 q 59 321 97 245 l 82 377 q 174 445 139 408 q 208 543 208 483 q 148 688 208 613 l -42 688 l -42 809 l 847 809 l 847 688 l 693 688 m 304 688 q 358 531 358 608 q 332 423 358 467 q 247 319 307 378 q 385 271 307 271 q 545 318 476 271 l 545 688 l 304 688 z "},"र":{"ha":547,"x_min":-42,"x_max":589,"o":"m 401 688 q 444 528 444 620 q 396 372 444 434 q 274 280 347 309 l 457 47 l 339 -35 l 38 356 l 148 441 l 189 387 q 299 531 299 425 q 238 688 299 627 l -42 688 l -42 809 l 589 809 l 589 688 l 401 688 z "},"ऱ":{"ha":547,"x_min":-42,"x_max":589,"o":"m 0 0 m 401 688 q 444 528 444 620 q 396 372 444 434 q 274 280 347 309 l 457 47 l 339 -35 l 38 356 l 148 441 l 189 387 q 299 531 299 425 q 238 688 299 627 l -42 688 l -42 809 l 589 809 l 589 688 l 401 688 m 47 -45 q -9 -24 12 -45 q -30 31 -30 -3 q -9 89 -30 68 q 47 109 12 109 q 104 89 83 109 q 125 31 125 68 q 104 -24 125 -3 q 47 -45 83 -45 z "},"ल":{"ha":946,"x_min":-42,"x_max":988,"o":"m 833 688 l 833 0 l 688 0 l 688 394 q 637 401 653 401 q 559 370 587 401 q 531 281 531 339 q 536 182 531 234 l 396 205 q 391 293 391 231 q 398 365 391 335 q 319 399 359 399 q 242 372 266 399 q 219 293 219 345 q 271 152 219 229 q 373 21 323 75 l 243 -40 q 196 14 243 -45 q 111 148 149 73 q 73 299 73 222 q 137 475 73 410 q 302 540 201 540 q 465 484 396 540 q 634 536 530 536 q 688 531 658 536 l 688 688 l -42 688 l -42 809 l 988 809 l 988 688 l 833 688 z "},"ळ":{"ha":1031,"x_min":-42,"x_max":1073,"o":"m 795 547 q 916 456 875 526 q 957 290 957 385 q 898 107 957 177 q 727 36 840 36 q 607 71 656 36 q 517 168 557 106 q 420 69 472 101 q 297 38 368 38 q 130 114 188 38 q 73 304 73 189 q 131 487 73 417 q 302 557 189 557 q 423 523 373 557 q 512 425 472 488 q 583 507 547 477 q 665 549 620 536 l 665 688 l -42 688 l -42 809 l 1073 809 l 1073 688 l 795 688 l 795 547 m 313 177 q 379 207 351 177 q 441 297 408 238 q 314 418 378 418 q 243 391 269 418 q 217 306 217 363 q 240 214 217 250 q 313 177 264 177 m 715 175 q 786 203 760 175 q 813 288 813 231 q 789 380 813 344 q 717 417 766 417 q 648 385 679 417 q 589 297 618 354 q 647 209 616 243 q 715 175 677 175 z "},"ऴ":{"ha":1031,"x_min":-42,"x_max":1073,"o":"m 0 0 m 795 547 q 916 456 875 526 q 957 290 957 385 q 898 107 957 177 q 727 36 840 36 q 607 71 656 36 q 517 168 557 106 q 420 69 472 101 q 297 38 368 38 q 130 114 188 38 q 73 304 73 189 q 131 487 73 417 q 302 557 189 557 q 423 523 373 557 q 512 425 472 488 q 583 507 547 477 q 665 549 620 536 l 665 688 l -42 688 l -42 809 l 1073 809 l 1073 688 l 795 688 l 795 547 m 313 177 q 379 207 351 177 q 441 297 408 238 q 314 418 378 418 q 243 391 269 418 q 217 306 217 363 q 240 214 217 250 q 313 177 264 177 m 715 175 q 786 203 760 175 q 813 288 813 231 q 789 380 813 344 q 717 417 766 417 q 648 385 679 417 q 589 297 618 354 q 647 209 616 243 q 715 175 677 175 m 516 -128 q 460 -108 481 -128 q 439 -52 439 -87 q 460 5 439 -16 q 516 26 481 26 q 573 5 552 26 q 594 -52 594 -16 q 573 -108 594 -87 q 516 -128 552 -128 z "},"व":{"ha":740,"x_min":-42,"x_max":781,"o":"m 627 688 l 627 0 l 479 0 l 479 122 q 330 90 410 90 q 141 158 217 90 q 64 342 64 226 q 140 530 64 464 q 330 595 215 595 q 479 563 410 595 l 479 688 l -42 688 l -42 809 l 781 809 l 781 688 l 627 688 m 354 224 q 479 266 424 224 l 479 422 q 354 460 429 460 q 248 431 290 460 q 207 342 207 401 q 248 253 207 283 q 354 224 290 224 z "},"श":{"ha":976,"x_min":52,"x_max":1017,"o":"m 530 587 q 473 396 530 477 q 326 247 417 314 l 507 56 l 408 -40 l 194 203 q 88 246 123 210 q 52 332 52 281 q 79 398 52 370 q 149 434 106 427 l 229 349 q 389 604 399 462 q 362 672 387 644 q 302 700 337 700 q 259 686 274 700 q 243 646 243 672 q 257 602 243 620 q 307 559 271 585 l 238 455 q 137 540 170 495 q 104 648 104 585 q 162 783 104 734 q 302 832 220 832 q 465 766 401 832 q 530 587 530 700 m 863 688 l 863 0 l 715 0 l 715 688 l 589 688 l 589 809 l 1017 809 l 1017 688 l 863 688 z "},"ष":{"ha":797,"x_min":-42,"x_max":839,"o":"m 684 688 l 684 0 l 536 0 l 536 193 q 378 161 453 161 q 178 230 252 161 q 104 406 104 299 l 104 688 l -42 688 l -42 809 l 839 809 l 839 688 l 684 688 m 314 688 l 538 415 l 538 688 l 314 688 m 375 293 q 481 309 434 293 l 247 590 q 252 543 252 569 l 252 451 q 280 333 252 373 q 375 293 307 293 z "},"स":{"ha":943,"x_min":-42,"x_max":984,"o":"m 830 688 l 830 0 l 682 0 l 682 274 q 521 257 599 257 q 314 299 422 257 q 274 278 292 285 l 457 47 l 339 -35 l 38 356 l 148 441 l 189 387 q 272 436 238 401 q 306 531 306 470 q 250 688 306 628 l -42 688 l -42 809 l 984 809 l 984 688 l 830 688 m 405 688 q 444 528 444 620 q 415 401 444 464 q 542 387 460 387 q 682 406 606 387 l 682 688 l 405 688 z "},"ह":{"ha":733,"x_min":-42,"x_max":774,"o":"m 377 472 q 277 461 309 472 q 245 420 245 450 q 280 359 245 387 q 392 377 335 377 q 567 329 500 377 q 634 193 634 281 q 618 122 634 153 q 576 61 602 92 l 470 132 q 481 145 472 135 q 494 167 490 155 q 498 191 498 179 q 399 252 498 245 q 282 221 325 252 q 240 135 240 191 q 326 23 240 61 q 559 -14 413 -14 l 531 -139 q 219 -69 330 -139 q 108 139 108 2 q 160 285 108 224 q 116 352 130 319 q 102 427 102 384 q 365 601 102 601 q 453 594 417 601 l 453 688 l -42 688 l -42 809 l 774 809 l 774 688 l 585 688 l 585 469 l 568 457 l 528 462 q 377 472 444 472 z "},"क़":{"ha":1050,"x_min":-42,"x_max":1092,"o":"m 0 0 m 207 -104 q 151 -83 172 -104 q 130 -28 130 -62 q 151 30 130 9 q 207 50 172 50 q 264 30 243 50 q 285 -28 285 9 q 264 -83 285 -62 q 207 -104 243 -104 m 622 571 q 727 590 668 590 q 905 526 837 590 q 974 345 974 462 q 937 200 974 262 q 837 87 899 137 l 738 186 q 808 262 785 229 q 832 347 832 295 q 804 425 832 396 q 720 455 776 455 q 622 425 681 455 l 622 0 l 479 0 l 479 125 q 333 95 417 95 q 148 162 222 95 q 73 342 73 229 q 147 524 73 458 q 333 590 220 590 q 479 559 413 590 l 479 688 l -42 688 l -42 809 l 1092 809 l 1092 688 l 622 688 l 622 571 m 358 224 q 479 262 424 224 l 479 424 q 358 460 431 460 q 252 431 293 460 q 210 342 210 401 q 252 253 210 283 q 358 224 293 224 z "},"ख़":{"ha":1080,"x_min":-42,"x_max":1139,"o":"m 984 688 l 984 0 l 837 0 l 837 111 q 722 92 790 92 q 530 158 608 92 q 453 342 453 224 q 528 532 453 465 q 715 599 602 599 q 837 571 774 599 l 837 688 l 377 688 q 425 528 425 622 q 379 378 425 439 q 266 285 333 316 l 476 45 l 368 -43 l 28 356 l 128 441 l 175 387 q 290 531 290 425 q 226 688 290 627 l -42 688 l -42 809 l 1139 809 l 1139 688 l 984 688 m 747 224 q 837 248 793 224 l 837 427 q 729 460 792 460 q 599 342 599 460 q 641 253 599 283 q 747 224 682 224 m 76 132 q 134 111 113 132 q 155 54 155 90 q 134 -2 155 19 q 76 -23 113 -23 q 21 -2 42 -23 q 0 54 0 19 q 21 111 0 90 q 76 132 42 132 z "},"ग़":{"ha":795,"x_min":-42,"x_max":837,"o":"m 682 688 l 682 0 l 535 0 l 535 688 l 304 688 l 304 193 l 205 193 l 49 406 l 49 479 l 156 479 l 156 688 l -42 688 l -42 809 l 837 809 l 837 688 l 682 688 m 337 120 q 394 99 373 120 q 415 42 415 78 q 394 -14 415 7 q 337 -35 373 -35 q 281 -14 302 -35 q 260 42 260 7 q 281 99 260 78 q 337 120 302 120 z "},"ज़":{"ha":984,"x_min":-42,"x_max":1026,"o":"m 872 688 l 872 0 l 724 0 l 724 424 l 575 424 q 604 307 604 373 q 536 146 604 205 q 366 87 469 87 q 168 175 248 87 q 36 429 87 264 l 156 477 q 252 283 203 344 q 366 222 300 222 q 440 249 413 222 q 467 321 467 276 q 356 429 467 429 l 356 543 l 724 543 l 724 688 l -42 688 l -42 809 l 1026 809 l 1026 688 l 872 688 m 274 26 q 332 5 311 26 q 352 -52 352 -16 q 332 -108 352 -87 q 274 -128 311 -128 q 219 -108 240 -128 q 198 -52 198 -87 q 219 5 198 -16 q 274 26 240 26 z "},"ड़":{"ha":752,"x_min":-42,"x_max":793,"o":"m 0 0 m 385 484 q 296 475 321 484 q 271 441 271 465 q 299 401 271 413 q 378 389 326 389 q 422 391 406 389 q 609 348 542 398 q 675 208 675 299 q 602 53 675 111 q 405 -5 530 -5 q 215 36 299 -5 q 59 148 132 76 l 149 245 q 273 156 212 182 q 417 130 333 130 q 503 150 472 130 q 535 201 535 170 q 507 247 535 229 q 410 260 479 266 q 372 259 396 259 q 198 302 264 259 q 132 434 132 345 q 198 566 132 523 q 372 609 264 609 q 486 604 432 609 l 486 688 l -42 688 l -42 809 l 793 809 l 793 688 l 618 688 l 618 477 l 601 465 l 556 470 q 385 484 469 484 m 368 -219 q 313 -198 333 -219 q 292 -142 292 -177 q 313 -85 292 -106 q 368 -64 333 -64 q 425 -85 405 -64 q 446 -142 446 -106 q 425 -198 446 -177 q 368 -219 405 -219 z "},"ढ़":{"ha":726,"x_min":-42,"x_max":767,"o":"m 0 0 m 370 434 q 253 391 297 434 q 208 280 208 349 q 237 184 208 227 q 318 125 266 141 q 309 193 309 156 q 359 313 309 269 q 476 356 408 356 q 602 311 554 356 q 649 198 649 266 q 569 42 649 92 q 382 -9 490 -9 q 220 30 292 -9 q 109 136 149 68 q 68 290 68 205 q 102 431 68 366 q 203 532 137 495 q 361 569 269 569 q 441 566 396 569 l 441 688 l -42 688 l -42 809 l 767 809 l 767 688 l 573 688 l 573 431 l 557 418 q 482 427 542 420 q 370 434 422 434 m 476 231 q 432 167 432 231 q 444 120 432 144 q 501 146 483 128 q 519 184 519 163 q 507 219 519 207 q 476 231 495 231 m 358 -222 q 302 -201 323 -222 q 281 -146 281 -181 q 302 -89 281 -109 q 358 -68 323 -68 q 415 -89 394 -68 q 436 -146 436 -109 q 415 -201 436 -181 q 358 -222 394 -222 z "},"फ़":{"ha":1128,"x_min":-42,"x_max":1175,"o":"m 667 557 q 811 594 731 594 q 989 530 920 594 q 1057 349 1057 465 q 1020 203 1057 266 q 920 90 983 141 l 821 189 q 891 266 868 233 q 915 351 915 299 q 887 429 915 399 q 804 458 859 458 q 667 405 750 458 l 667 0 l 519 0 l 519 214 q 378 188 444 188 q 178 256 252 188 q 104 432 104 325 l 104 688 l -42 688 l -42 809 l 1175 809 l 1175 688 l 667 688 l 667 557 m 252 688 l 252 477 q 280 359 252 399 q 375 319 307 319 q 519 347 451 319 l 519 688 l 252 688 m 260 137 q 318 116 297 137 q 339 59 339 95 q 318 3 339 24 q 260 -17 297 -17 q 205 3 226 -17 q 184 59 184 24 q 205 116 184 95 q 260 137 226 137 z "},"य़":{"ha":806,"x_min":-42,"x_max":847,"o":"m 0 0 m 179 -61 q 123 -40 144 -61 q 102 16 102 -19 q 123 73 102 52 q 179 94 144 94 q 236 73 215 94 q 257 16 257 52 q 236 -40 257 -19 q 179 -61 215 -61 m 693 688 l 693 0 l 545 0 l 545 167 q 394 132 469 132 q 189 188 281 132 q 59 321 97 245 l 82 377 q 174 445 139 408 q 208 543 208 483 q 148 688 208 613 l -42 688 l -42 809 l 847 809 l 847 688 l 693 688 m 304 688 q 358 531 358 608 q 332 423 358 467 q 247 319 307 378 q 385 271 307 271 q 545 318 476 271 l 545 688 l 304 688 z "},"ॹ":{"ha":984,"x_min":-42,"x_max":1026,"o":"m 872 688 l 872 0 l 724 0 l 724 387 l 575 387 q 606 271 606 337 q 538 107 606 167 q 366 47 470 47 q 33 391 139 47 l 156 441 q 250 246 203 306 q 363 186 297 186 q 438 213 410 186 q 467 285 467 240 q 356 392 467 392 l 356 507 l 724 507 l 724 688 l -42 688 l -42 809 l 1026 809 l 1026 688 l 872 688 m 318 -73 q 298 -124 318 -104 q 245 -144 278 -144 q 194 -124 214 -144 q 174 -73 174 -104 q 194 -20 174 -40 q 245 0 214 0 q 298 -20 278 0 q 318 -73 318 -40 m 453 0 q 506 -20 486 0 q 526 -73 526 -40 q 506 -124 526 -104 q 453 -144 486 -144 q 402 -124 422 -144 q 382 -73 382 -104 q 402 -20 382 -40 q 453 0 422 0 m 347 -156 q 400 -176 380 -156 q 420 -229 420 -196 q 400 -280 420 -260 q 347 -300 380 -300 q 296 -280 316 -300 q 276 -229 276 -260 q 296 -176 276 -196 q 347 -156 316 -156 z "},"ॻ":{"ha":795,"x_min":-42,"x_max":837,"o":"m 682 688 l 682 -120 l 78 -120 l 78 0 l 535 0 l 535 688 l 304 688 l 304 130 l 205 130 l 49 344 l 49 417 l 156 417 l 156 688 l -42 688 l -42 809 l 837 809 l 837 688 l 682 688 z "},"ॼ":{"ha":984,"x_min":-42,"x_max":1026,"o":"m 872 688 l 872 -120 l 59 -120 l 59 0 l 724 0 l 724 417 l 575 417 q 606 300 606 366 q 538 136 606 196 q 366 76 470 76 q 33 420 139 76 l 156 470 q 250 275 203 335 q 363 215 297 215 q 438 242 410 215 q 467 314 467 269 q 356 422 467 422 l 356 536 l 724 536 l 724 688 l -42 688 l -42 809 l 1026 809 l 1026 688 l 872 688 z "},"ॾ":{"ha":752,"x_min":-42,"x_max":793,"o":"m 385 484 q 296 475 321 484 q 271 441 271 465 q 299 401 271 413 q 378 389 326 389 q 422 391 406 389 q 609 348 542 398 q 675 208 675 299 q 602 53 675 111 q 405 -5 530 -5 q 215 36 299 -5 q 59 148 132 76 l 149 245 q 273 156 212 182 q 417 130 333 130 q 503 150 472 130 q 535 201 535 170 q 507 247 535 229 q 410 260 479 266 q 372 259 396 259 q 198 302 264 259 q 132 434 132 345 q 198 566 132 523 q 372 609 264 609 q 486 604 432 609 l 486 688 l -42 688 l -42 809 l 793 809 l 793 688 l 618 688 l 618 477 l 601 465 l 556 470 q 385 484 469 484 m 632 -69 l 632 -189 l 115 -189 l 115 -69 l 632 -69 z "},"ॿ":{"ha":755,"x_min":-42,"x_max":797,"o":"m 642 688 l 642 -120 l 73 -120 l 73 0 l 495 0 l 495 134 q 328 94 424 94 q 140 161 215 94 q 64 344 64 229 q 140 530 64 464 q 328 595 215 595 q 495 554 415 595 l 495 688 l -42 688 l -42 809 l 797 809 l 797 688 l 642 688 m 352 467 q 318 464 342 467 l 495 280 l 495 415 q 352 467 431 467 m 200 344 q 244 252 200 285 q 352 219 288 219 q 406 226 375 219 l 222 413 q 200 344 200 385 z "},"ॸ":{"ha":752,"x_min":-42,"x_max":793,"o":"m 339 460 l 446 460 q 641 407 569 460 q 712 250 712 354 q 690 120 712 184 q 625 -30 668 56 l 490 45 q 538 150 521 106 q 556 229 556 194 q 541 294 556 274 q 495 319 526 314 q 399 325 464 325 l 339 325 l 339 174 l 240 174 l 68 387 l 68 460 l 191 460 l 191 688 l -42 688 l -42 809 l 793 809 l 793 688 l 339 688 l 339 460 z "},"०":{"ha":628,"x_min":35,"x_max":594,"o":"m 594 385 q 516 174 594 252 q 316 95 439 95 q 113 173 191 95 q 35 385 35 250 q 113 598 35 521 q 316 675 191 675 q 517 598 441 675 q 594 385 594 521 m 458 384 q 421 501 458 458 q 314 543 384 543 q 210 501 247 543 q 174 384 174 458 q 210 265 174 307 q 314 222 247 222 q 420 265 382 222 q 458 384 458 307 z "},"१":{"ha":521,"x_min":61,"x_max":486,"o":"m 486 575 q 422 395 486 470 q 226 238 358 319 l 453 43 l 365 -52 l 75 205 l 99 309 q 217 382 188 359 q 101 479 141 427 q 61 604 61 531 q 116 753 61 698 q 273 809 172 809 q 428 746 370 809 q 486 575 486 682 m 269 686 q 214 664 236 686 q 193 608 193 642 q 225 536 193 568 q 318 472 257 503 q 354 573 354 519 q 332 655 354 623 q 269 686 309 686 z "},"२":{"ha":623,"x_min":42,"x_max":571,"o":"m 571 540 q 365 238 571 344 l 559 52 l 460 -36 l 224 203 q 108 240 149 201 q 66 326 66 278 q 94 393 66 366 q 170 425 122 420 l 267 332 q 385 410 335 359 q 434 538 434 460 q 402 647 434 611 q 292 682 370 682 q 115 609 207 682 l 42 715 q 156 783 95 757 q 299 809 217 809 q 496 740 420 809 q 571 540 571 670 z "},"३":{"ha":601,"x_min":42,"x_max":549,"o":"m 549 285 q 497 166 549 217 q 356 101 446 115 l 464 3 l 356 -75 l 210 101 q 96 153 141 116 q 52 238 52 189 q 73 290 52 267 q 149 313 94 313 l 243 205 q 274 203 253 203 q 378 229 344 203 q 411 293 411 255 q 366 373 411 352 q 234 394 321 394 l 200 394 l 200 517 l 234 517 q 392 604 392 517 q 366 668 392 655 q 295 682 340 682 q 204 663 243 682 q 115 609 165 644 l 42 715 q 161 784 102 759 q 299 809 219 809 q 467 761 405 809 q 530 622 530 714 q 490 516 530 557 q 378 457 450 474 q 504 406 460 451 q 549 285 549 361 z "},"४":{"ha":658,"x_min":33,"x_max":623,"o":"m 441 377 q 536 287 503 330 q 568 188 568 245 q 505 49 568 99 q 328 0 443 0 q 151 49 214 0 q 89 188 89 99 q 121 287 89 245 q 215 377 153 330 q 77 498 122 441 q 33 644 33 556 q 46 726 33 693 q 87 800 59 759 l 205 734 q 178 686 188 705 q 168 644 168 667 q 182 580 168 606 q 227 530 196 554 q 328 455 257 505 q 430 530 399 505 q 474 580 460 554 q 488 644 488 606 q 478 686 488 667 q 451 734 469 705 l 569 800 q 610 726 597 759 q 623 644 623 693 q 579 498 623 556 q 441 377 535 441 m 328 125 q 399 141 368 125 q 431 188 431 156 q 405 245 431 219 q 328 304 378 271 q 252 245 278 271 q 226 188 226 219 q 257 141 226 156 q 328 125 288 125 z "},"५":{"ha":628,"x_min":43,"x_max":618,"o":"m 420 194 q 304 174 366 174 q 108 244 172 174 q 43 432 43 314 q 75 602 43 524 q 172 800 106 681 l 297 743 q 209 569 236 632 q 182 438 182 505 q 212 344 182 382 q 302 306 241 306 q 385 319 344 306 l 359 411 q 457 448 405 448 q 534 418 507 448 q 561 342 561 387 q 530 255 561 292 l 618 9 l 488 -30 l 420 194 z "},"६":{"ha":597,"x_min":42,"x_max":575,"o":"m 413 113 q 286 97 351 97 q 110 151 179 97 q 42 285 42 205 q 86 410 42 363 q 212 462 130 457 q 61 622 61 498 q 123 761 61 714 q 292 809 186 809 q 422 792 368 809 q 526 740 476 774 l 467 632 q 295 682 392 682 q 224 668 250 682 q 198 604 198 655 q 356 523 198 523 l 391 523 l 391 399 l 356 399 q 223 377 267 399 q 179 293 179 354 q 211 231 179 255 q 302 207 243 207 q 382 215 344 207 l 356 302 q 444 319 403 319 q 521 296 493 319 q 549 234 549 273 q 509 153 549 184 l 575 -5 l 460 -43 l 413 113 z "},"७":{"ha":811,"x_min":35,"x_max":776,"o":"m 531 720 q 710 629 644 720 q 776 380 776 538 q 739 199 776 285 q 619 59 701 113 q 410 5 536 5 q 134 122 233 5 q 35 425 35 238 q 66 628 35 542 q 139 790 97 714 l 260 733 q 196 595 222 665 q 170 427 170 524 q 235 216 170 295 q 408 137 300 137 q 558 183 498 137 q 635 311 618 229 q 538 293 583 293 q 372 354 431 293 q 314 510 314 415 q 375 661 314 602 q 531 720 436 720 m 451 507 q 474 444 451 469 q 538 420 497 420 q 641 441 599 420 q 608 548 635 509 q 536 587 580 587 q 473 564 495 587 q 451 507 451 542 z "},"८":{"ha":557,"x_min":35,"x_max":561,"o":"m 561 68 q 441 20 502 40 q 309 0 380 0 q 106 69 177 0 q 35 260 35 139 q 95 455 35 359 q 231 622 155 550 q 408 773 307 693 l 444 802 l 533 710 l 493 677 q 333 539 398 599 q 221 406 269 479 q 174 262 174 333 q 209 164 174 198 q 311 130 245 130 q 502 186 396 130 l 561 68 z "},"९":{"ha":523,"x_min":36,"x_max":462,"o":"m 361 399 q 438 305 413 351 q 462 194 462 259 q 439 93 462 135 q 378 19 417 50 q 267 -57 339 -12 l 181 50 q 291 129 260 101 q 321 194 321 158 q 293 275 321 241 q 232 336 266 309 q 186 372 198 363 q 75 481 113 429 q 36 604 36 533 q 92 752 36 694 q 247 809 148 809 q 405 756 349 809 q 460 608 460 703 q 433 497 460 547 q 361 399 406 448 m 174 604 q 194 544 174 569 q 260 484 215 519 q 308 541 292 512 q 325 606 325 569 q 303 658 325 637 q 247 679 281 679 q 194 655 215 679 q 174 604 174 632 z "},"ॽ":{"ha":872,"x_min":156,"x_max":733,"o":"m 733 554 q 648 740 733 675 q 434 806 563 806 q 297 789 363 806 q 156 738 231 773 l 208 599 q 418 660 319 660 q 537 628 500 660 q 575 549 575 595 q 513 429 575 474 q 314 354 451 384 l 314 0 l 472 0 l 472 255 q 668 367 602 299 q 733 554 733 436 z "},"।":{"ha":477,"x_min":243,"x_max":391,"o":"m 391 -87 l 243 -87 l 243 839 l 391 839 l 391 -87 z "},"॥":{"ha":781,"x_min":243,"x_max":694,"o":"m 243 0 m 391 -87 l 243 -87 l 243 839 l 391 839 l 391 -87 m 694 -87 l 547 -87 l 547 839 l 694 839 l 694 -87 z "},"॰":{"ha":528,"x_min":9,"x_max":458,"o":"m 234 128 q 122 159 174 128 q 39 241 69 189 q 9 354 9 293 q 39 466 9 415 q 122 548 69 517 q 234 578 174 578 q 346 548 295 578 q 428 466 398 517 q 458 354 458 415 q 428 241 458 293 q 346 159 398 189 q 234 128 295 128 m 234 259 q 303 286 276 259 q 330 356 330 314 q 303 424 330 396 q 234 451 276 451 q 165 424 193 451 q 137 356 137 396 q 165 286 137 314 q 234 259 193 259 z "},"ॱ":{"ha":403,"x_min":104,"x_max":299,"o":"m 201 653 q 133 681 161 653 q 104 750 104 710 q 133 819 104 790 q 201 847 161 847 q 270 819 241 847 q 299 750 299 790 q 270 681 299 710 q 201 653 241 653 z "},"ॐ":{"ha":1042,"x_min":10,"x_max":1172,"o":"m 830 819 q 783 837 800 819 q 766 882 766 854 q 784 929 766 911 q 830 946 802 946 q 877 929 859 946 q 894 882 894 911 q 877 837 894 854 q 830 819 859 819 m 832 660 q 689 702 745 660 q 609 816 634 745 l 701 858 q 753 781 722 806 q 832 757 785 757 q 908 781 877 757 q 960 858 939 806 l 1052 816 q 976 703 1033 747 q 832 660 918 660 m 983 609 q 1123 530 1075 609 q 1172 330 1172 450 q 1116 152 1172 222 q 965 82 1061 82 q 832 128 884 82 q 747 267 780 175 q 670 252 714 252 q 608 259 634 252 l 609 238 q 543 81 609 141 q 359 21 476 21 q 214 53 274 21 q 111 142 155 85 q 10 300 68 200 l 122 368 q 200 243 170 285 q 267 176 229 201 q 358 151 306 151 q 449 178 418 151 q 479 255 479 205 q 438 346 479 313 q 309 375 398 380 l 276 375 l 276 498 l 316 498 q 442 529 413 498 q 470 602 470 559 q 377 682 470 682 q 240 620 313 682 l 165 722 q 272 786 219 764 q 391 809 325 809 q 544 754 486 809 q 602 613 602 700 q 568 498 602 545 q 477 436 533 451 q 577 383 543 396 q 651 370 611 370 q 729 391 698 370 q 788 450 760 411 l 814 488 q 888 580 854 550 q 983 609 922 609 m 964 200 q 1027 235 1002 200 q 1052 330 1052 271 q 977 477 1052 477 q 944 464 957 477 q 908 418 931 451 q 844 335 868 361 q 892 236 865 273 q 964 200 920 200 z "},"*":{"ha":819,"x_min":104,"x_max":715,"o":"m 356 753 l 189 891 l 104 738 l 307 665 l 108 589 l 193 439 l 356 575 l 321 363 l 493 363 l 465 575 l 627 438 l 715 587 l 514 660 l 712 738 l 623 891 l 464 753 l 493 967 l 321 967 l 356 753 z "},"\\":{"ha":559,"x_min":52,"x_max":550,"o":"m 406 -95 l 550 -95 l 194 990 l 52 990 l 406 -95 z "},"•":{"ha":929,"x_min":234,"x_max":694,"o":"m 465 234 q 580 266 528 234 q 663 350 632 297 q 694 465 694 403 q 664 581 694 528 q 581 664 634 634 q 465 694 528 694 q 350 663 403 694 q 266 580 297 632 q 234 465 234 528 q 266 350 234 403 q 350 266 297 297 q 465 234 403 234 z "},":":{"ha":410,"x_min":111,"x_max":299,"o":"m 205 377 q 138 404 165 377 q 111 470 111 431 q 138 537 111 510 q 205 564 165 564 q 272 537 245 564 q 299 470 299 510 q 272 404 299 431 q 205 377 245 377 m 205 -19 q 138 8 165 -19 q 111 75 111 35 q 138 141 111 115 q 205 168 165 168 q 272 141 245 168 q 299 75 299 115 q 272 8 299 35 q 205 -19 245 -19 z "},",":{"ha":370,"x_min":50,"x_max":255,"o":"m 128 -16 q 77 20 97 -7 q 57 80 57 47 q 86 151 57 123 q 156 179 115 179 q 228 146 201 179 q 255 52 255 113 q 215 -71 255 -14 q 106 -198 175 -128 l 50 -161 l 128 -16 z "},"…":{"ha":960,"x_min":95,"x_max":865,"o":"m 189 -19 q 122 8 149 -19 q 95 75 95 35 q 122 141 95 115 q 189 168 149 168 q 256 141 229 168 q 283 75 283 115 q 256 8 283 35 q 189 -19 229 -19 m 479 -19 q 412 8 439 -19 q 385 75 385 35 q 412 141 385 115 q 479 168 439 168 q 546 141 519 168 q 573 75 573 115 q 546 8 573 35 q 479 -19 519 -19 m 771 -19 q 704 8 731 -19 q 677 75 677 35 q 704 141 677 115 q 771 168 731 168 q 838 141 811 168 q 865 75 865 115 q 838 8 865 35 q 771 -19 811 -19 z "},"!":{"ha":361,"x_min":139,"x_max":309,"o":"m 288 156 l 158 156 l 144 856 l 304 856 l 288 156 m 224 -99 q 163 -75 188 -99 q 139 -14 139 -50 q 163 47 139 23 q 224 71 188 71 q 285 47 260 71 q 309 -14 309 23 q 285 -75 309 -50 q 224 -99 260 -99 z "},"¡":{"ha":361,"x_min":52,"x_max":222,"o":"m 137 839 q 198 814 174 839 q 222 753 222 790 q 198 693 222 717 q 137 668 174 668 q 76 693 101 668 q 52 753 52 717 q 76 814 52 790 q 137 839 101 839 m 201 583 l 217 -116 l 57 -116 l 71 583 l 201 583 z "},"#":{"ha":905,"x_min":45,"x_max":859,"o":"m 45 620 l 45 495 l 243 495 l 243 311 l 47 311 l 47 186 l 243 186 l 243 -64 l 373 -64 l 373 186 l 528 186 l 528 -64 l 660 -64 l 660 186 l 859 186 l 859 311 l 660 311 l 660 495 l 859 495 l 859 620 l 660 620 l 660 858 l 528 858 l 528 620 l 373 620 l 373 858 l 243 858 l 243 620 l 45 620 m 528 495 l 528 311 l 373 311 l 373 495 l 528 495 z "},".":{"ha":319,"x_min":61,"x_max":259,"o":"m 160 -19 q 90 10 120 -19 q 61 80 61 40 q 90 149 61 120 q 160 179 120 179 q 229 149 200 179 q 259 80 259 120 q 229 10 259 40 q 160 -19 200 -19 z "},"·":{"ha":398,"x_min":95,"x_max":302,"o":"m 200 391 q 126 421 156 391 q 95 495 95 451 q 126 568 95 538 q 200 597 156 597 q 273 568 243 597 q 302 495 302 538 q 273 421 302 451 q 200 391 243 391 z "},"?":{"ha":750,"x_min":122,"x_max":698,"o":"m 698 620 q 613 806 698 741 q 399 872 528 872 q 262 855 328 872 q 122 804 196 839 l 174 665 q 384 726 285 726 q 503 694 465 726 q 540 615 540 661 q 515 532 540 566 q 436 453 490 498 q 356 377 387 411 q 303 288 325 342 q 281 160 281 234 l 281 132 l 441 132 l 441 160 q 471 279 441 234 q 564 377 502 323 q 635 444 609 415 q 680 516 661 472 q 698 620 698 561 m 363 -135 q 295 -108 323 -135 q 267 -40 267 -80 q 295 28 267 0 q 363 56 323 56 q 431 28 403 56 q 458 -40 458 0 q 431 -108 458 -80 q 363 -135 403 -135 z "},"¿":{"ha":750,"x_min":52,"x_max":628,"o":"m 387 839 q 455 811 427 839 q 483 743 483 783 q 455 675 483 703 q 387 648 427 648 q 319 675 347 648 q 292 743 292 703 q 319 811 292 783 q 387 839 347 839 m 52 83 q 137 -103 52 -38 q 351 -168 222 -168 q 488 -152 422 -168 q 628 -101 554 -135 l 576 38 q 366 -23 465 -23 q 247 10 285 -23 q 210 89 210 42 q 235 171 210 137 q 314 250 260 205 q 394 326 363 292 q 447 415 425 361 q 469 543 469 469 l 469 571 l 309 571 l 309 543 q 279 424 309 469 q 186 326 248 380 q 115 260 141 288 q 70 187 89 231 q 52 83 52 142 z "},"\"":{"ha":495,"x_min":64,"x_max":429,"o":"m 68 651 m 69 892 q 82 955 64 929 q 142 981 101 981 q 202 955 184 981 q 215 892 220 929 l 186 651 l 99 651 l 69 892 m 278 892 q 291 955 273 929 q 351 981 309 981 q 411 955 392 981 q 424 892 429 929 l 394 651 l 307 651 l 278 892 z "},"'":{"ha":286,"x_min":64,"x_max":220,"o":"m 69 892 q 82 955 64 929 q 142 981 101 981 q 202 955 184 981 q 215 892 220 929 l 186 651 l 99 651 l 69 892 z "},";":{"ha":410,"x_min":99,"x_max":299,"o":"m 205 377 q 138 404 165 377 q 111 470 111 431 q 138 537 111 510 q 205 564 165 564 q 272 537 245 564 q 299 470 299 510 q 272 404 299 431 q 205 377 245 377 m 177 -16 q 128 17 146 -7 q 111 75 111 42 q 137 143 111 118 q 205 168 163 168 q 273 140 248 168 q 299 61 299 111 q 260 -68 299 -9 q 155 -198 220 -127 l 99 -161 l 177 -16 z "},"/":{"ha":561,"x_min":9,"x_max":509,"o":"m 151 -95 l 509 990 l 366 990 l 9 -95 l 151 -95 z "},"_":{"ha":785,"x_min":104,"x_max":681,"o":"m 681 -144 l 681 -43 l 104 -43 l 104 -144 l 681 -144 z "},"{":{"ha":543,"x_min":43,"x_max":517,"o":"m 43 443 q 164 493 122 453 q 207 602 207 533 l 207 736 q 286 953 207 878 q 483 1043 365 1028 l 517 906 q 418 875 451 891 q 363 819 384 859 q 342 696 342 778 l 342 582 q 217 372 342 457 q 342 161 342 286 l 342 47 q 363 -76 342 -35 q 418 -132 384 -116 q 517 -163 451 -148 l 483 -300 q 286 -210 365 -285 q 207 7 207 -135 l 207 141 q 164 250 207 210 q 43 300 122 290 l 43 443 z "},"}":{"ha":543,"x_min":26,"x_max":500,"o":"m 500 300 q 379 250 422 290 q 337 141 337 210 l 337 7 q 258 -210 337 -135 q 61 -300 179 -285 l 26 -163 q 126 -132 92 -148 q 181 -76 160 -116 q 201 47 201 -35 l 201 161 q 326 372 201 286 q 201 582 201 457 l 201 696 q 181 819 201 778 q 126 875 160 859 q 26 906 92 891 l 61 1043 q 258 953 179 1028 q 337 736 337 878 l 337 602 q 379 493 337 533 q 500 443 422 453 l 500 300 z "},"[":{"ha":510,"x_min":92,"x_max":418,"o":"m 92 1061 l 418 1061 l 418 931 l 233 931 l 233 -137 l 418 -137 l 418 -267 l 92 -267 l 92 1061 z "},"]":{"ha":510,"x_min":92,"x_max":418,"o":"m 278 -137 l 278 931 l 92 931 l 92 1061 l 418 1061 l 418 -267 l 92 -267 l 92 -137 l 278 -137 z "},"(":{"ha":464,"x_min":92,"x_max":411,"o":"m 243 385 q 288 87 243 248 q 411 -212 340 -89 l 307 -267 q 92 389 92 80 q 306 1047 92 703 l 411 990 q 288 691 340 866 q 243 385 243 530 z "},")":{"ha":464,"x_min":52,"x_max":372,"o":"m 220 385 q 175 691 220 530 q 52 990 123 866 l 158 1047 q 372 389 372 703 q 156 -267 372 80 l 52 -212 q 175 87 123 -89 q 220 385 220 248 z "},"—":{"ha":1087,"x_min":52,"x_max":1000,"o":"m 1000 313 l 52 313 l 52 429 l 1000 429 l 1000 313 z "},"–":{"ha":722,"x_min":52,"x_max":635,"o":"m 635 313 l 52 313 l 52 429 l 635 429 l 635 313 z "},"-":{"ha":566,"x_min":52,"x_max":479,"o":"m 479 313 l 52 313 l 52 429 l 479 429 l 479 313 z "},"­":{"ha":531,"x_min":52,"x_max":479,"o":"m 52 313 m 479 313 l 52 313 l 52 429 l 479 429 l 479 313 z "},"«":{"ha":703,"x_min":50,"x_max":668,"o":"m 50 139 m 247 139 l 401 139 l 196 418 l 401 701 l 247 701 l 50 418 l 247 139 m 514 139 l 668 139 l 464 418 l 668 701 l 514 701 l 318 418 l 514 139 z "},"»":{"ha":703,"x_min":35,"x_max":653,"o":"m 35 139 m 240 418 l 35 139 l 189 139 l 385 418 l 189 701 l 35 701 l 240 418 m 507 418 l 302 139 l 457 139 l 653 418 l 457 701 l 302 701 l 507 418 z "},"‹":{"ha":436,"x_min":50,"x_max":401,"o":"m 247 139 l 401 139 l 196 418 l 401 701 l 247 701 l 50 418 l 247 139 z "},"›":{"ha":436,"x_min":35,"x_max":385,"o":"m 240 418 l 35 139 l 189 139 l 385 418 l 189 701 l 35 701 l 240 418 z "},"„":{"ha":592,"x_min":104,"x_max":540,"o":"m 104 0 m 214 179 q 282 151 259 179 q 306 78 306 123 q 263 -28 306 24 q 155 -137 220 -80 l 104 -104 q 179 3 155 -42 q 135 37 151 14 q 118 89 118 61 q 143 155 118 130 q 214 179 168 179 m 448 179 q 516 151 493 179 q 540 78 540 123 q 497 -28 540 24 q 389 -137 455 -80 l 339 -104 q 413 3 389 -42 q 369 37 385 14 q 352 89 352 61 q 378 155 352 130 q 448 179 403 179 z "},"“":{"ha":592,"x_min":52,"x_max":488,"o":"m 52 649 m 179 825 q 223 791 207 814 q 240 740 240 767 q 214 674 240 698 q 144 649 189 649 q 76 677 99 649 q 52 750 52 705 q 95 856 52 804 q 203 965 137 908 l 253 932 q 179 825 203 870 m 413 825 q 457 791 441 814 q 474 740 474 767 q 449 674 474 698 q 378 649 424 649 q 310 677 333 649 q 286 750 286 705 q 329 856 286 804 q 438 965 372 908 l 488 932 q 413 825 438 870 z "},"”":{"ha":592,"x_min":104,"x_max":540,"o":"m 104 649 m 214 965 q 282 938 259 965 q 306 865 306 910 q 263 759 306 811 q 155 649 220 707 l 104 682 q 179 790 155 745 q 135 824 151 800 q 118 875 118 847 q 143 941 118 917 q 214 965 168 965 m 448 965 q 516 938 493 965 q 540 865 540 910 q 497 759 540 811 q 389 649 455 707 l 339 682 q 413 790 389 745 q 369 824 385 800 q 352 875 352 847 q 378 941 352 917 q 448 965 403 965 z "},"‘":{"ha":358,"x_min":52,"x_max":253,"o":"m 179 825 q 223 791 207 814 q 240 740 240 767 q 214 674 240 698 q 144 649 189 649 q 76 677 99 649 q 52 750 52 705 q 95 856 52 804 q 203 965 137 908 l 253 932 q 179 825 203 870 z "},"’":{"ha":358,"x_min":104,"x_max":306,"o":"m 214 965 q 282 938 259 965 q 306 865 306 910 q 263 759 306 811 q 155 649 220 707 l 104 682 q 179 790 155 745 q 135 824 151 800 q 118 875 118 847 q 143 941 118 917 q 214 965 168 965 z "},"‚":{"ha":1042,"x_min":50,"x_max":255,"o":"m 50 0 m 128 -16 q 77 20 97 -7 q 57 80 57 47 q 86 151 57 123 q 156 179 115 179 q 228 146 201 179 q 255 52 255 113 q 215 -71 255 -14 q 106 -198 175 -128 l 50 -161 l 128 -16 z "},"π":{"ha":811,"x_min":17,"x_max":811,"o":"m 811 21 q 661 -12 740 -12 q 491 175 491 -12 l 491 526 l 306 526 l 306 0 l 139 0 l 139 526 l 17 526 l 17 667 l 766 667 l 766 526 l 655 526 l 655 224 q 671 145 655 172 q 731 118 688 118 q 776 125 745 118 l 811 21 z "},"¢":{"ha":670,"x_min":50,"x_max":634,"o":"m 634 151 q 446 89 531 97 l 446 -82 l 307 -82 l 307 97 q 118 207 186 122 q 50 425 50 293 q 120 650 50 563 q 307 759 189 738 l 307 920 l 446 920 l 446 760 q 542 740 500 755 q 634 703 583 726 l 587 594 q 489 624 524 615 q 406 634 453 634 q 214 425 214 634 q 263 274 214 330 q 406 219 313 219 q 489 228 453 219 q 587 259 524 238 l 634 151 z "},"¤":{"ha":1042,"x_min":57,"x_max":762,"o":"m 528 608 q 410 635 464 635 q 293 609 361 635 l 181 729 l 57 606 l 181 495 q 151 378 151 439 q 159 319 151 351 q 181 260 167 286 l 57 149 l 182 26 l 292 148 q 410 120 340 120 q 526 149 470 120 l 639 26 l 762 151 l 641 260 q 661 319 653 286 q 668 378 668 351 q 641 493 668 429 l 762 606 l 639 729 l 528 608 m 410 488 q 485 457 453 488 q 517 378 517 425 q 485 300 517 332 q 410 269 453 269 q 333 300 365 269 q 302 378 302 332 q 333 457 302 425 q 410 488 365 488 z "},"$":{"ha":661,"x_min":54,"x_max":613,"o":"m 613 293 q 568 173 613 229 q 411 97 523 116 l 411 -82 l 273 -82 l 273 90 q 54 149 161 101 l 101 280 q 220 245 160 259 q 321 231 281 231 q 424 247 394 231 q 453 295 453 262 q 425 332 453 318 q 333 366 398 345 q 205 412 257 389 q 115 482 153 436 q 76 599 76 528 q 116 709 76 658 q 273 776 156 760 l 273 920 l 411 920 l 411 778 q 580 743 491 769 l 538 615 q 361 646 431 646 q 259 632 285 646 q 233 592 233 618 q 265 547 233 564 q 366 509 297 530 q 492 464 443 486 q 577 399 542 441 q 613 293 613 358 z "},"€":{"ha":868,"x_min":17,"x_max":813,"o":"m 788 49 q 526 -16 649 -16 q 289 55 384 -16 q 156 245 194 125 l 17 245 l 17 375 l 132 375 l 130 411 q 132 451 130 438 l 17 451 l 17 582 l 158 582 q 296 765 200 698 q 535 832 392 832 q 655 819 595 832 q 785 778 714 807 l 804 771 l 755 642 l 729 653 q 618 683 660 677 q 531 689 576 689 q 332 582 396 689 l 641 582 l 641 451 l 295 451 q 293 413 293 439 l 295 375 l 641 375 l 641 245 l 330 245 q 556 132 392 132 q 639 143 595 132 q 745 177 682 155 l 769 188 l 813 59 l 788 49 z "},"ƒ":{"ha":616,"x_min":-52,"x_max":674,"o":"m 620 679 q 517 693 569 693 q 389 587 389 693 l 389 530 l 620 530 l 620 399 l 389 399 l 389 -75 q 329 -250 389 -187 q 125 -312 269 -312 q -52 -288 42 -312 l -30 -172 q 83 -187 49 -187 q 174 -174 144 -187 q 214 -130 203 -160 q 224 -45 224 -101 l 224 399 l 113 399 l 113 530 l 224 530 l 224 582 q 278 747 224 668 q 479 825 332 825 q 649 799 559 825 l 674 790 l 648 670 l 620 679 z "},"₹":{"ha":656,"x_min":35,"x_max":604,"o":"m 415 694 q 457 611 444 656 l 604 611 l 604 497 l 467 497 q 404 357 457 417 q 280 267 351 297 l 465 30 l 356 -45 l 52 344 l 156 425 l 196 373 q 326 497 307 410 l 35 497 l 35 611 l 316 611 q 253 694 299 660 l 35 694 l 35 809 l 604 809 l 604 694 l 415 694 z "},"£":{"ha":766,"x_min":87,"x_max":696,"o":"m 694 0 l 694 130 l 375 130 l 375 328 l 656 328 l 656 460 l 375 460 l 375 510 q 406 641 375 601 q 526 682 438 682 q 595 674 559 682 q 642 665 632 667 l 696 800 q 533 828 613 828 q 292 738 363 828 q 220 479 220 648 l 220 460 l 102 460 l 102 328 l 220 328 l 220 130 l 87 130 l 87 0 l 694 0 z "},"¥":{"ha":814,"x_min":69,"x_max":745,"o":"m 302 439 l 137 439 l 137 318 l 330 318 l 330 247 l 137 247 l 137 125 l 330 125 l 330 0 l 472 0 l 472 125 l 677 125 l 677 247 l 472 247 l 472 318 l 677 318 l 677 439 l 505 439 l 745 809 l 576 809 l 406 516 l 241 809 l 69 809 l 302 439 z "},"Ω":{"ha":927,"x_min":52,"x_max":875,"o":"m 464 684 q 631 616 569 684 q 693 438 693 549 q 604 182 693 290 q 531 109 571 142 l 531 0 l 875 0 l 875 130 l 715 130 q 823 291 792 217 q 854 467 854 365 q 807 664 854 578 q 672 797 760 750 q 464 844 583 844 q 255 797 344 844 q 120 664 167 750 q 73 467 73 578 q 104 291 73 365 q 212 130 135 217 l 52 130 l 52 0 l 396 0 l 396 109 q 323 182 356 142 q 234 438 234 290 q 296 616 234 549 q 464 684 358 684 z "},"≈":{"ha":882,"x_min":95,"x_max":786,"o":"m 444 448 q 597 410 547 410 q 693 431 642 410 q 786 486 743 453 l 708 608 q 652 570 675 583 q 597 557 628 557 q 536 566 564 557 q 484 586 509 575 q 446 602 458 597 q 293 641 365 641 q 194 616 248 641 q 95 559 141 592 l 175 439 q 234 479 207 464 q 293 495 262 495 q 347 487 323 495 q 410 464 372 479 l 444 448 m 444 170 q 597 132 547 132 q 693 154 642 132 q 786 208 743 175 l 708 330 q 652 293 675 306 q 597 280 628 280 q 536 288 564 280 q 484 308 509 297 q 446 325 458 319 q 293 363 365 363 q 194 339 248 363 q 95 281 141 314 l 175 161 q 234 201 207 186 q 293 217 262 217 q 347 209 323 217 q 410 186 372 201 l 444 170 z "},"~":{"ha":717,"x_min":78,"x_max":639,"o":"m 78 755 m 248 957 q 136 911 184 957 q 78 799 89 865 l 205 759 q 233 807 220 793 q 273 821 245 821 q 332 797 292 821 q 396 766 366 778 q 457 755 425 755 q 583 802 535 755 q 639 911 632 849 l 514 953 q 490 907 502 922 q 448 892 477 892 q 406 904 431 892 q 377 917 382 915 q 248 957 297 957 z "},"∙":{"ha":569,"x_min":139,"x_max":431,"o":"m 285 247 q 182 290 226 247 q 139 392 139 333 q 182 496 139 453 q 285 538 226 538 q 388 496 345 538 q 431 392 431 453 q 388 290 431 333 q 285 247 345 247 z "},"÷":{"ha":840,"x_min":87,"x_max":753,"o":"m 424 547 q 356 575 384 547 q 328 642 328 602 q 356 709 328 682 q 424 736 384 736 q 490 709 464 736 q 517 642 517 682 q 490 575 517 602 q 424 547 464 547 m 753 325 l 753 464 l 87 464 l 87 325 l 753 325 m 424 52 q 356 80 384 52 q 328 148 328 108 q 356 214 328 188 q 424 241 384 241 q 490 214 464 241 q 517 148 517 188 q 490 80 517 108 q 424 52 464 52 z "},"∕":{"ha":441,"x_min":-113,"x_max":554,"o":"m 28 -17 l 554 809 l 413 809 l -113 -17 l 28 -17 z "},"=":{"ha":927,"x_min":122,"x_max":806,"o":"m 806 460 l 806 594 l 122 594 l 122 460 l 806 460 m 806 186 l 806 319 l 122 319 l 122 186 l 806 186 z "},">":{"ha":743,"x_min":83,"x_max":674,"o":"m 83 616 l 514 417 l 83 219 l 83 73 l 674 361 l 674 472 l 83 762 l 83 616 z "},"≥":{"ha":759,"x_min":83,"x_max":689,"o":"m 83 663 l 83 540 l 517 420 l 83 302 l 83 177 l 688 365 l 688 476 l 83 663 m 83 0 l 689 0 l 689 111 l 83 111 l 83 0 z "},"∆":{"ha":806,"x_min":56,"x_max":750,"o":"m 491 809 l 318 809 l 56 87 l 56 0 l 750 0 l 750 87 l 491 809 m 219 122 l 403 651 l 583 122 l 219 122 z "},"∞":{"ha":1097,"x_min":35,"x_max":1063,"o":"m 781 83 q 991 165 915 83 q 1044 253 1026 203 q 1063 359 1063 302 q 993 569 1063 484 q 785 656 920 656 q 622 614 682 656 q 497 472 563 571 q 386 563 441 530 q 269 595 332 595 q 95 529 156 595 q 35 359 35 462 q 96 191 35 259 q 266 123 158 123 q 509 264 401 123 q 635 129 575 175 q 781 83 694 83 m 767 517 q 879 473 845 517 q 913 359 913 429 q 875 259 913 299 q 774 219 837 219 q 679 259 724 219 q 576 370 634 299 q 667 484 627 451 q 767 517 707 517 m 269 260 q 199 289 224 260 q 174 359 174 318 q 199 430 174 401 q 271 458 224 458 q 359 431 314 458 q 434 361 405 403 q 360 288 405 316 q 269 260 316 260 z "},"∫":{"ha":500,"x_min":63,"x_max":438,"o":"m 201 297 q 215 260 205 285 q 262 122 245 181 q 280 21 280 63 q 257 -42 280 -17 q 193 -66 234 -66 q 115 -49 163 -66 l 63 -193 q 127 -211 87 -203 q 205 -219 167 -219 q 371 -160 306 -219 q 436 -2 436 -101 q 410 148 436 59 q 337 356 384 238 q 247 604 273 523 q 220 740 220 686 q 241 801 220 778 q 304 825 262 825 q 382 807 333 825 l 438 953 q 373 971 413 964 q 295 979 333 979 q 129 920 194 979 q 64 762 64 861 q 93 604 64 696 q 201 297 122 512 z "},"<":{"ha":743,"x_min":69,"x_max":660,"o":"m 660 73 l 660 219 l 229 417 l 660 616 l 660 762 l 69 472 l 69 361 l 660 73 z "},"≤":{"ha":759,"x_min":69,"x_max":675,"o":"m 675 302 l 241 420 l 675 540 l 675 663 l 71 476 l 71 365 l 675 177 l 675 302 m 675 0 l 675 111 l 69 111 l 69 0 l 675 0 z "},"¬":{"ha":842,"x_min":78,"x_max":764,"o":"m 618 97 l 618 293 l 78 293 l 78 431 l 764 431 l 764 97 l 618 97 z "},"µ":{"ha":771,"x_min":94,"x_max":686,"o":"m 571 -2 l 550 47 q 456 1 500 17 q 363 -16 411 -16 q 250 14 302 -16 l 250 -302 l 94 -302 l 94 667 l 255 667 l 255 316 q 280 176 255 224 q 377 128 304 128 q 523 172 446 128 l 523 667 l 686 667 l 686 -2 l 571 -2 z "},"−":{"ha":840,"x_min":87,"x_max":753,"o":"m 753 325 l 753 464 l 87 464 l 87 325 l 753 325 z "},"×":{"ha":774,"x_min":122,"x_max":653,"o":"m 387 278 l 220 111 l 122 210 l 288 377 l 123 543 l 220 642 l 387 476 l 554 642 l 651 543 l 486 377 l 653 210 l 554 111 l 387 278 z "},"≠":{"ha":927,"x_min":122,"x_max":806,"o":"m 519 319 l 806 319 l 806 186 l 476 186 l 415 0 l 273 0 l 333 186 l 122 186 l 122 319 l 377 319 l 424 460 l 122 460 l 122 594 l 467 594 l 531 792 l 674 792 l 609 594 l 806 594 l 806 460 l 566 460 l 519 319 z "},"∂":{"ha":727,"x_min":61,"x_max":675,"o":"m 321 825 q 517 762 438 825 q 636 597 597 700 q 675 377 675 495 q 594 97 675 212 q 347 -17 512 -17 q 139 61 215 -17 q 63 253 63 139 q 139 461 63 389 q 340 533 215 533 q 503 505 429 533 q 440 643 484 592 q 325 694 396 694 q 227 674 286 694 q 125 630 168 655 l 61 760 q 197 807 137 790 q 321 825 257 825 m 351 127 q 477 194 436 127 q 519 351 519 262 q 361 389 438 389 q 248 360 285 389 q 212 262 212 332 q 248 161 212 196 q 351 127 285 127 z "},"%":{"ha":875,"x_min":17,"x_max":858,"o":"m 377 611 q 331 753 377 698 q 198 809 285 809 q 64 753 111 809 q 17 611 17 698 q 63 467 17 523 q 198 411 108 411 q 331 468 285 411 q 377 611 377 524 m 233 0 l 786 809 l 635 809 l 83 0 l 233 0 m 132 611 q 148 672 132 648 q 198 696 165 696 q 247 672 231 696 q 264 611 264 648 q 247 550 264 575 q 198 526 231 526 q 148 550 165 526 q 132 611 132 575 m 858 200 q 812 342 858 286 q 679 398 766 398 q 545 342 592 398 q 498 200 498 286 q 543 56 498 111 q 679 0 589 0 q 812 56 766 0 q 858 200 858 113 m 613 200 q 629 260 613 236 q 679 285 646 285 q 728 260 712 285 q 745 200 745 236 q 728 139 745 163 q 679 115 712 115 q 629 139 646 115 q 613 200 613 163 z "},"‰":{"ha":1292,"x_min":17,"x_max":1274,"o":"m 377 611 q 331 753 377 698 q 198 809 285 809 q 64 753 111 809 q 17 611 17 698 q 63 467 17 523 q 198 411 108 411 q 331 468 285 411 q 377 611 377 524 m 233 0 l 786 809 l 635 809 l 83 0 l 233 0 m 132 611 q 148 672 132 648 q 198 696 165 696 q 247 672 231 696 q 264 611 264 648 q 247 550 264 575 q 198 526 231 526 q 148 550 165 526 q 132 611 132 575 m 858 200 q 812 342 858 286 q 679 398 766 398 q 545 342 592 398 q 498 200 498 286 q 543 56 498 111 q 679 0 589 0 q 812 56 766 0 q 858 200 858 113 m 1274 200 q 1228 342 1274 286 q 1095 398 1182 398 q 962 342 1009 398 q 915 200 915 286 q 960 56 915 111 q 1095 0 1005 0 q 1228 56 1182 0 q 1274 200 1274 113 m 613 200 q 629 260 613 236 q 679 285 646 285 q 728 260 712 285 q 745 200 745 236 q 728 139 745 163 q 679 115 712 115 q 629 139 646 115 q 613 200 613 163 m 1030 200 q 1046 260 1030 236 q 1095 285 1063 285 q 1145 260 1128 285 q 1161 200 1161 236 q 1145 139 1161 163 q 1095 115 1128 115 q 1046 139 1063 115 q 1030 200 1030 163 z "},"+":{"ha":806,"x_min":87,"x_max":719,"o":"m 332 715 l 332 467 l 87 467 l 87 321 l 332 321 l 332 71 l 474 71 l 474 321 l 719 321 l 719 467 l 474 467 l 474 715 l 332 715 z "},"±":{"ha":771,"x_min":87,"x_max":684,"o":"m 314 773 l 314 547 l 87 547 l 87 411 l 314 411 l 314 193 l 457 193 l 457 411 l 684 411 l 684 547 l 457 547 l 457 773 l 314 773 m 684 0 l 684 132 l 87 132 l 87 0 l 684 0 z "},"∏":{"ha":938,"x_min":104,"x_max":833,"o":"m 104 -111 l 259 -111 l 259 757 l 681 757 l 681 -111 l 833 -111 l 833 898 l 104 898 l 104 -111 z "},"√":{"ha":809,"x_min":43,"x_max":781,"o":"m 328 455 l 43 333 l 89 220 l 220 276 l 347 -61 l 538 -61 l 781 929 l 628 953 l 436 92 l 328 455 z "},"∑":{"ha":830,"x_min":87,"x_max":764,"o":"m 87 870 l 87 771 l 444 370 l 87 -30 l 87 -128 l 764 -128 l 764 7 l 313 7 l 616 340 l 616 399 l 316 731 l 764 731 l 764 870 l 87 870 z "},"◌":{"ha":858,"x_min":35,"x_max":823,"o":"m 429 708 q 400 720 411 708 q 389 748 389 731 q 400 777 389 766 q 429 788 411 788 q 457 777 446 788 q 469 748 469 766 q 457 720 469 731 q 429 708 446 708 m 290 682 q 261 694 273 682 q 250 722 250 705 q 261 751 250 740 q 290 762 273 762 q 318 751 306 762 q 330 722 330 740 q 318 694 330 705 q 290 682 306 682 m 569 682 q 541 694 552 682 q 530 722 530 705 q 541 751 530 740 q 569 762 552 762 q 598 751 587 762 q 609 722 609 740 q 598 694 609 705 q 569 682 587 682 m 177 606 q 148 617 160 606 q 137 646 137 628 q 148 674 137 663 q 177 686 160 686 q 206 674 194 686 q 217 646 217 663 q 206 617 217 628 q 177 606 194 606 m 682 606 q 654 617 665 606 q 642 646 642 628 q 654 674 642 663 q 682 686 665 686 q 711 674 700 686 q 722 646 722 663 q 711 617 722 628 q 682 606 700 606 m 99 490 q 70 501 82 490 q 59 530 59 512 q 70 558 59 547 q 99 569 82 569 q 128 558 116 569 q 139 530 139 547 q 128 501 139 512 q 99 490 116 490 m 760 490 q 732 501 743 490 q 720 530 720 512 q 732 558 720 547 q 760 569 743 569 q 789 558 778 569 q 800 530 800 547 q 789 501 800 512 q 760 490 778 490 m 75 354 q 46 365 57 354 q 35 394 35 377 q 46 423 35 411 q 75 434 57 434 q 103 423 92 434 q 115 394 115 411 q 103 365 115 377 q 75 354 92 354 m 783 354 q 754 365 766 354 q 743 394 743 377 q 754 423 743 411 q 783 434 766 434 q 812 423 800 434 q 823 394 823 411 q 812 365 823 377 q 783 354 800 354 m 99 299 q 128 287 116 299 q 139 260 139 276 q 128 231 139 243 q 99 219 116 219 q 70 231 82 219 q 59 260 59 243 q 70 287 59 276 q 99 299 82 299 m 760 299 q 789 287 778 299 q 800 260 800 276 q 789 231 800 243 q 760 219 778 219 q 732 231 743 219 q 720 260 720 243 q 732 287 720 276 q 760 299 743 299 m 177 184 q 206 172 194 184 q 217 142 217 160 q 206 115 217 127 q 177 104 194 104 q 148 115 160 104 q 137 142 137 127 q 148 172 137 160 q 177 184 160 184 m 682 184 q 711 172 700 184 q 722 142 722 160 q 711 115 722 127 q 682 104 700 104 q 654 115 665 104 q 642 142 642 127 q 654 172 642 160 q 682 184 665 184 m 290 108 q 318 95 306 108 q 330 66 330 83 q 318 38 330 50 q 290 26 306 26 q 261 38 273 26 q 250 66 250 50 q 261 95 250 83 q 290 108 273 108 m 569 108 q 598 95 587 108 q 609 66 609 83 q 598 38 609 50 q 569 26 587 26 q 541 38 552 26 q 530 66 530 50 q 541 95 530 83 q 569 108 552 108 m 429 80 q 457 69 446 80 q 469 42 469 57 q 457 12 469 24 q 429 0 446 0 q 400 12 411 0 q 389 42 389 24 q 400 69 389 57 q 429 80 411 80 z "},"◊":{"ha":724,"x_min":43,"x_max":681,"o":"m 307 726 l 43 361 l 307 0 l 415 0 l 681 361 l 415 726 l 307 726 m 208 361 l 361 578 l 516 361 l 361 146 l 208 361 z "},"&":{"ha":1042,"x_min":87,"x_max":981,"o":"m 684 116 q 528 3 597 38 q 359 -31 458 -31 q 226 -3 288 -31 q 125 80 163 26 q 87 208 87 134 q 137 373 87 304 q 299 536 188 443 q 196 778 196 670 q 264 934 196 882 q 436 986 332 986 q 601 935 538 986 q 663 781 663 884 q 630 657 663 714 q 514 526 597 601 l 682 337 l 833 500 l 944 396 l 786 220 l 981 0 l 786 0 l 684 116 m 436 842 q 373 823 398 842 q 349 773 349 804 q 365 706 349 738 q 418 628 380 674 q 512 774 512 707 q 493 823 512 804 q 436 842 474 842 m 361 115 q 472 141 427 115 q 580 231 517 168 l 401 432 q 281 323 323 372 q 240 217 240 274 q 273 141 240 168 q 361 115 306 115 z "},"^":{"ha":747,"x_min":69,"x_max":677,"o":"m 172 628 l 373 832 l 575 628 l 677 726 l 373 1038 l 69 726 l 172 628 z "},"@":{"ha":1365,"x_min":69,"x_max":1295,"o":"m 863 627 q 696 661 774 661 q 450 568 543 661 q 356 309 356 474 q 399 135 356 208 q 512 22 443 61 q 661 -17 582 -17 q 861 75 780 -17 q 1019 -17 906 -17 q 1170 35 1108 -17 q 1264 171 1233 87 q 1295 349 1295 255 q 1147 787 1295 632 q 701 943 998 943 q 391 866 536 943 q 158 649 247 790 q 69 326 69 509 q 148 0 69 137 q 358 -208 227 -137 q 637 -280 488 -280 q 887 -243 771 -280 l 887 -108 q 672 -142 788 -142 q 442 -86 543 -142 q 282 78 340 -30 q 224 333 224 186 q 287 571 224 464 q 462 741 351 679 q 708 804 573 804 q 1036 688 922 804 q 1149 347 1149 573 q 1118 171 1149 238 q 1036 104 1087 104 q 964 229 964 104 l 964 655 l 873 655 l 863 627 m 512 321 q 559 484 512 425 q 693 542 606 542 q 821 516 764 542 l 821 186 q 672 115 766 115 q 554 170 595 115 q 512 321 512 226 z "},"|":{"ha":521,"x_min":191,"x_max":330,"o":"m 330 -328 l 191 -328 l 191 1097 l 330 1097 l 330 -328 z "},"¦":{"ha":521,"x_min":191,"x_max":330,"o":"m 330 477 l 330 1097 l 191 1097 l 191 477 l 330 477 m 330 -326 l 330 293 l 191 293 l 191 -326 l 330 -326 z "},"©":{"ha":1179,"x_min":95,"x_max":1083,"o":"m 95 406 q 158 152 95 264 q 333 -23 220 40 q 590 -85 446 -85 q 845 -22 733 -85 q 1020 153 957 42 q 1083 406 1083 264 q 1020 663 1083 550 q 845 839 957 776 q 590 901 733 901 q 333 839 446 901 q 158 663 220 776 q 95 406 95 550 m 214 411 q 261 608 214 523 q 394 740 309 693 q 590 788 479 788 q 786 740 700 788 q 921 608 873 693 q 969 411 969 523 q 868 136 969 240 q 590 33 767 33 q 394 80 479 33 q 261 213 309 127 q 214 411 214 299 m 460 410 q 499 534 460 490 q 615 578 538 578 q 671 571 644 578 q 721 556 698 564 q 755 545 745 549 l 793 630 q 701 666 747 653 q 590 679 656 679 q 400 608 470 679 q 330 410 330 536 q 400 213 330 285 q 590 141 470 141 q 706 154 658 141 q 793 191 753 167 l 755 278 q 681 253 712 262 q 615 245 651 245 q 500 289 540 245 q 460 410 460 333 z "},"†":{"ha":609,"x_min":78,"x_max":531,"o":"m 361 736 l 531 724 l 531 859 l 361 845 l 377 1035 l 229 1035 l 245 845 l 78 859 l 78 724 l 245 736 l 229 83 l 377 83 l 361 736 z "},"‡":{"ha":609,"x_min":78,"x_max":531,"o":"m 231 405 q 243 73 231 234 l 78 85 l 78 -50 l 245 -36 l 229 -226 l 377 -226 l 361 -36 l 531 -50 l 531 85 l 361 73 q 375 405 375 264 q 361 736 375 545 l 531 724 l 531 859 l 361 845 l 377 1035 l 229 1035 l 245 845 l 78 859 l 78 724 l 243 736 q 231 405 231 575 z "},"°":{"ha":455,"x_min":17,"x_max":438,"o":"m 227 465 q 77 522 137 465 q 17 672 17 578 q 77 824 17 766 q 227 882 137 882 q 378 824 318 882 q 438 672 438 766 q 378 522 438 578 q 227 465 318 465 m 135 672 q 161 606 135 632 q 227 580 188 580 q 295 606 267 580 q 323 672 323 632 q 295 741 323 714 q 227 769 267 769 q 161 741 188 769 q 135 672 135 714 z "},"℮":{"ha":806,"x_min":69,"x_max":736,"o":"m 69 453 q 168 215 69 306 q 273 149 214 172 q 401 127 333 127 q 684 217 559 127 l 660 253 q 401 172 542 172 q 267 208 328 172 q 181 280 222 234 l 181 444 l 727 444 l 736 453 q 639 736 736 635 q 532 806 594 783 q 401 830 470 830 q 165 736 253 830 q 69 453 69 635 m 181 661 q 401 788 248 788 q 622 661 554 788 l 623 486 l 181 486 l 181 661 z "},"ℓ":{"ha":569,"x_min":9,"x_max":535,"o":"m 535 52 q 432 2 483 19 q 311 -16 382 -16 q 203 28 243 -16 q 160 142 163 71 l 104 80 l 9 179 l 160 347 l 160 658 q 210 880 160 814 q 358 946 260 946 q 484 902 441 946 q 528 773 528 858 q 472 565 528 674 q 328 325 417 457 l 302 285 l 302 226 q 319 153 302 175 q 380 130 335 130 q 436 141 411 130 q 488 167 460 151 l 535 52 m 314 764 q 302 622 302 720 l 302 521 q 370 658 351 609 q 389 748 389 707 q 358 804 389 804 q 331 795 340 804 q 314 764 321 786 z "},"¶":{"ha":901,"x_min":42,"x_max":792,"o":"m 401 1017 q 42 714 42 1017 q 127 508 42 585 q 352 427 212 431 l 354 0 l 519 0 l 519 882 l 628 882 l 628 0 l 792 0 l 792 1017 l 401 1017 z "},"®":{"ha":1042,"x_min":35,"x_max":783,"o":"m 783 703 q 753 851 783 780 q 674 970 722 922 q 555 1042 625 1016 q 410 1068 484 1068 q 261 1041 333 1068 q 142 969 189 1014 q 64 850 94 920 q 35 703 35 780 q 64 555 35 625 q 142 438 94 484 q 261 364 189 391 q 410 337 333 337 q 556 364 484 337 q 675 438 627 391 q 753 555 724 484 q 783 703 783 625 m 689 703 q 613 499 689 573 q 410 425 536 425 q 207 499 283 425 q 130 703 130 573 q 208 906 130 828 q 410 977 283 977 q 611 906 536 977 q 689 703 689 828 m 559 778 q 524 865 559 833 q 431 896 490 896 l 266 896 l 266 521 l 345 521 l 345 649 l 410 649 l 474 521 l 563 521 l 484 665 q 542 710 524 684 q 559 778 559 736 m 484 776 q 461 732 484 743 q 401 720 438 720 l 345 720 l 345 825 l 418 825 q 484 776 484 825 z "},"§":{"ha":733,"x_min":87,"x_max":646,"o":"m 568 332 q 646 189 646 280 q 579 48 646 111 q 345 -16 512 -16 q 87 45 217 -16 l 134 175 q 253 141 193 155 q 354 127 314 127 q 457 142 427 127 q 486 191 486 158 q 453 233 486 215 q 349 273 420 250 l 299 290 q 159 366 208 323 q 109 495 109 410 q 125 564 109 528 q 181 628 141 601 q 109 773 109 682 q 167 898 109 842 q 392 955 224 955 q 508 943 446 955 q 613 917 569 931 l 571 788 q 478 813 519 804 q 394 821 438 821 q 292 807 318 821 q 266 766 266 793 q 299 719 266 738 q 399 677 332 700 l 443 661 q 551 616 512 635 q 618 561 590 597 q 646 467 646 524 q 627 397 646 432 q 568 332 608 361 m 266 505 q 299 448 266 470 q 394 405 332 425 l 429 394 q 486 469 486 424 q 453 510 486 493 q 349 550 420 528 l 311 564 q 266 505 266 543 z "},"™":{"ha":924,"x_min":17,"x_max":872,"o":"m 253 861 l 385 861 l 385 955 l 17 955 l 17 861 l 146 861 l 146 569 l 253 569 l 253 861 m 682 672 l 774 825 l 774 569 l 872 569 l 872 955 l 753 955 l 658 799 l 563 955 l 446 955 l 446 569 l 543 569 l 543 825 l 635 672 l 682 672 z "}," ":{"ha":382,"x_min":0,"x_max":0,"o":""},"‍":{"ha":0,"x_min":0,"x_max":0,"o":""},"‌":{"ha":0,"x_min":0,"x_max":0,"o":""}}}
